  0
SECTION
  2
BLOCKS
  0
ENDSEC
  0
SECTION
  2
ENTITIES
  0
LINE
  8
0
 10
85.7393
 20
85.7402
 11
66
 21
85.7402
  0
LINE
  8
0
 10
66
 20
85.7402
 11
66
 21
66
  0
LINE
  8
0
 10
66
 20
66
 11
85.7393
 21
66
  0
LINE
  8
0
 10
85.7393
 20
66
 11
85.7393
 21
85.7402
  0
LINE
  8
0
 10
74.9658
 20
70.7588
 11
74.8955
 21
70.7676
  0
LINE
  8
0
 10
74.8955
 20
70.7676
 11
74.8301
 21
70.7812
  0
LINE
  8
0
 10
74.8301
 20
70.7812
 11
74.7988
 21
70.79
  0
LINE
  8
0
 10
74.7988
 20
70.79
 11
74.709
 21
70.8232
  0
LINE
  8
0
 10
74.709
 20
70.8232
 11
74.626
 21
70.8652
  0
LINE
  8
0
 10
74.626
 20
70.8652
 11
74.5479
 21
70.915
  0
LINE
  8
0
 10
74.5479
 20
70.915
 11
74.4736
 21
70.9697
  0
LINE
  8
0
 10
74.4736
 20
70.9697
 11
74.1826
 21
71.2188
  0
LINE
  8
0
 10
74.1826
 20
71.2188
 11
69.457
 21
75.1406
  0
LINE
  8
0
 10
69.457
 20
75.1406
 11
69.3486
 21
75.2393
  0
LINE
  8
0
 10
69.3486
 20
75.2393
 11
69.2773
 21
75.3125
  0
LINE
  8
0
 10
69.2773
 20
75.3125
 11
69.2344
 21
75.3623
  0
LINE
  8
0
 10
69.2344
 20
75.3623
 11
69.1777
 21
75.4385
  0
LINE
  8
0
 10
69.1777
 20
75.4385
 11
69.1445
 21
75.4912
  0
LINE
  8
0
 10
69.1445
 20
75.4912
 11
69.1162
 21
75.5459
  0
LINE
  8
0
 10
69.1162
 20
75.5459
 11
69.082
 21
75.6318
  0
LINE
  8
0
 10
69.082
 20
75.6318
 11
69.0723
 21
75.6621
  0
LINE
  8
0
 10
69.0723
 20
75.6621
 11
69.0576
 21
75.7246
  0
LINE
  8
0
 10
69.0576
 20
75.7246
 11
69.0479
 21
75.791
  0
LINE
  8
0
 10
69.0479
 20
75.791
 11
69.043
 21
75.8604
  0
LINE
  8
0
 10
69.043
 20
75.8604
 11
69.043
 21
75.9336
  0
LINE
  8
0
 10
69.043
 20
75.9336
 11
69.0479
 21
76.0029
  0
LINE
  8
0
 10
69.0479
 20
76.0029
 11
69.0518
 21
76.0361
  0
LINE
  8
0
 10
69.0518
 20
76.0361
 11
69.0645
 21
76.1006
  0
LINE
  8
0
 10
69.0645
 20
76.1006
 11
69.082
 21
76.1611
  0
LINE
  8
0
 10
69.082
 20
76.1611
 11
69.1035
 21
76.2197
  0
LINE
  8
0
 10
69.1035
 20
76.2197
 11
69.1299
 21
76.2754
  0
LINE
  8
0
 10
69.1299
 20
76.2754
 11
69.1445
 21
76.3018
  0
LINE
  8
0
 10
69.1445
 20
76.3018
 11
69.1777
 21
76.3545
  0
LINE
  8
0
 10
69.1777
 20
76.3545
 11
69.2148
 21
76.4062
  0
LINE
  8
0
 10
69.2148
 20
76.4062
 11
69.2773
 21
76.4805
  0
LINE
  8
0
 10
69.2773
 20
76.4805
 11
69.3486
 21
76.5537
  0
LINE
  8
0
 10
69.3486
 20
76.5537
 11
69.4287
 21
76.6279
  0
LINE
  8
0
 10
69.4287
 20
76.6279
 11
69.5771
 21
76.7539
  0
LINE
  8
0
 10
69.5771
 20
76.7539
 11
74.208
 21
80.5957
  0
LINE
  8
0
 10
74.208
 20
80.5957
 11
74.4492
 21
80.8047
  0
LINE
  8
0
 10
74.4492
 20
80.8047
 11
74.5479
 21
80.8789
  0
LINE
  8
0
 10
74.5479
 20
80.8789
 11
74.6533
 21
80.9434
  0
LINE
  8
0
 10
74.6533
 20
80.9434
 11
74.7383
 21
80.9824
  0
LINE
  8
0
 10
74.7383
 20
80.9824
 11
74.7988
 21
81.0029
  0
LINE
  8
0
 10
74.7988
 20
81.0029
 11
74.8623
 21
81.0195
  0
LINE
  8
0
 10
74.8623
 20
81.0195
 11
74.9297
 21
81.0312
  0
LINE
  8
0
 10
74.9297
 20
81.0312
 11
75.002
 21
81.0371
  0
LINE
  8
0
 10
75.002
 20
81.0371
 11
75.0908
 21
81.0361
  0
LINE
  8
0
 10
75.0908
 20
81.0361
 11
75.1406
 21
81.0322
  0
LINE
  8
0
 10
75.1406
 20
81.0322
 11
75.2363
 21
81.0166
  0
LINE
  8
0
 10
75.2363
 20
81.0166
 11
75.2812
 21
81.0049
  0
LINE
  8
0
 10
75.2812
 20
81.0049
 11
75.3252
 21
80.9912
  0
LINE
  8
0
 10
75.3252
 20
80.9912
 11
75.3682
 21
80.9756
  0
LINE
  8
0
 10
75.3682
 20
80.9756
 11
75.4492
 21
80.9375
  0
LINE
  8
0
 10
75.4492
 20
80.9375
 11
75.5234
 21
80.8916
  0
LINE
  8
0
 10
75.5234
 20
80.8916
 11
75.5586
 21
80.8662
  0
LINE
  8
0
 10
75.5586
 20
80.8662
 11
75.5928
 21
80.8389
  0
LINE
  8
0
 10
75.5928
 20
80.8389
 11
75.624
 21
80.8105
  0
LINE
  8
0
 10
75.624
 20
80.8105
 11
75.6543
 21
80.7803
  0
LINE
  8
0
 10
75.6543
 20
80.7803
 11
75.6826
 21
80.749
  0
LINE
  8
0
 10
75.6826
 20
80.749
 11
75.71
 21
80.7158
  0
LINE
  8
0
 10
75.71
 20
80.7158
 11
75.7578
 21
80.6475
  0
LINE
  8
0
 10
75.7578
 20
80.6475
 11
75.7998
 21
80.5752
  0
LINE
  8
0
 10
75.7998
 20
80.5752
 11
75.834
 21
80.499
  0
LINE
  8
0
 10
75.834
 20
80.499
 11
75.8613
 21
80.4209
  0
LINE
  8
0
 10
75.8613
 20
80.4209
 11
75.8721
 21
80.3818
  0
LINE
  8
0
 10
75.8721
 20
80.3818
 11
75.8877
 21
80.3018
  0
LINE
  8
0
 10
75.8877
 20
80.3018
 11
75.8955
 21
80.2207
  0
LINE
  8
0
 10
75.8955
 20
80.2207
 11
75.8965
 21
77.6104
  0
LINE
  8
0
 10
75.8965
 20
77.6104
 11
81.9395
 21
77.6094
  0
LINE
  8
0
 10
81.9395
 20
77.6094
 11
81.9844
 21
77.6055
  0
LINE
  8
0
 10
81.9844
 20
77.6055
 11
82.0283
 21
77.5996
  0
LINE
  8
0
 10
82.0283
 20
77.5996
 11
82.0713
 21
77.5918
  0
LINE
  8
0
 10
82.0713
 20
77.5918
 11
82.1553
 21
77.5693
  0
LINE
  8
0
 10
82.1553
 20
77.5693
 11
82.1963
 21
77.5547
  0
LINE
  8
0
 10
82.1963
 20
77.5547
 11
82.2754
 21
77.5205
  0
LINE
  8
0
 10
82.2754
 20
77.5205
 11
82.3496
 21
77.4785
  0
LINE
  8
0
 10
82.3496
 20
77.4785
 11
82.4189
 21
77.4287
  0
LINE
  8
0
 10
82.4189
 20
77.4287
 11
82.4521
 21
77.4023
  0
LINE
  8
0
 10
82.4521
 20
77.4023
 11
82.5137
 21
77.3438
  0
LINE
  8
0
 10
82.5137
 20
77.3438
 11
82.5693
 21
77.2793
  0
LINE
  8
0
 10
82.5693
 20
77.2793
 11
82.5947
 21
77.2451
  0
LINE
  8
0
 10
82.5947
 20
77.2451
 11
82.6406
 21
77.1729
  0
LINE
  8
0
 10
82.6406
 20
77.1729
 11
82.6787
 21
77.0957
  0
LINE
  8
0
 10
82.6787
 20
77.0957
 11
82.6953
 21
77.0566
  0
LINE
  8
0
 10
82.6953
 20
77.0566
 11
82.71
 21
77.0156
  0
LINE
  8
0
 10
82.71
 20
77.0156
 11
82.7324
 21
76.9307
  0
LINE
  8
0
 10
82.7324
 20
76.9307
 11
82.7402
 21
76.8877
  0
LINE
  8
0
 10
82.7402
 20
76.8877
 11
82.7461
 21
76.8438
  0
LINE
  8
0
 10
82.7461
 20
76.8438
 11
82.751
 21
76.7539
  0
LINE
  8
0
 10
82.751
 20
76.7539
 11
82.751
 21
75.04
  0
LINE
  8
0
 10
82.751
 20
75.04
 11
82.7461
 21
74.9502
  0
LINE
  8
0
 10
82.7461
 20
74.9502
 11
82.7324
 21
74.8623
  0
LINE
  8
0
 10
82.7324
 20
74.8623
 11
82.71
 21
74.7783
  0
LINE
  8
0
 10
82.71
 20
74.7783
 11
82.6953
 21
74.7373
  0
LINE
  8
0
 10
82.6953
 20
74.7373
 11
82.6787
 21
74.6973
  0
LINE
  8
0
 10
82.6787
 20
74.6973
 11
82.6406
 21
74.6211
  0
LINE
  8
0
 10
82.6406
 20
74.6211
 11
82.5947
 21
74.5488
  0
LINE
  8
0
 10
82.5947
 20
74.5488
 11
82.5693
 21
74.5146
  0
LINE
  8
0
 10
82.5693
 20
74.5146
 11
82.542
 21
74.4814
  0
LINE
  8
0
 10
82.542
 20
74.4814
 11
82.5137
 21
74.4502
  0
LINE
  8
0
 10
82.5137
 20
74.4502
 11
82.4834
 21
74.4199
  0
LINE
  8
0
 10
82.4834
 20
74.4199
 11
82.4521
 21
74.3916
  0
LINE
  8
0
 10
82.4521
 20
74.3916
 11
82.4189
 21
74.3643
  0
LINE
  8
0
 10
82.4189
 20
74.3643
 11
82.3848
 21
74.3389
  0
LINE
  8
0
 10
82.3848
 20
74.3389
 11
82.3496
 21
74.3154
  0
LINE
  8
0
 10
82.3496
 20
74.3154
 11
82.2754
 21
74.2734
  0
LINE
  8
0
 10
82.2754
 20
74.2734
 11
82.2363
 21
74.2549
  0
LINE
  8
0
 10
82.2363
 20
74.2549
 11
82.1963
 21
74.2383
  0
LINE
  8
0
 10
82.1963
 20
74.2383
 11
82.1143
 21
74.2119
  0
LINE
  8
0
 10
82.1143
 20
74.2119
 11
82.0283
 21
74.1934
  0
LINE
  8
0
 10
82.0283
 20
74.1934
 11
81.9844
 21
74.1875
  0
LINE
  8
0
 10
81.9844
 20
74.1875
 11
81.8936
 21
74.1836
  0
LINE
  8
0
 10
81.8936
 20
74.1836
 11
75.8965
 21
74.1836
  0
LINE
  8
0
 10
75.8965
 20
74.1836
 11
75.8955
 21
71.5723
  0
LINE
  8
0
 10
75.8955
 20
71.5723
 11
75.8877
 21
71.4922
  0
LINE
  8
0
 10
75.8877
 20
71.4922
 11
75.8721
 21
71.4121
  0
LINE
  8
0
 10
75.8721
 20
71.4121
 11
75.8613
 21
71.3721
  0
LINE
  8
0
 10
75.8613
 20
71.3721
 11
75.834
 21
71.2939
  0
LINE
  8
0
 10
75.834
 20
71.2939
 11
75.7998
 21
71.2188
  0
LINE
  8
0
 10
75.7998
 20
71.2188
 11
75.7578
 21
71.1465
  0
LINE
  8
0
 10
75.7578
 20
71.1465
 11
75.71
 21
71.0771
  0
LINE
  8
0
 10
75.71
 20
71.0771
 11
75.6543
 21
71.0137
  0
LINE
  8
0
 10
75.6543
 20
71.0137
 11
75.624
 21
70.9834
  0
LINE
  8
0
 10
75.624
 20
70.9834
 11
75.5928
 21
70.9551
  0
LINE
  8
0
 10
75.5928
 20
70.9551
 11
75.5586
 21
70.9277
  0
LINE
  8
0
 10
75.5586
 20
70.9277
 11
75.4873
 21
70.8779
  0
LINE
  8
0
 10
75.4873
 20
70.8779
 11
75.4092
 21
70.8359
  0
LINE
  8
0
 10
75.4092
 20
70.8359
 11
75.3682
 21
70.8184
  0
LINE
  8
0
 10
75.3682
 20
70.8184
 11
75.2812
 21
70.7881
  0
LINE
  8
0
 10
75.2812
 20
70.7881
 11
75.1885
 21
70.7676
  0
LINE
  8
0
 10
75.1885
 20
70.7676
 11
75.1406
 21
70.7617
  0
LINE
  8
0
 10
75.1406
 20
70.7617
 11
75.0908
 21
70.7578
  0
LINE
  8
0
 10
75.0908
 20
70.7578
 11
75.04
 21
70.7559
  0
LINE
  8
0
 10
75.04
 20
70.7559
 11
74.9658
 21
70.7588
  0
LINE
  8
0
 10
63.7393
 20
85.7402
 11
44
 21
85.7402
  0
LINE
  8
0
 10
44
 20
85.7402
 11
44
 21
66
  0
LINE
  8
0
 10
44
 20
66
 11
63.7393
 21
66
  0
LINE
  8
0
 10
63.7393
 20
66
 11
63.7393
 21
85.7402
  0
LINE
  8
0
 10
52.9658
 20
70.7588
 11
52.8955
 21
70.7676
  0
LINE
  8
0
 10
52.8955
 20
70.7676
 11
52.8301
 21
70.7812
  0
LINE
  8
0
 10
52.8301
 20
70.7812
 11
52.7988
 21
70.79
  0
LINE
  8
0
 10
52.7988
 20
70.79
 11
52.709
 21
70.8232
  0
LINE
  8
0
 10
52.709
 20
70.8232
 11
52.626
 21
70.8652
  0
LINE
  8
0
 10
52.626
 20
70.8652
 11
52.5479
 21
70.915
  0
LINE
  8
0
 10
52.5479
 20
70.915
 11
52.4736
 21
70.9697
  0
LINE
  8
0
 10
52.4736
 20
70.9697
 11
52.1826
 21
71.2188
  0
LINE
  8
0
 10
52.1826
 20
71.2188
 11
47.457
 21
75.1406
  0
LINE
  8
0
 10
47.457
 20
75.1406
 11
47.3486
 21
75.2393
  0
LINE
  8
0
 10
47.3486
 20
75.2393
 11
47.2773
 21
75.3125
  0
LINE
  8
0
 10
47.2773
 20
75.3125
 11
47.2344
 21
75.3623
  0
LINE
  8
0
 10
47.2344
 20
75.3623
 11
47.1777
 21
75.4385
  0
LINE
  8
0
 10
47.1777
 20
75.4385
 11
47.1445
 21
75.4912
  0
LINE
  8
0
 10
47.1445
 20
75.4912
 11
47.1162
 21
75.5459
  0
LINE
  8
0
 10
47.1162
 20
75.5459
 11
47.082
 21
75.6318
  0
LINE
  8
0
 10
47.082
 20
75.6318
 11
47.0723
 21
75.6621
  0
LINE
  8
0
 10
47.0723
 20
75.6621
 11
47.0576
 21
75.7246
  0
LINE
  8
0
 10
47.0576
 20
75.7246
 11
47.0479
 21
75.791
  0
LINE
  8
0
 10
47.0479
 20
75.791
 11
47.043
 21
75.8604
  0
LINE
  8
0
 10
47.043
 20
75.8604
 11
47.043
 21
75.9336
  0
LINE
  8
0
 10
47.043
 20
75.9336
 11
47.0479
 21
76.0029
  0
LINE
  8
0
 10
47.0479
 20
76.0029
 11
47.0518
 21
76.0361
  0
LINE
  8
0
 10
47.0518
 20
76.0361
 11
47.0645
 21
76.1006
  0
LINE
  8
0
 10
47.0645
 20
76.1006
 11
47.082
 21
76.1611
  0
LINE
  8
0
 10
47.082
 20
76.1611
 11
47.1035
 21
76.2197
  0
LINE
  8
0
 10
47.1035
 20
76.2197
 11
47.1299
 21
76.2754
  0
LINE
  8
0
 10
47.1299
 20
76.2754
 11
47.1445
 21
76.3018
  0
LINE
  8
0
 10
47.1445
 20
76.3018
 11
47.1777
 21
76.3545
  0
LINE
  8
0
 10
47.1777
 20
76.3545
 11
47.2148
 21
76.4062
  0
LINE
  8
0
 10
47.2148
 20
76.4062
 11
47.2773
 21
76.4805
  0
LINE
  8
0
 10
47.2773
 20
76.4805
 11
47.3486
 21
76.5537
  0
LINE
  8
0
 10
47.3486
 20
76.5537
 11
47.4287
 21
76.6279
  0
LINE
  8
0
 10
47.4287
 20
76.6279
 11
47.5771
 21
76.7539
  0
LINE
  8
0
 10
47.5771
 20
76.7539
 11
52.208
 21
80.5957
  0
LINE
  8
0
 10
52.208
 20
80.5957
 11
52.4492
 21
80.8047
  0
LINE
  8
0
 10
52.4492
 20
80.8047
 11
52.5479
 21
80.8789
  0
LINE
  8
0
 10
52.5479
 20
80.8789
 11
52.6533
 21
80.9434
  0
LINE
  8
0
 10
52.6533
 20
80.9434
 11
52.7383
 21
80.9824
  0
LINE
  8
0
 10
52.7383
 20
80.9824
 11
52.7988
 21
81.0029
  0
LINE
  8
0
 10
52.7988
 20
81.0029
 11
52.8623
 21
81.0195
  0
LINE
  8
0
 10
52.8623
 20
81.0195
 11
52.9297
 21
81.0312
  0
LINE
  8
0
 10
52.9297
 20
81.0312
 11
53.002
 21
81.0371
  0
LINE
  8
0
 10
53.002
 20
81.0371
 11
53.0908
 21
81.0361
  0
LINE
  8
0
 10
53.0908
 20
81.0361
 11
53.1406
 21
81.0322
  0
LINE
  8
0
 10
53.1406
 20
81.0322
 11
53.2363
 21
81.0166
  0
LINE
  8
0
 10
53.2363
 20
81.0166
 11
53.2812
 21
81.0049
  0
LINE
  8
0
 10
53.2812
 20
81.0049
 11
53.3252
 21
80.9912
  0
LINE
  8
0
 10
53.3252
 20
80.9912
 11
53.3682
 21
80.9756
  0
LINE
  8
0
 10
53.3682
 20
80.9756
 11
53.4492
 21
80.9375
  0
LINE
  8
0
 10
53.4492
 20
80.9375
 11
53.5234
 21
80.8916
  0
LINE
  8
0
 10
53.5234
 20
80.8916
 11
53.5586
 21
80.8662
  0
LINE
  8
0
 10
53.5586
 20
80.8662
 11
53.5928
 21
80.8389
  0
LINE
  8
0
 10
53.5928
 20
80.8389
 11
53.624
 21
80.8105
  0
LINE
  8
0
 10
53.624
 20
80.8105
 11
53.6543
 21
80.7803
  0
LINE
  8
0
 10
53.6543
 20
80.7803
 11
53.6826
 21
80.749
  0
LINE
  8
0
 10
53.6826
 20
80.749
 11
53.71
 21
80.7158
  0
LINE
  8
0
 10
53.71
 20
80.7158
 11
53.7578
 21
80.6475
  0
LINE
  8
0
 10
53.7578
 20
80.6475
 11
53.7998
 21
80.5752
  0
LINE
  8
0
 10
53.7998
 20
80.5752
 11
53.834
 21
80.499
  0
LINE
  8
0
 10
53.834
 20
80.499
 11
53.8613
 21
80.4209
  0
LINE
  8
0
 10
53.8613
 20
80.4209
 11
53.8721
 21
80.3818
  0
LINE
  8
0
 10
53.8721
 20
80.3818
 11
53.8877
 21
80.3018
  0
LINE
  8
0
 10
53.8877
 20
80.3018
 11
53.8955
 21
80.2207
  0
LINE
  8
0
 10
53.8955
 20
80.2207
 11
53.8965
 21
77.6104
  0
LINE
  8
0
 10
53.8965
 20
77.6104
 11
59.9395
 21
77.6094
  0
LINE
  8
0
 10
59.9395
 20
77.6094
 11
59.9844
 21
77.6055
  0
LINE
  8
0
 10
59.9844
 20
77.6055
 11
60.0283
 21
77.5996
  0
LINE
  8
0
 10
60.0283
 20
77.5996
 11
60.0713
 21
77.5918
  0
LINE
  8
0
 10
60.0713
 20
77.5918
 11
60.1553
 21
77.5693
  0
LINE
  8
0
 10
60.1553
 20
77.5693
 11
60.1963
 21
77.5547
  0
LINE
  8
0
 10
60.1963
 20
77.5547
 11
60.2754
 21
77.5205
  0
LINE
  8
0
 10
60.2754
 20
77.5205
 11
60.3496
 21
77.4785
  0
LINE
  8
0
 10
60.3496
 20
77.4785
 11
60.4189
 21
77.4287
  0
LINE
  8
0
 10
60.4189
 20
77.4287
 11
60.4521
 21
77.4023
  0
LINE
  8
0
 10
60.4521
 20
77.4023
 11
60.5137
 21
77.3438
  0
LINE
  8
0
 10
60.5137
 20
77.3438
 11
60.5693
 21
77.2793
  0
LINE
  8
0
 10
60.5693
 20
77.2793
 11
60.5947
 21
77.2451
  0
LINE
  8
0
 10
60.5947
 20
77.2451
 11
60.6406
 21
77.1729
  0
LINE
  8
0
 10
60.6406
 20
77.1729
 11
60.6787
 21
77.0957
  0
LINE
  8
0
 10
60.6787
 20
77.0957
 11
60.6953
 21
77.0566
  0
LINE
  8
0
 10
60.6953
 20
77.0566
 11
60.71
 21
77.0156
  0
LINE
  8
0
 10
60.71
 20
77.0156
 11
60.7324
 21
76.9307
  0
LINE
  8
0
 10
60.7324
 20
76.9307
 11
60.7402
 21
76.8877
  0
LINE
  8
0
 10
60.7402
 20
76.8877
 11
60.7461
 21
76.8438
  0
LINE
  8
0
 10
60.7461
 20
76.8438
 11
60.751
 21
76.7539
  0
LINE
  8
0
 10
60.751
 20
76.7539
 11
60.751
 21
75.04
  0
LINE
  8
0
 10
60.751
 20
75.04
 11
60.7461
 21
74.9502
  0
LINE
  8
0
 10
60.7461
 20
74.9502
 11
60.7324
 21
74.8623
  0
LINE
  8
0
 10
60.7324
 20
74.8623
 11
60.71
 21
74.7783
  0
LINE
  8
0
 10
60.71
 20
74.7783
 11
60.6953
 21
74.7373
  0
LINE
  8
0
 10
60.6953
 20
74.7373
 11
60.6787
 21
74.6973
  0
LINE
  8
0
 10
60.6787
 20
74.6973
 11
60.6406
 21
74.6211
  0
LINE
  8
0
 10
60.6406
 20
74.6211
 11
60.5947
 21
74.5488
  0
LINE
  8
0
 10
60.5947
 20
74.5488
 11
60.5693
 21
74.5146
  0
LINE
  8
0
 10
60.5693
 20
74.5146
 11
60.542
 21
74.4814
  0
LINE
  8
0
 10
60.542
 20
74.4814
 11
60.5137
 21
74.4502
  0
LINE
  8
0
 10
60.5137
 20
74.4502
 11
60.4834
 21
74.4199
  0
LINE
  8
0
 10
60.4834
 20
74.4199
 11
60.4521
 21
74.3916
  0
LINE
  8
0
 10
60.4521
 20
74.3916
 11
60.4189
 21
74.3643
  0
LINE
  8
0
 10
60.4189
 20
74.3643
 11
60.3848
 21
74.3389
  0
LINE
  8
0
 10
60.3848
 20
74.3389
 11
60.3496
 21
74.3154
  0
LINE
  8
0
 10
60.3496
 20
74.3154
 11
60.2754
 21
74.2734
  0
LINE
  8
0
 10
60.2754
 20
74.2734
 11
60.2363
 21
74.2549
  0
LINE
  8
0
 10
60.2363
 20
74.2549
 11
60.1963
 21
74.2383
  0
LINE
  8
0
 10
60.1963
 20
74.2383
 11
60.1143
 21
74.2119
  0
LINE
  8
0
 10
60.1143
 20
74.2119
 11
60.0283
 21
74.1934
  0
LINE
  8
0
 10
60.0283
 20
74.1934
 11
59.9844
 21
74.1875
  0
LINE
  8
0
 10
59.9844
 20
74.1875
 11
59.8936
 21
74.1836
  0
LINE
  8
0
 10
59.8936
 20
74.1836
 11
53.8965
 21
74.1836
  0
LINE
  8
0
 10
53.8965
 20
74.1836
 11
53.8955
 21
71.5723
  0
LINE
  8
0
 10
53.8955
 20
71.5723
 11
53.8877
 21
71.4922
  0
LINE
  8
0
 10
53.8877
 20
71.4922
 11
53.8721
 21
71.4121
  0
LINE
  8
0
 10
53.8721
 20
71.4121
 11
53.8613
 21
71.3721
  0
LINE
  8
0
 10
53.8613
 20
71.3721
 11
53.834
 21
71.2939
  0
LINE
  8
0
 10
53.834
 20
71.2939
 11
53.7998
 21
71.2188
  0
LINE
  8
0
 10
53.7998
 20
71.2188
 11
53.7578
 21
71.1465
  0
LINE
  8
0
 10
53.7578
 20
71.1465
 11
53.71
 21
71.0771
  0
LINE
  8
0
 10
53.71
 20
71.0771
 11
53.6543
 21
71.0137
  0
LINE
  8
0
 10
53.6543
 20
71.0137
 11
53.624
 21
70.9834
  0
LINE
  8
0
 10
53.624
 20
70.9834
 11
53.5928
 21
70.9551
  0
LINE
  8
0
 10
53.5928
 20
70.9551
 11
53.5586
 21
70.9277
  0
LINE
  8
0
 10
53.5586
 20
70.9277
 11
53.4873
 21
70.8779
  0
LINE
  8
0
 10
53.4873
 20
70.8779
 11
53.4092
 21
70.8359
  0
LINE
  8
0
 10
53.4092
 20
70.8359
 11
53.3682
 21
70.8184
  0
LINE
  8
0
 10
53.3682
 20
70.8184
 11
53.2812
 21
70.7881
  0
LINE
  8
0
 10
53.2812
 20
70.7881
 11
53.1885
 21
70.7676
  0
LINE
  8
0
 10
53.1885
 20
70.7676
 11
53.1406
 21
70.7617
  0
LINE
  8
0
 10
53.1406
 20
70.7617
 11
53.0908
 21
70.7578
  0
LINE
  8
0
 10
53.0908
 20
70.7578
 11
53.04
 21
70.7559
  0
LINE
  8
0
 10
53.04
 20
70.7559
 11
52.9658
 21
70.7588
  0
LINE
  8
0
 10
41.7393
 20
85.7402
 11
22
 21
85.7402
  0
LINE
  8
0
 10
22
 20
85.7402
 11
22
 21
66
  0
LINE
  8
0
 10
22
 20
66
 11
41.7393
 21
66
  0
LINE
  8
0
 10
41.7393
 20
66
 11
41.7393
 21
85.7402
  0
LINE
  8
0
 10
30.9658
 20
70.7588
 11
30.8955
 21
70.7676
  0
LINE
  8
0
 10
30.8955
 20
70.7676
 11
30.8301
 21
70.7812
  0
LINE
  8
0
 10
30.8301
 20
70.7812
 11
30.7988
 21
70.79
  0
LINE
  8
0
 10
30.7988
 20
70.79
 11
30.709
 21
70.8232
  0
LINE
  8
0
 10
30.709
 20
70.8232
 11
30.626
 21
70.8652
  0
LINE
  8
0
 10
30.626
 20
70.8652
 11
30.5479
 21
70.915
  0
LINE
  8
0
 10
30.5479
 20
70.915
 11
30.4736
 21
70.9697
  0
LINE
  8
0
 10
30.4736
 20
70.9697
 11
30.1826
 21
71.2188
  0
LINE
  8
0
 10
30.1826
 20
71.2188
 11
25.457
 21
75.1406
  0
LINE
  8
0
 10
25.457
 20
75.1406
 11
25.3486
 21
75.2393
  0
LINE
  8
0
 10
25.3486
 20
75.2393
 11
25.2773
 21
75.3125
  0
LINE
  8
0
 10
25.2773
 20
75.3125
 11
25.2344
 21
75.3623
  0
LINE
  8
0
 10
25.2344
 20
75.3623
 11
25.1777
 21
75.4385
  0
LINE
  8
0
 10
25.1777
 20
75.4385
 11
25.1445
 21
75.4912
  0
LINE
  8
0
 10
25.1445
 20
75.4912
 11
25.1162
 21
75.5459
  0
LINE
  8
0
 10
25.1162
 20
75.5459
 11
25.082
 21
75.6318
  0
LINE
  8
0
 10
25.082
 20
75.6318
 11
25.0723
 21
75.6621
  0
LINE
  8
0
 10
25.0723
 20
75.6621
 11
25.0576
 21
75.7246
  0
LINE
  8
0
 10
25.0576
 20
75.7246
 11
25.0479
 21
75.791
  0
LINE
  8
0
 10
25.0479
 20
75.791
 11
25.043
 21
75.8604
  0
LINE
  8
0
 10
25.043
 20
75.8604
 11
25.043
 21
75.9336
  0
LINE
  8
0
 10
25.043
 20
75.9336
 11
25.0479
 21
76.0029
  0
LINE
  8
0
 10
25.0479
 20
76.0029
 11
25.0518
 21
76.0361
  0
LINE
  8
0
 10
25.0518
 20
76.0361
 11
25.0645
 21
76.1006
  0
LINE
  8
0
 10
25.0645
 20
76.1006
 11
25.082
 21
76.1611
  0
LINE
  8
0
 10
25.082
 20
76.1611
 11
25.1035
 21
76.2197
  0
LINE
  8
0
 10
25.1035
 20
76.2197
 11
25.1299
 21
76.2754
  0
LINE
  8
0
 10
25.1299
 20
76.2754
 11
25.1445
 21
76.3018
  0
LINE
  8
0
 10
25.1445
 20
76.3018
 11
25.1777
 21
76.3545
  0
LINE
  8
0
 10
25.1777
 20
76.3545
 11
25.2148
 21
76.4062
  0
LINE
  8
0
 10
25.2148
 20
76.4062
 11
25.2773
 21
76.4805
  0
LINE
  8
0
 10
25.2773
 20
76.4805
 11
25.3486
 21
76.5537
  0
LINE
  8
0
 10
25.3486
 20
76.5537
 11
25.4287
 21
76.6279
  0
LINE
  8
0
 10
25.4287
 20
76.6279
 11
25.5771
 21
76.7539
  0
LINE
  8
0
 10
25.5771
 20
76.7539
 11
30.208
 21
80.5957
  0
LINE
  8
0
 10
30.208
 20
80.5957
 11
30.4492
 21
80.8047
  0
LINE
  8
0
 10
30.4492
 20
80.8047
 11
30.5479
 21
80.8789
  0
LINE
  8
0
 10
30.5479
 20
80.8789
 11
30.6533
 21
80.9434
  0
LINE
  8
0
 10
30.6533
 20
80.9434
 11
30.7383
 21
80.9824
  0
LINE
  8
0
 10
30.7383
 20
80.9824
 11
30.7988
 21
81.0029
  0
LINE
  8
0
 10
30.7988
 20
81.0029
 11
30.8623
 21
81.0195
  0
LINE
  8
0
 10
30.8623
 20
81.0195
 11
30.9297
 21
81.0312
  0
LINE
  8
0
 10
30.9297
 20
81.0312
 11
31.002
 21
81.0371
  0
LINE
  8
0
 10
31.002
 20
81.0371
 11
31.0908
 21
81.0361
  0
LINE
  8
0
 10
31.0908
 20
81.0361
 11
31.1406
 21
81.0322
  0
LINE
  8
0
 10
31.1406
 20
81.0322
 11
31.2363
 21
81.0166
  0
LINE
  8
0
 10
31.2363
 20
81.0166
 11
31.2812
 21
81.0049
  0
LINE
  8
0
 10
31.2812
 20
81.0049
 11
31.3252
 21
80.9912
  0
LINE
  8
0
 10
31.3252
 20
80.9912
 11
31.3682
 21
80.9756
  0
LINE
  8
0
 10
31.3682
 20
80.9756
 11
31.4492
 21
80.9375
  0
LINE
  8
0
 10
31.4492
 20
80.9375
 11
31.5234
 21
80.8916
  0
LINE
  8
0
 10
31.5234
 20
80.8916
 11
31.5586
 21
80.8662
  0
LINE
  8
0
 10
31.5586
 20
80.8662
 11
31.5928
 21
80.8389
  0
LINE
  8
0
 10
31.5928
 20
80.8389
 11
31.624
 21
80.8105
  0
LINE
  8
0
 10
31.624
 20
80.8105
 11
31.6543
 21
80.7803
  0
LINE
  8
0
 10
31.6543
 20
80.7803
 11
31.6826
 21
80.749
  0
LINE
  8
0
 10
31.6826
 20
80.749
 11
31.71
 21
80.7158
  0
LINE
  8
0
 10
31.71
 20
80.7158
 11
31.7578
 21
80.6475
  0
LINE
  8
0
 10
31.7578
 20
80.6475
 11
31.7998
 21
80.5752
  0
LINE
  8
0
 10
31.7998
 20
80.5752
 11
31.834
 21
80.499
  0
LINE
  8
0
 10
31.834
 20
80.499
 11
31.8613
 21
80.4209
  0
LINE
  8
0
 10
31.8613
 20
80.4209
 11
31.8721
 21
80.3818
  0
LINE
  8
0
 10
31.8721
 20
80.3818
 11
31.8877
 21
80.3018
  0
LINE
  8
0
 10
31.8877
 20
80.3018
 11
31.8955
 21
80.2207
  0
LINE
  8
0
 10
31.8955
 20
80.2207
 11
31.8965
 21
77.6104
  0
LINE
  8
0
 10
31.8965
 20
77.6104
 11
37.9395
 21
77.6094
  0
LINE
  8
0
 10
37.9395
 20
77.6094
 11
37.9844
 21
77.6055
  0
LINE
  8
0
 10
37.9844
 20
77.6055
 11
38.0283
 21
77.5996
  0
LINE
  8
0
 10
38.0283
 20
77.5996
 11
38.0713
 21
77.5918
  0
LINE
  8
0
 10
38.0713
 20
77.5918
 11
38.1553
 21
77.5693
  0
LINE
  8
0
 10
38.1553
 20
77.5693
 11
38.1963
 21
77.5547
  0
LINE
  8
0
 10
38.1963
 20
77.5547
 11
38.2754
 21
77.5205
  0
LINE
  8
0
 10
38.2754
 20
77.5205
 11
38.3496
 21
77.4785
  0
LINE
  8
0
 10
38.3496
 20
77.4785
 11
38.4189
 21
77.4287
  0
LINE
  8
0
 10
38.4189
 20
77.4287
 11
38.4521
 21
77.4023
  0
LINE
  8
0
 10
38.4521
 20
77.4023
 11
38.5137
 21
77.3438
  0
LINE
  8
0
 10
38.5137
 20
77.3438
 11
38.5693
 21
77.2793
  0
LINE
  8
0
 10
38.5693
 20
77.2793
 11
38.5947
 21
77.2451
  0
LINE
  8
0
 10
38.5947
 20
77.2451
 11
38.6406
 21
77.1729
  0
LINE
  8
0
 10
38.6406
 20
77.1729
 11
38.6787
 21
77.0957
  0
LINE
  8
0
 10
38.6787
 20
77.0957
 11
38.6953
 21
77.0566
  0
LINE
  8
0
 10
38.6953
 20
77.0566
 11
38.71
 21
77.0156
  0
LINE
  8
0
 10
38.71
 20
77.0156
 11
38.7324
 21
76.9307
  0
LINE
  8
0
 10
38.7324
 20
76.9307
 11
38.7402
 21
76.8877
  0
LINE
  8
0
 10
38.7402
 20
76.8877
 11
38.7461
 21
76.8438
  0
LINE
  8
0
 10
38.7461
 20
76.8438
 11
38.751
 21
76.7539
  0
LINE
  8
0
 10
38.751
 20
76.7539
 11
38.751
 21
75.04
  0
LINE
  8
0
 10
38.751
 20
75.04
 11
38.7461
 21
74.9502
  0
LINE
  8
0
 10
38.7461
 20
74.9502
 11
38.7324
 21
74.8623
  0
LINE
  8
0
 10
38.7324
 20
74.8623
 11
38.71
 21
74.7783
  0
LINE
  8
0
 10
38.71
 20
74.7783
 11
38.6953
 21
74.7373
  0
LINE
  8
0
 10
38.6953
 20
74.7373
 11
38.6787
 21
74.6973
  0
LINE
  8
0
 10
38.6787
 20
74.6973
 11
38.6406
 21
74.6211
  0
LINE
  8
0
 10
38.6406
 20
74.6211
 11
38.5947
 21
74.5488
  0
LINE
  8
0
 10
38.5947
 20
74.5488
 11
38.5693
 21
74.5146
  0
LINE
  8
0
 10
38.5693
 20
74.5146
 11
38.542
 21
74.4814
  0
LINE
  8
0
 10
38.542
 20
74.4814
 11
38.5137
 21
74.4502
  0
LINE
  8
0
 10
38.5137
 20
74.4502
 11
38.4834
 21
74.4199
  0
LINE
  8
0
 10
38.4834
 20
74.4199
 11
38.4521
 21
74.3916
  0
LINE
  8
0
 10
38.4521
 20
74.3916
 11
38.4189
 21
74.3643
  0
LINE
  8
0
 10
38.4189
 20
74.3643
 11
38.3848
 21
74.3389
  0
LINE
  8
0
 10
38.3848
 20
74.3389
 11
38.3496
 21
74.3154
  0
LINE
  8
0
 10
38.3496
 20
74.3154
 11
38.2754
 21
74.2734
  0
LINE
  8
0
 10
38.2754
 20
74.2734
 11
38.2363
 21
74.2549
  0
LINE
  8
0
 10
38.2363
 20
74.2549
 11
38.1963
 21
74.2383
  0
LINE
  8
0
 10
38.1963
 20
74.2383
 11
38.1143
 21
74.2119
  0
LINE
  8
0
 10
38.1143
 20
74.2119
 11
38.0283
 21
74.1934
  0
LINE
  8
0
 10
38.0283
 20
74.1934
 11
37.9844
 21
74.1875
  0
LINE
  8
0
 10
37.9844
 20
74.1875
 11
37.8936
 21
74.1836
  0
LINE
  8
0
 10
37.8936
 20
74.1836
 11
31.8965
 21
74.1836
  0
LINE
  8
0
 10
31.8965
 20
74.1836
 11
31.8955
 21
71.5723
  0
LINE
  8
0
 10
31.8955
 20
71.5723
 11
31.8877
 21
71.4922
  0
LINE
  8
0
 10
31.8877
 20
71.4922
 11
31.8721
 21
71.4121
  0
LINE
  8
0
 10
31.8721
 20
71.4121
 11
31.8613
 21
71.3721
  0
LINE
  8
0
 10
31.8613
 20
71.3721
 11
31.834
 21
71.2939
  0
LINE
  8
0
 10
31.834
 20
71.2939
 11
31.7998
 21
71.2188
  0
LINE
  8
0
 10
31.7998
 20
71.2188
 11
31.7578
 21
71.1465
  0
LINE
  8
0
 10
31.7578
 20
71.1465
 11
31.71
 21
71.0771
  0
LINE
  8
0
 10
31.71
 20
71.0771
 11
31.6543
 21
71.0137
  0
LINE
  8
0
 10
31.6543
 20
71.0137
 11
31.624
 21
70.9834
  0
LINE
  8
0
 10
31.624
 20
70.9834
 11
31.5928
 21
70.9551
  0
LINE
  8
0
 10
31.5928
 20
70.9551
 11
31.5586
 21
70.9277
  0
LINE
  8
0
 10
31.5586
 20
70.9277
 11
31.4873
 21
70.8779
  0
LINE
  8
0
 10
31.4873
 20
70.8779
 11
31.4092
 21
70.8359
  0
LINE
  8
0
 10
31.4092
 20
70.8359
 11
31.3682
 21
70.8184
  0
LINE
  8
0
 10
31.3682
 20
70.8184
 11
31.2812
 21
70.7881
  0
LINE
  8
0
 10
31.2812
 20
70.7881
 11
31.1885
 21
70.7676
  0
LINE
  8
0
 10
31.1885
 20
70.7676
 11
31.1406
 21
70.7617
  0
LINE
  8
0
 10
31.1406
 20
70.7617
 11
31.0908
 21
70.7578
  0
LINE
  8
0
 10
31.0908
 20
70.7578
 11
31.04
 21
70.7559
  0
LINE
  8
0
 10
31.04
 20
70.7559
 11
30.9658
 21
70.7588
  0
LINE
  8
0
 10
19.7393
 20
85.7402
 11
0
 21
85.7402
  0
LINE
  8
0
 10
0
 20
85.7402
 11
0
 21
66
  0
LINE
  8
0
 10
0
 20
66
 11
19.7393
 21
66
  0
LINE
  8
0
 10
19.7393
 20
66
 11
19.7393
 21
85.7402
  0
LINE
  8
0
 10
8.96582
 20
70.7588
 11
8.89551
 21
70.7676
  0
LINE
  8
0
 10
8.89551
 20
70.7676
 11
8.83008
 21
70.7812
  0
LINE
  8
0
 10
8.83008
 20
70.7812
 11
8.79883
 21
70.79
  0
LINE
  8
0
 10
8.79883
 20
70.79
 11
8.70898
 21
70.8232
  0
LINE
  8
0
 10
8.70898
 20
70.8232
 11
8.62598
 21
70.8652
  0
LINE
  8
0
 10
8.62598
 20
70.8652
 11
8.54785
 21
70.915
  0
LINE
  8
0
 10
8.54785
 20
70.915
 11
8.47363
 21
70.9697
  0
LINE
  8
0
 10
8.47363
 20
70.9697
 11
8.18262
 21
71.2188
  0
LINE
  8
0
 10
8.18262
 20
71.2188
 11
3.45703
 21
75.1406
  0
LINE
  8
0
 10
3.45703
 20
75.1406
 11
3.34863
 21
75.2393
  0
LINE
  8
0
 10
3.34863
 20
75.2393
 11
3.27734
 21
75.3125
  0
LINE
  8
0
 10
3.27734
 20
75.3125
 11
3.23438
 21
75.3623
  0
LINE
  8
0
 10
3.23438
 20
75.3623
 11
3.17773
 21
75.4385
  0
LINE
  8
0
 10
3.17773
 20
75.4385
 11
3.14453
 21
75.4912
  0
LINE
  8
0
 10
3.14453
 20
75.4912
 11
3.11621
 21
75.5459
  0
LINE
  8
0
 10
3.11621
 20
75.5459
 11
3.08203
 21
75.6318
  0
LINE
  8
0
 10
3.08203
 20
75.6318
 11
3.07227
 21
75.6621
  0
LINE
  8
0
 10
3.07227
 20
75.6621
 11
3.05762
 21
75.7246
  0
LINE
  8
0
 10
3.05762
 20
75.7246
 11
3.04785
 21
75.791
  0
LINE
  8
0
 10
3.04785
 20
75.791
 11
3.04297
 21
75.8604
  0
LINE
  8
0
 10
3.04297
 20
75.8604
 11
3.04297
 21
75.9336
  0
LINE
  8
0
 10
3.04297
 20
75.9336
 11
3.04785
 21
76.0029
  0
LINE
  8
0
 10
3.04785
 20
76.0029
 11
3.05176
 21
76.0361
  0
LINE
  8
0
 10
3.05176
 20
76.0361
 11
3.06445
 21
76.1006
  0
LINE
  8
0
 10
3.06445
 20
76.1006
 11
3.08203
 21
76.1611
  0
LINE
  8
0
 10
3.08203
 20
76.1611
 11
3.10352
 21
76.2197
  0
LINE
  8
0
 10
3.10352
 20
76.2197
 11
3.12988
 21
76.2754
  0
LINE
  8
0
 10
3.12988
 20
76.2754
 11
3.14453
 21
76.3018
  0
LINE
  8
0
 10
3.14453
 20
76.3018
 11
3.17773
 21
76.3545
  0
LINE
  8
0
 10
3.17773
 20
76.3545
 11
3.21484
 21
76.4062
  0
LINE
  8
0
 10
3.21484
 20
76.4062
 11
3.27734
 21
76.4805
  0
LINE
  8
0
 10
3.27734
 20
76.4805
 11
3.34863
 21
76.5537
  0
LINE
  8
0
 10
3.34863
 20
76.5537
 11
3.42871
 21
76.6279
  0
LINE
  8
0
 10
3.42871
 20
76.6279
 11
3.57715
 21
76.7539
  0
LINE
  8
0
 10
3.57715
 20
76.7539
 11
8.20801
 21
80.5957
  0
LINE
  8
0
 10
8.20801
 20
80.5957
 11
8.44922
 21
80.8047
  0
LINE
  8
0
 10
8.44922
 20
80.8047
 11
8.54785
 21
80.8789
  0
LINE
  8
0
 10
8.54785
 20
80.8789
 11
8.65332
 21
80.9434
  0
LINE
  8
0
 10
8.65332
 20
80.9434
 11
8.73828
 21
80.9824
  0
LINE
  8
0
 10
8.73828
 20
80.9824
 11
8.79883
 21
81.0029
  0
LINE
  8
0
 10
8.79883
 20
81.0029
 11
8.8623
 21
81.0195
  0
LINE
  8
0
 10
8.8623
 20
81.0195
 11
8.92969
 21
81.0312
  0
LINE
  8
0
 10
8.92969
 20
81.0312
 11
9.00195
 21
81.0371
  0
LINE
  8
0
 10
9.00195
 20
81.0371
 11
9.09082
 21
81.0361
  0
LINE
  8
0
 10
9.09082
 20
81.0361
 11
9.14062
 21
81.0322
  0
LINE
  8
0
 10
9.14062
 20
81.0322
 11
9.23633
 21
81.0166
  0
LINE
  8
0
 10
9.23633
 20
81.0166
 11
9.28125
 21
81.0049
  0
LINE
  8
0
 10
9.28125
 20
81.0049
 11
9.3252
 21
80.9912
  0
LINE
  8
0
 10
9.3252
 20
80.9912
 11
9.36816
 21
80.9756
  0
LINE
  8
0
 10
9.36816
 20
80.9756
 11
9.44922
 21
80.9375
  0
LINE
  8
0
 10
9.44922
 20
80.9375
 11
9.52344
 21
80.8916
  0
LINE
  8
0
 10
9.52344
 20
80.8916
 11
9.55859
 21
80.8662
  0
LINE
  8
0
 10
9.55859
 20
80.8662
 11
9.59277
 21
80.8389
  0
LINE
  8
0
 10
9.59277
 20
80.8389
 11
9.62402
 21
80.8105
  0
LINE
  8
0
 10
9.62402
 20
80.8105
 11
9.6543
 21
80.7803
  0
LINE
  8
0
 10
9.6543
 20
80.7803
 11
9.68262
 21
80.749
  0
LINE
  8
0
 10
9.68262
 20
80.749
 11
9.70996
 21
80.7158
  0
LINE
  8
0
 10
9.70996
 20
80.7158
 11
9.75781
 21
80.6475
  0
LINE
  8
0
 10
9.75781
 20
80.6475
 11
9.7998
 21
80.5752
  0
LINE
  8
0
 10
9.7998
 20
80.5752
 11
9.83398
 21
80.499
  0
LINE
  8
0
 10
9.83398
 20
80.499
 11
9.86133
 21
80.4209
  0
LINE
  8
0
 10
9.86133
 20
80.4209
 11
9.87207
 21
80.3818
  0
LINE
  8
0
 10
9.87207
 20
80.3818
 11
9.8877
 21
80.3018
  0
LINE
  8
0
 10
9.8877
 20
80.3018
 11
9.89551
 21
80.2207
  0
LINE
  8
0
 10
9.89551
 20
80.2207
 11
9.89648
 21
77.6104
  0
LINE
  8
0
 10
9.89648
 20
77.6104
 11
15.9395
 21
77.6094
  0
LINE
  8
0
 10
15.9395
 20
77.6094
 11
15.9844
 21
77.6055
  0
LINE
  8
0
 10
15.9844
 20
77.6055
 11
16.0283
 21
77.5996
  0
LINE
  8
0
 10
16.0283
 20
77.5996
 11
16.0713
 21
77.5918
  0
LINE
  8
0
 10
16.0713
 20
77.5918
 11
16.1553
 21
77.5693
  0
LINE
  8
0
 10
16.1553
 20
77.5693
 11
16.1963
 21
77.5547
  0
LINE
  8
0
 10
16.1963
 20
77.5547
 11
16.2754
 21
77.5205
  0
LINE
  8
0
 10
16.2754
 20
77.5205
 11
16.3496
 21
77.4785
  0
LINE
  8
0
 10
16.3496
 20
77.4785
 11
16.4189
 21
77.4287
  0
LINE
  8
0
 10
16.4189
 20
77.4287
 11
16.4521
 21
77.4023
  0
LINE
  8
0
 10
16.4521
 20
77.4023
 11
16.5137
 21
77.3438
  0
LINE
  8
0
 10
16.5137
 20
77.3438
 11
16.5693
 21
77.2793
  0
LINE
  8
0
 10
16.5693
 20
77.2793
 11
16.5947
 21
77.2451
  0
LINE
  8
0
 10
16.5947
 20
77.2451
 11
16.6406
 21
77.1729
  0
LINE
  8
0
 10
16.6406
 20
77.1729
 11
16.6787
 21
77.0957
  0
LINE
  8
0
 10
16.6787
 20
77.0957
 11
16.6953
 21
77.0566
  0
LINE
  8
0
 10
16.6953
 20
77.0566
 11
16.71
 21
77.0156
  0
LINE
  8
0
 10
16.71
 20
77.0156
 11
16.7324
 21
76.9307
  0
LINE
  8
0
 10
16.7324
 20
76.9307
 11
16.7402
 21
76.8877
  0
LINE
  8
0
 10
16.7402
 20
76.8877
 11
16.7461
 21
76.8438
  0
LINE
  8
0
 10
16.7461
 20
76.8438
 11
16.751
 21
76.7539
  0
LINE
  8
0
 10
16.751
 20
76.7539
 11
16.751
 21
75.04
  0
LINE
  8
0
 10
16.751
 20
75.04
 11
16.7461
 21
74.9502
  0
LINE
  8
0
 10
16.7461
 20
74.9502
 11
16.7324
 21
74.8623
  0
LINE
  8
0
 10
16.7324
 20
74.8623
 11
16.71
 21
74.7783
  0
LINE
  8
0
 10
16.71
 20
74.7783
 11
16.6953
 21
74.7373
  0
LINE
  8
0
 10
16.6953
 20
74.7373
 11
16.6787
 21
74.6973
  0
LINE
  8
0
 10
16.6787
 20
74.6973
 11
16.6406
 21
74.6211
  0
LINE
  8
0
 10
16.6406
 20
74.6211
 11
16.5947
 21
74.5488
  0
LINE
  8
0
 10
16.5947
 20
74.5488
 11
16.5693
 21
74.5146
  0
LINE
  8
0
 10
16.5693
 20
74.5146
 11
16.542
 21
74.4814
  0
LINE
  8
0
 10
16.542
 20
74.4814
 11
16.5137
 21
74.4502
  0
LINE
  8
0
 10
16.5137
 20
74.4502
 11
16.4834
 21
74.4199
  0
LINE
  8
0
 10
16.4834
 20
74.4199
 11
16.4521
 21
74.3916
  0
LINE
  8
0
 10
16.4521
 20
74.3916
 11
16.4189
 21
74.3643
  0
LINE
  8
0
 10
16.4189
 20
74.3643
 11
16.3848
 21
74.3389
  0
LINE
  8
0
 10
16.3848
 20
74.3389
 11
16.3496
 21
74.3154
  0
LINE
  8
0
 10
16.3496
 20
74.3154
 11
16.2754
 21
74.2734
  0
LINE
  8
0
 10
16.2754
 20
74.2734
 11
16.2363
 21
74.2549
  0
LINE
  8
0
 10
16.2363
 20
74.2549
 11
16.1963
 21
74.2383
  0
LINE
  8
0
 10
16.1963
 20
74.2383
 11
16.1143
 21
74.2119
  0
LINE
  8
0
 10
16.1143
 20
74.2119
 11
16.0283
 21
74.1934
  0
LINE
  8
0
 10
16.0283
 20
74.1934
 11
15.9844
 21
74.1875
  0
LINE
  8
0
 10
15.9844
 20
74.1875
 11
15.8936
 21
74.1836
  0
LINE
  8
0
 10
15.8936
 20
74.1836
 11
9.89648
 21
74.1836
  0
LINE
  8
0
 10
9.89648
 20
74.1836
 11
9.89551
 21
71.5723
  0
LINE
  8
0
 10
9.89551
 20
71.5723
 11
9.8877
 21
71.4922
  0
LINE
  8
0
 10
9.8877
 20
71.4922
 11
9.87207
 21
71.4121
  0
LINE
  8
0
 10
9.87207
 20
71.4121
 11
9.86133
 21
71.3721
  0
LINE
  8
0
 10
9.86133
 20
71.3721
 11
9.83398
 21
71.2939
  0
LINE
  8
0
 10
9.83398
 20
71.2939
 11
9.7998
 21
71.2188
  0
LINE
  8
0
 10
9.7998
 20
71.2188
 11
9.75781
 21
71.1465
  0
LINE
  8
0
 10
9.75781
 20
71.1465
 11
9.70996
 21
71.0771
  0
LINE
  8
0
 10
9.70996
 20
71.0771
 11
9.6543
 21
71.0137
  0
LINE
  8
0
 10
9.6543
 20
71.0137
 11
9.62402
 21
70.9834
  0
LINE
  8
0
 10
9.62402
 20
70.9834
 11
9.59277
 21
70.9551
  0
LINE
  8
0
 10
9.59277
 20
70.9551
 11
9.55859
 21
70.9277
  0
LINE
  8
0
 10
9.55859
 20
70.9277
 11
9.4873
 21
70.8779
  0
LINE
  8
0
 10
9.4873
 20
70.8779
 11
9.40918
 21
70.8359
  0
LINE
  8
0
 10
9.40918
 20
70.8359
 11
9.36816
 21
70.8184
  0
LINE
  8
0
 10
9.36816
 20
70.8184
 11
9.28125
 21
70.7881
  0
LINE
  8
0
 10
9.28125
 20
70.7881
 11
9.18848
 21
70.7676
  0
LINE
  8
0
 10
9.18848
 20
70.7676
 11
9.14062
 21
70.7617
  0
LINE
  8
0
 10
9.14062
 20
70.7617
 11
9.09082
 21
70.7578
  0
LINE
  8
0
 10
9.09082
 20
70.7578
 11
9.04004
 21
70.7559
  0
LINE
  8
0
 10
9.04004
 20
70.7559
 11
8.96582
 21
70.7588
  0
LINE
  8
0
 10
41.7402
 20
63.7402
 11
22
 21
63.7402
  0
LINE
  8
0
 10
22
 20
63.7402
 11
22
 21
44
  0
LINE
  8
0
 10
22
 20
44
 11
41.7402
 21
44
  0
LINE
  8
0
 10
41.7402
 20
44
 11
41.7402
 21
63.7402
  0
LINE
  8
0
 10
27.1699
 20
50.1582
 11
26.415
 21
51.0176
  0
LINE
  8
0
 10
26.415
 20
51.0176
 11
26.2021
 21
51.2656
  0
LINE
  8
0
 10
26.2021
 20
51.2656
 11
26.1445
 21
51.335
  0
LINE
  8
0
 10
26.1445
 20
51.335
 11
26.0381
 21
51.4736
  0
LINE
  8
0
 10
26.0381
 20
51.4736
 11
25.9883
 21
51.5439
  0
LINE
  8
0
 10
25.9883
 20
51.5439
 11
25.9414
 21
51.6143
  0
LINE
  8
0
 10
25.9414
 20
51.6143
 11
25.8535
 21
51.7559
  0
LINE
  8
0
 10
25.8535
 20
51.7559
 11
25.7744
 21
51.8955
  0
LINE
  8
0
 10
25.7744
 20
51.8955
 11
25.7051
 21
52.0352
  0
LINE
  8
0
 10
25.7051
 20
52.0352
 11
25.6729
 21
52.1035
  0
LINE
  8
0
 10
25.6729
 20
52.1035
 11
25.6162
 21
52.2393
  0
LINE
  8
0
 10
25.6162
 20
52.2393
 11
25.5674
 21
52.3711
  0
LINE
  8
0
 10
25.5674
 20
52.3711
 11
25.5264
 21
52.499
  0
LINE
  8
0
 10
25.5264
 20
52.499
 11
25.4932
 21
52.6211
  0
LINE
  8
0
 10
25.4932
 20
52.6211
 11
25.457
 21
52.7939
  0
LINE
  8
0
 10
25.457
 20
52.7939
 11
25.4424
 21
52.9014
  0
LINE
  8
0
 10
25.4424
 20
52.9014
 11
25.4346
 21
53
  0
LINE
  8
0
 10
25.4346
 20
53
 11
25.4346
 21
53.0898
  0
LINE
  8
0
 10
25.4346
 20
53.0898
 11
25.4395
 21
53.1699
  0
LINE
  8
0
 10
25.4395
 20
53.1699
 11
25.4463
 21
53.208
  0
LINE
  8
0
 10
25.4463
 20
53.208
 11
25.4551
 21
53.2451
  0
LINE
  8
0
 10
25.4551
 20
53.2451
 11
25.4668
 21
53.2822
  0
LINE
  8
0
 10
25.4668
 20
53.2822
 11
25.4814
 21
53.3184
  0
LINE
  8
0
 10
25.4814
 20
53.3184
 11
25.499
 21
53.3545
  0
LINE
  8
0
 10
25.499
 20
53.3545
 11
25.5186
 21
53.3896
  0
LINE
  8
0
 10
25.5186
 20
53.3896
 11
25.541
 21
53.4248
  0
LINE
  8
0
 10
25.541
 20
53.4248
 11
25.5654
 21
53.459
  0
LINE
  8
0
 10
25.5654
 20
53.459
 11
25.5918
 21
53.4922
  0
LINE
  8
0
 10
25.5918
 20
53.4922
 11
25.6514
 21
53.5576
  0
LINE
  8
0
 10
25.6514
 20
53.5576
 11
25.7168
 21
53.6182
  0
LINE
  8
0
 10
25.7168
 20
53.6182
 11
25.7881
 21
53.6758
  0
LINE
  8
0
 10
25.7881
 20
53.6758
 11
25.8633
 21
53.7295
  0
LINE
  8
0
 10
25.8633
 20
53.7295
 11
25.9434
 21
53.7783
  0
LINE
  8
0
 10
25.9434
 20
53.7783
 11
26.0254
 21
53.8223
  0
LINE
  8
0
 10
26.0254
 20
53.8223
 11
26.1084
 21
53.8604
  0
LINE
  8
0
 10
26.1084
 20
53.8604
 11
26.1914
 21
53.8926
  0
LINE
  8
0
 10
26.1914
 20
53.8926
 11
26.2744
 21
53.9189
  0
LINE
  8
0
 10
26.2744
 20
53.9189
 11
26.3145
 21
53.9297
  0
LINE
  8
0
 10
26.3145
 20
53.9297
 11
26.3945
 21
53.9453
  0
LINE
  8
0
 10
26.3945
 20
53.9453
 11
26.4326
 21
53.9512
  0
LINE
  8
0
 10
26.4326
 20
53.9512
 11
26.4746
 21
53.9541
  0
LINE
  8
0
 10
26.4746
 20
53.9541
 11
26.5781
 21
53.9482
  0
LINE
  8
0
 10
26.5781
 20
53.9482
 11
26.708
 21
53.9287
  0
LINE
  8
0
 10
26.708
 20
53.9287
 11
26.8584
 21
53.8975
  0
LINE
  8
0
 10
26.8584
 20
53.8975
 11
27.0264
 21
53.8555
  0
LINE
  8
0
 10
27.0264
 20
53.8555
 11
27.3066
 21
53.7764
  0
LINE
  8
0
 10
27.3066
 20
53.7764
 11
27.5059
 21
53.7148
  0
LINE
  8
0
 10
27.5059
 20
53.7148
 11
27.8154
 21
53.6113
  0
LINE
  8
0
 10
27.8154
 20
53.6113
 11
28.0234
 21
53.5381
  0
LINE
  8
0
 10
28.0234
 20
53.5381
 11
28.4307
 21
53.3857
  0
LINE
  8
0
 10
28.4307
 20
53.3857
 11
28.623
 21
53.3105
  0
LINE
  8
0
 10
28.623
 20
53.3105
 11
28.8018
 21
53.2373
  0
LINE
  8
0
 10
28.8018
 20
53.2373
 11
29.041
 21
53.1338
  0
LINE
  8
0
 10
29.041
 20
53.1338
 11
29.4141
 21
52.958
  0
LINE
  8
0
 10
29.4141
 20
52.958
 11
34.3975
 21
50.5078
  0
LINE
  8
0
 10
34.3975
 20
50.5078
 11
29.1475
 21
54.8193
  0
LINE
  8
0
 10
29.1475
 20
54.8193
 11
26.7656
 21
56.7881
  0
LINE
  8
0
 10
26.7656
 20
56.7881
 11
26.4492
 21
57.0537
  0
LINE
  8
0
 10
26.4492
 20
57.0537
 11
26.2939
 21
57.1875
  0
LINE
  8
0
 10
26.2939
 20
57.1875
 11
25.8965
 21
57.5635
  0
LINE
  8
0
 10
25.8965
 20
57.5635
 11
25.8086
 21
57.6504
  0
LINE
  8
0
 10
25.8086
 20
57.6504
 11
25.5918
 21
57.876
  0
LINE
  8
0
 10
25.5918
 20
57.876
 11
25.4697
 21
58.0146
  0
LINE
  8
0
 10
25.4697
 20
58.0146
 11
25.3574
 21
58.1514
  0
LINE
  8
0
 10
25.3574
 20
58.1514
 11
25.291
 21
58.2412
  0
LINE
  8
0
 10
25.291
 20
58.2412
 11
25.2314
 21
58.3291
  0
LINE
  8
0
 10
25.2314
 20
58.3291
 11
25.1807
 21
58.415
  0
LINE
  8
0
 10
25.1807
 20
58.415
 11
25.1396
 21
58.4961
  0
LINE
  8
0
 10
25.1396
 20
58.4961
 11
25.1221
 21
58.5371
  0
LINE
  8
0
 10
25.1221
 20
58.5371
 11
25.0938
 21
58.6201
  0
LINE
  8
0
 10
25.0938
 20
58.6201
 11
25.0811
 21
58.6631
  0
LINE
  8
0
 10
25.0811
 20
58.6631
 11
25.0547
 21
58.7949
  0
LINE
  8
0
 10
25.0547
 20
58.7949
 11
25.0449
 21
58.8848
  0
LINE
  8
0
 10
25.0449
 20
58.8848
 11
25.04
 21
58.9746
  0
LINE
  8
0
 10
25.04
 20
58.9746
 11
25.041
 21
59.0635
  0
LINE
  8
0
 10
25.041
 20
59.0635
 11
25.0479
 21
59.1523
  0
LINE
  8
0
 10
25.0479
 20
59.1523
 11
25.0586
 21
59.2383
  0
LINE
  8
0
 10
25.0586
 20
59.2383
 11
25.0752
 21
59.3213
  0
LINE
  8
0
 10
25.0752
 20
59.3213
 11
25.0957
 21
59.4004
  0
LINE
  8
0
 10
25.0957
 20
59.4004
 11
25.1201
 21
59.4756
  0
LINE
  8
0
 10
25.1201
 20
59.4756
 11
25.1484
 21
59.5449
  0
LINE
  8
0
 10
25.1484
 20
59.5449
 11
25.1807
 21
59.6084
  0
LINE
  8
0
 10
25.1807
 20
59.6084
 11
25.2158
 21
59.6641
  0
LINE
  8
0
 10
25.2158
 20
59.6641
 11
25.2549
 21
59.7129
  0
LINE
  8
0
 10
25.2549
 20
59.7129
 11
25.3223
 21
59.7783
  0
LINE
  8
0
 10
25.3223
 20
59.7783
 11
25.375
 21
59.8213
  0
LINE
  8
0
 10
25.375
 20
59.8213
 11
25.4326
 21
59.8613
  0
LINE
  8
0
 10
25.4326
 20
59.8613
 11
25.4639
 21
59.8809
  0
LINE
  8
0
 10
25.4639
 20
59.8809
 11
25.5303
 21
59.918
  0
LINE
  8
0
 10
25.5303
 20
59.918
 11
25.6025
 21
59.9521
  0
LINE
  8
0
 10
25.6025
 20
59.9521
 11
25.6787
 21
59.9824
  0
LINE
  8
0
 10
25.6787
 20
59.9824
 11
25.7607
 21
60.0088
  0
LINE
  8
0
 10
25.7607
 20
60.0088
 11
25.8467
 21
60.0312
  0
LINE
  8
0
 10
25.8467
 20
60.0312
 11
25.9375
 21
60.0488
  0
LINE
  8
0
 10
25.9375
 20
60.0488
 11
26.0312
 21
60.0605
  0
LINE
  8
0
 10
26.0312
 20
60.0605
 11
26.0801
 21
60.0645
  0
LINE
  8
0
 10
26.0801
 20
60.0645
 11
26.1807
 21
60.0674
  0
LINE
  8
0
 10
26.1807
 20
60.0674
 11
26.2842
 21
60.0635
  0
LINE
  8
0
 10
26.2842
 20
60.0635
 11
26.3916
 21
60.0527
  0
LINE
  8
0
 10
26.3916
 20
60.0527
 11
26.502
 21
60.0342
  0
LINE
  8
0
 10
26.502
 20
60.0342
 11
26.7061
 21
59.9863
  0
LINE
  8
0
 10
26.7061
 20
59.9863
 11
27.0723
 21
59.8838
  0
LINE
  8
0
 10
27.0723
 20
59.8838
 11
27.5029
 21
59.752
  0
LINE
  8
0
 10
27.5029
 20
59.752
 11
28.1758
 21
59.5361
  0
LINE
  8
0
 10
28.1758
 20
59.5361
 11
29.0879
 21
59.2305
  0
LINE
  8
0
 10
29.0879
 20
59.2305
 11
35.3213
 21
56.9121
  0
LINE
  8
0
 10
35.3213
 20
56.9121
 11
32.1123
 21
59.4609
  0
LINE
  8
0
 10
32.1123
 20
59.4609
 11
33.2432
 21
60.7002
  0
LINE
  8
0
 10
33.2432
 20
60.7002
 11
35.9375
 21
58.4814
  0
LINE
  8
0
 10
35.9375
 20
58.4814
 11
37.0576
 21
57.5449
  0
LINE
  8
0
 10
37.0576
 20
57.5449
 11
37.3721
 21
57.2754
  0
LINE
  8
0
 10
37.3721
 20
57.2754
 11
37.751
 21
56.9355
  0
LINE
  8
0
 10
37.751
 20
56.9355
 11
38.0195
 21
56.6826
  0
LINE
  8
0
 10
38.0195
 20
56.6826
 11
38.1611
 21
56.54
  0
LINE
  8
0
 10
38.1611
 20
56.54
 11
38.2881
 21
56.4014
  0
LINE
  8
0
 10
38.2881
 20
56.4014
 11
38.3652
 21
56.3115
  0
LINE
  8
0
 10
38.3652
 20
56.3115
 11
38.4346
 21
56.2236
  0
LINE
  8
0
 10
38.4346
 20
56.2236
 11
38.4971
 21
56.1357
  0
LINE
  8
0
 10
38.4971
 20
56.1357
 11
38.5537
 21
56.0488
  0
LINE
  8
0
 10
38.5537
 20
56.0488
 11
38.6025
 21
55.9609
  0
LINE
  8
0
 10
38.6025
 20
55.9609
 11
38.624
 21
55.918
  0
LINE
  8
0
 10
38.624
 20
55.918
 11
38.6621
 21
55.8301
  0
LINE
  8
0
 10
38.6621
 20
55.8301
 11
38.6924
 21
55.7422
  0
LINE
  8
0
 10
38.6924
 20
55.7422
 11
38.7168
 21
55.6523
  0
LINE
  8
0
 10
38.7168
 20
55.6523
 11
38.7354
 21
55.5615
  0
LINE
  8
0
 10
38.7354
 20
55.5615
 11
38.7471
 21
55.4697
  0
LINE
  8
0
 10
38.7471
 20
55.4697
 11
38.7529
 21
55.3789
  0
LINE
  8
0
 10
38.7529
 20
55.3789
 11
38.7539
 21
55.333
  0
LINE
  8
0
 10
38.7539
 20
55.333
 11
38.749
 21
55.2422
  0
LINE
  8
0
 10
38.749
 20
55.2422
 11
38.7363
 21
55.1533
  0
LINE
  8
0
 10
38.7363
 20
55.1533
 11
38.7275
 21
55.1094
  0
LINE
  8
0
 10
38.7275
 20
55.1094
 11
38.7021
 21
55.0234
  0
LINE
  8
0
 10
38.7021
 20
55.0234
 11
38.6689
 21
54.9395
  0
LINE
  8
0
 10
38.6689
 20
54.9395
 11
38.626
 21
54.8594
  0
LINE
  8
0
 10
38.626
 20
54.8594
 11
38.6016
 21
54.8213
  0
LINE
  8
0
 10
38.6016
 20
54.8213
 11
38.5742
 21
54.7832
  0
LINE
  8
0
 10
38.5742
 20
54.7832
 11
38.5117
 21
54.7109
  0
LINE
  8
0
 10
38.5117
 20
54.7109
 11
38.4766
 21
54.6768
  0
LINE
  8
0
 10
38.4766
 20
54.6768
 11
38.4385
 21
54.6445
  0
LINE
  8
0
 10
38.4385
 20
54.6445
 11
38.3545
 21
54.583
  0
LINE
  8
0
 10
38.3545
 20
54.583
 11
38.3086
 21
54.5547
  0
LINE
  8
0
 10
38.3086
 20
54.5547
 11
38.2588
 21
54.5273
  0
LINE
  8
0
 10
38.2588
 20
54.5273
 11
38.207
 21
54.502
  0
LINE
  8
0
 10
38.207
 20
54.502
 11
38.1514
 21
54.4795
  0
LINE
  8
0
 10
38.1514
 20
54.4795
 11
38.0938
 21
54.4609
  0
LINE
  8
0
 10
38.0938
 20
54.4609
 11
38.0322
 21
54.4463
  0
LINE
  8
0
 10
38.0322
 20
54.4463
 11
37.9688
 21
54.4346
  0
LINE
  8
0
 10
37.9688
 20
54.4346
 11
37.9023
 21
54.4268
  0
LINE
  8
0
 10
37.9023
 20
54.4268
 11
37.833
 21
54.4219
  0
LINE
  8
0
 10
37.833
 20
54.4219
 11
37.7627
 21
54.4199
  0
LINE
  8
0
 10
37.7627
 20
54.4199
 11
37.6162
 21
54.4238
  0
LINE
  8
0
 10
37.6162
 20
54.4238
 11
37.541
 21
54.4297
  0
LINE
  8
0
 10
37.541
 20
54.4297
 11
37.3867
 21
54.4482
  0
LINE
  8
0
 10
37.3867
 20
54.4482
 11
37.2295
 21
54.4746
  0
LINE
  8
0
 10
37.2295
 20
54.4746
 11
37.0713
 21
54.5078
  0
LINE
  8
0
 10
37.0713
 20
54.5078
 11
36.834
 21
54.5664
  0
LINE
  8
0
 10
36.834
 20
54.5664
 11
36.5303
 21
54.6543
  0
LINE
  8
0
 10
36.5303
 20
54.6543
 11
36.0137
 21
54.8232
  0
LINE
  8
0
 10
36.0137
 20
54.8232
 11
35.8271
 21
54.8896
  0
LINE
  8
0
 10
35.8271
 20
54.8896
 11
35.2832
 21
55.0918
  0
LINE
  8
0
 10
35.2832
 20
55.0918
 11
30.0225
 21
57.0977
  0
LINE
  8
0
 10
30.0225
 20
57.0977
 11
28.2334
 21
57.7852
  0
LINE
  8
0
 10
28.2334
 20
57.7852
 11
35.8125
 21
51.5566
  0
LINE
  8
0
 10
35.8125
 20
51.5566
 11
36.7373
 21
50.79
  0
LINE
  8
0
 10
36.7373
 20
50.79
 11
36.9873
 21
50.5693
  0
LINE
  8
0
 10
36.9873
 20
50.5693
 11
37.4395
 21
50.1523
  0
LINE
  8
0
 10
37.4395
 20
50.1523
 11
37.7988
 21
49.8066
  0
LINE
  8
0
 10
37.7988
 20
49.8066
 11
38.0059
 21
49.5996
  0
LINE
  8
0
 10
38.0059
 20
49.5996
 11
38.1953
 21
49.4014
  0
LINE
  8
0
 10
38.1953
 20
49.4014
 11
38.3066
 21
49.2783
  0
LINE
  8
0
 10
38.3066
 20
49.2783
 11
38.4023
 21
49.166
  0
LINE
  8
0
 10
38.4023
 20
49.166
 11
38.4795
 21
49.0664
  0
LINE
  8
0
 10
38.4795
 20
49.0664
 11
38.5352
 21
48.9824
  0
LINE
  8
0
 10
38.5352
 20
48.9824
 11
38.5537
 21
48.9473
  0
LINE
  8
0
 10
38.5537
 20
48.9473
 11
38.583
 21
48.8789
  0
LINE
  8
0
 10
38.583
 20
48.8789
 11
38.6221
 21
48.7705
  0
LINE
  8
0
 10
38.6221
 20
48.7705
 11
38.6426
 21
48.6953
  0
LINE
  8
0
 10
38.6426
 20
48.6953
 11
38.6592
 21
48.6191
  0
LINE
  8
0
 10
38.6592
 20
48.6191
 11
38.6719
 21
48.54
  0
LINE
  8
0
 10
38.6719
 20
48.54
 11
38.6807
 21
48.4209
  0
LINE
  8
0
 10
38.6807
 20
48.4209
 11
38.6777
 21
48.3018
  0
LINE
  8
0
 10
38.6777
 20
48.3018
 11
38.668
 21
48.2217
  0
LINE
  8
0
 10
38.668
 20
48.2217
 11
38.6514
 21
48.1426
  0
LINE
  8
0
 10
38.6514
 20
48.1426
 11
38.6289
 21
48.0654
  0
LINE
  8
0
 10
38.6289
 20
48.0654
 11
38.5986
 21
47.9893
  0
LINE
  8
0
 10
38.5986
 20
47.9893
 11
38.5605
 21
47.915
  0
LINE
  8
0
 10
38.5605
 20
47.915
 11
38.5391
 21
47.8789
  0
LINE
  8
0
 10
38.5391
 20
47.8789
 11
38.5156
 21
47.8438
  0
LINE
  8
0
 10
38.5156
 20
47.8438
 11
38.4609
 21
47.7754
  0
LINE
  8
0
 10
38.4609
 20
47.7754
 11
38.4307
 21
47.7441
  0
LINE
  8
0
 10
38.4307
 20
47.7441
 11
38.3965
 21
47.7148
  0
LINE
  8
0
 10
38.3965
 20
47.7148
 11
38.3594
 21
47.6875
  0
LINE
  8
0
 10
38.3594
 20
47.6875
 11
38.3193
 21
47.6631
  0
LINE
  8
0
 10
38.3193
 20
47.6631
 11
38.2773
 21
47.6416
  0
LINE
  8
0
 10
38.2773
 20
47.6416
 11
38.2314
 21
47.6221
  0
LINE
  8
0
 10
38.2314
 20
47.6221
 11
38.1846
 21
47.6045
  0
LINE
  8
0
 10
38.1846
 20
47.6045
 11
38.1348
 21
47.5889
  0
LINE
  8
0
 10
38.1348
 20
47.5889
 11
38.083
 21
47.5752
  0
LINE
  8
0
 10
38.083
 20
47.5752
 11
37.9756
 21
47.5547
  0
LINE
  8
0
 10
37.9756
 20
47.5547
 11
37.8633
 21
47.54
  0
LINE
  8
0
 10
37.8633
 20
47.54
 11
37.7461
 21
47.5332
  0
LINE
  8
0
 10
37.7461
 20
47.5332
 11
37.6279
 21
47.5303
  0
LINE
  8
0
 10
37.6279
 20
47.5303
 11
37.5078
 21
47.5332
  0
LINE
  8
0
 10
37.5078
 20
47.5332
 11
37.332
 21
47.5459
  0
LINE
  8
0
 10
37.332
 20
47.5459
 11
37.1621
 21
47.5645
  0
LINE
  8
0
 10
37.1621
 20
47.5645
 11
36.958
 21
47.5977
  0
LINE
  8
0
 10
36.958
 20
47.5977
 11
36.8682
 21
47.6152
  0
LINE
  8
0
 10
36.8682
 20
47.6152
 11
36.8223
 21
47.626
  0
LINE
  8
0
 10
36.8223
 20
47.626
 11
36.709
 21
47.6611
  0
LINE
  8
0
 10
36.709
 20
47.6611
 11
36.5723
 21
47.71
  0
LINE
  8
0
 10
36.5723
 20
47.71
 11
36.334
 21
47.8057
  0
LINE
  8
0
 10
36.334
 20
47.8057
 11
35.9756
 21
47.9609
  0
LINE
  8
0
 10
35.9756
 20
47.9609
 11
35.3467
 21
48.252
  0
LINE
  8
0
 10
35.3467
 20
48.252
 11
34.7676
 21
48.5332
  0
LINE
  8
0
 10
34.7676
 20
48.5332
 11
28.0713
 21
51.6094
  0
LINE
  8
0
 10
28.0713
 20
51.6094
 11
31.2578
 21
48.0508
  0
LINE
  8
0
 10
31.2578
 20
48.0508
 11
29.8955
 21
47.0869
  0
LINE
  8
0
 10
29.8955
 20
47.0869
 11
27.1699
 21
50.1582
  0
LINE
  8
0
 10
19.7393
 20
63.7402
 11
0
 21
63.7402
  0
LINE
  8
0
 10
0
 20
63.7402
 11
0
 21
44
  0
LINE
  8
0
 10
0
 20
44
 11
19.7393
 21
44
  0
LINE
  8
0
 10
19.7393
 20
44
 11
19.7393
 21
63.7402
  0
LINE
  8
0
 10
8.96582
 20
48.7588
 11
8.89551
 21
48.7676
  0
LINE
  8
0
 10
8.89551
 20
48.7676
 11
8.83008
 21
48.7812
  0
LINE
  8
0
 10
8.83008
 20
48.7812
 11
8.79883
 21
48.79
  0
LINE
  8
0
 10
8.79883
 20
48.79
 11
8.70898
 21
48.8232
  0
LINE
  8
0
 10
8.70898
 20
48.8232
 11
8.62598
 21
48.8652
  0
LINE
  8
0
 10
8.62598
 20
48.8652
 11
8.54785
 21
48.915
  0
LINE
  8
0
 10
8.54785
 20
48.915
 11
8.47363
 21
48.9697
  0
LINE
  8
0
 10
8.47363
 20
48.9697
 11
8.18262
 21
49.2188
  0
LINE
  8
0
 10
8.18262
 20
49.2188
 11
3.45703
 21
53.1406
  0
LINE
  8
0
 10
3.45703
 20
53.1406
 11
3.34863
 21
53.2393
  0
LINE
  8
0
 10
3.34863
 20
53.2393
 11
3.27734
 21
53.3125
  0
LINE
  8
0
 10
3.27734
 20
53.3125
 11
3.23438
 21
53.3623
  0
LINE
  8
0
 10
3.23438
 20
53.3623
 11
3.17773
 21
53.4385
  0
LINE
  8
0
 10
3.17773
 20
53.4385
 11
3.14453
 21
53.4912
  0
LINE
  8
0
 10
3.14453
 20
53.4912
 11
3.11621
 21
53.5459
  0
LINE
  8
0
 10
3.11621
 20
53.5459
 11
3.08203
 21
53.6318
  0
LINE
  8
0
 10
3.08203
 20
53.6318
 11
3.07227
 21
53.6621
  0
LINE
  8
0
 10
3.07227
 20
53.6621
 11
3.05762
 21
53.7246
  0
LINE
  8
0
 10
3.05762
 20
53.7246
 11
3.04785
 21
53.791
  0
LINE
  8
0
 10
3.04785
 20
53.791
 11
3.04297
 21
53.8604
  0
LINE
  8
0
 10
3.04297
 20
53.8604
 11
3.04297
 21
53.9336
  0
LINE
  8
0
 10
3.04297
 20
53.9336
 11
3.04785
 21
54.0029
  0
LINE
  8
0
 10
3.04785
 20
54.0029
 11
3.05176
 21
54.0361
  0
LINE
  8
0
 10
3.05176
 20
54.0361
 11
3.06445
 21
54.1006
  0
LINE
  8
0
 10
3.06445
 20
54.1006
 11
3.08203
 21
54.1611
  0
LINE
  8
0
 10
3.08203
 20
54.1611
 11
3.10352
 21
54.2197
  0
LINE
  8
0
 10
3.10352
 20
54.2197
 11
3.12988
 21
54.2754
  0
LINE
  8
0
 10
3.12988
 20
54.2754
 11
3.14453
 21
54.3018
  0
LINE
  8
0
 10
3.14453
 20
54.3018
 11
3.17773
 21
54.3545
  0
LINE
  8
0
 10
3.17773
 20
54.3545
 11
3.21484
 21
54.4062
  0
LINE
  8
0
 10
3.21484
 20
54.4062
 11
3.27734
 21
54.4805
  0
LINE
  8
0
 10
3.27734
 20
54.4805
 11
3.34863
 21
54.5537
  0
LINE
  8
0
 10
3.34863
 20
54.5537
 11
3.42871
 21
54.6279
  0
LINE
  8
0
 10
3.42871
 20
54.6279
 11
3.57715
 21
54.7539
  0
LINE
  8
0
 10
3.57715
 20
54.7539
 11
8.20801
 21
58.5957
  0
LINE
  8
0
 10
8.20801
 20
58.5957
 11
8.44922
 21
58.8047
  0
LINE
  8
0
 10
8.44922
 20
58.8047
 11
8.54785
 21
58.8789
  0
LINE
  8
0
 10
8.54785
 20
58.8789
 11
8.65332
 21
58.9434
  0
LINE
  8
0
 10
8.65332
 20
58.9434
 11
8.73828
 21
58.9824
  0
LINE
  8
0
 10
8.73828
 20
58.9824
 11
8.79883
 21
59.0029
  0
LINE
  8
0
 10
8.79883
 20
59.0029
 11
8.8623
 21
59.0195
  0
LINE
  8
0
 10
8.8623
 20
59.0195
 11
8.92969
 21
59.0312
  0
LINE
  8
0
 10
8.92969
 20
59.0312
 11
9.00195
 21
59.0371
  0
LINE
  8
0
 10
9.00195
 20
59.0371
 11
9.09082
 21
59.0361
  0
LINE
  8
0
 10
9.09082
 20
59.0361
 11
9.14062
 21
59.0322
  0
LINE
  8
0
 10
9.14062
 20
59.0322
 11
9.23633
 21
59.0166
  0
LINE
  8
0
 10
9.23633
 20
59.0166
 11
9.28125
 21
59.0049
  0
LINE
  8
0
 10
9.28125
 20
59.0049
 11
9.3252
 21
58.9912
  0
LINE
  8
0
 10
9.3252
 20
58.9912
 11
9.36816
 21
58.9756
  0
LINE
  8
0
 10
9.36816
 20
58.9756
 11
9.44922
 21
58.9375
  0
LINE
  8
0
 10
9.44922
 20
58.9375
 11
9.52344
 21
58.8916
  0
LINE
  8
0
 10
9.52344
 20
58.8916
 11
9.55859
 21
58.8662
  0
LINE
  8
0
 10
9.55859
 20
58.8662
 11
9.59277
 21
58.8389
  0
LINE
  8
0
 10
9.59277
 20
58.8389
 11
9.62402
 21
58.8105
  0
LINE
  8
0
 10
9.62402
 20
58.8105
 11
9.6543
 21
58.7803
  0
LINE
  8
0
 10
9.6543
 20
58.7803
 11
9.68262
 21
58.749
  0
LINE
  8
0
 10
9.68262
 20
58.749
 11
9.70996
 21
58.7158
  0
LINE
  8
0
 10
9.70996
 20
58.7158
 11
9.75781
 21
58.6475
  0
LINE
  8
0
 10
9.75781
 20
58.6475
 11
9.7998
 21
58.5752
  0
LINE
  8
0
 10
9.7998
 20
58.5752
 11
9.83398
 21
58.499
  0
LINE
  8
0
 10
9.83398
 20
58.499
 11
9.86133
 21
58.4209
  0
LINE
  8
0
 10
9.86133
 20
58.4209
 11
9.87207
 21
58.3818
  0
LINE
  8
0
 10
9.87207
 20
58.3818
 11
9.8877
 21
58.3018
  0
LINE
  8
0
 10
9.8877
 20
58.3018
 11
9.89551
 21
58.2207
  0
LINE
  8
0
 10
9.89551
 20
58.2207
 11
9.89648
 21
55.6104
  0
LINE
  8
0
 10
9.89648
 20
55.6104
 11
15.9395
 21
55.6094
  0
LINE
  8
0
 10
15.9395
 20
55.6094
 11
15.9844
 21
55.6055
  0
LINE
  8
0
 10
15.9844
 20
55.6055
 11
16.0283
 21
55.5996
  0
LINE
  8
0
 10
16.0283
 20
55.5996
 11
16.0713
 21
55.5918
  0
LINE
  8
0
 10
16.0713
 20
55.5918
 11
16.1553
 21
55.5693
  0
LINE
  8
0
 10
16.1553
 20
55.5693
 11
16.1963
 21
55.5547
  0
LINE
  8
0
 10
16.1963
 20
55.5547
 11
16.2754
 21
55.5205
  0
LINE
  8
0
 10
16.2754
 20
55.5205
 11
16.3496
 21
55.4785
  0
LINE
  8
0
 10
16.3496
 20
55.4785
 11
16.4189
 21
55.4287
  0
LINE
  8
0
 10
16.4189
 20
55.4287
 11
16.4521
 21
55.4023
  0
LINE
  8
0
 10
16.4521
 20
55.4023
 11
16.5137
 21
55.3438
  0
LINE
  8
0
 10
16.5137
 20
55.3438
 11
16.5693
 21
55.2793
  0
LINE
  8
0
 10
16.5693
 20
55.2793
 11
16.5947
 21
55.2451
  0
LINE
  8
0
 10
16.5947
 20
55.2451
 11
16.6406
 21
55.1729
  0
LINE
  8
0
 10
16.6406
 20
55.1729
 11
16.6787
 21
55.0957
  0
LINE
  8
0
 10
16.6787
 20
55.0957
 11
16.6953
 21
55.0566
  0
LINE
  8
0
 10
16.6953
 20
55.0566
 11
16.71
 21
55.0156
  0
LINE
  8
0
 10
16.71
 20
55.0156
 11
16.7324
 21
54.9307
  0
LINE
  8
0
 10
16.7324
 20
54.9307
 11
16.7402
 21
54.8877
  0
LINE
  8
0
 10
16.7402
 20
54.8877
 11
16.7461
 21
54.8438
  0
LINE
  8
0
 10
16.7461
 20
54.8438
 11
16.751
 21
54.7539
  0
LINE
  8
0
 10
16.751
 20
54.7539
 11
16.751
 21
53.04
  0
LINE
  8
0
 10
16.751
 20
53.04
 11
16.7461
 21
52.9502
  0
LINE
  8
0
 10
16.7461
 20
52.9502
 11
16.7324
 21
52.8623
  0
LINE
  8
0
 10
16.7324
 20
52.8623
 11
16.71
 21
52.7783
  0
LINE
  8
0
 10
16.71
 20
52.7783
 11
16.6953
 21
52.7373
  0
LINE
  8
0
 10
16.6953
 20
52.7373
 11
16.6787
 21
52.6973
  0
LINE
  8
0
 10
16.6787
 20
52.6973
 11
16.6406
 21
52.6211
  0
LINE
  8
0
 10
16.6406
 20
52.6211
 11
16.5947
 21
52.5488
  0
LINE
  8
0
 10
16.5947
 20
52.5488
 11
16.5693
 21
52.5146
  0
LINE
  8
0
 10
16.5693
 20
52.5146
 11
16.542
 21
52.4814
  0
LINE
  8
0
 10
16.542
 20
52.4814
 11
16.5137
 21
52.4502
  0
LINE
  8
0
 10
16.5137
 20
52.4502
 11
16.4834
 21
52.4199
  0
LINE
  8
0
 10
16.4834
 20
52.4199
 11
16.4521
 21
52.3916
  0
LINE
  8
0
 10
16.4521
 20
52.3916
 11
16.4189
 21
52.3643
  0
LINE
  8
0
 10
16.4189
 20
52.3643
 11
16.3848
 21
52.3389
  0
LINE
  8
0
 10
16.3848
 20
52.3389
 11
16.3496
 21
52.3154
  0
LINE
  8
0
 10
16.3496
 20
52.3154
 11
16.2754
 21
52.2734
  0
LINE
  8
0
 10
16.2754
 20
52.2734
 11
16.2363
 21
52.2549
  0
LINE
  8
0
 10
16.2363
 20
52.2549
 11
16.1963
 21
52.2383
  0
LINE
  8
0
 10
16.1963
 20
52.2383
 11
16.1143
 21
52.2119
  0
LINE
  8
0
 10
16.1143
 20
52.2119
 11
16.0283
 21
52.1934
  0
LINE
  8
0
 10
16.0283
 20
52.1934
 11
15.9844
 21
52.1875
  0
LINE
  8
0
 10
15.9844
 20
52.1875
 11
15.8936
 21
52.1836
  0
LINE
  8
0
 10
15.8936
 20
52.1836
 11
9.89648
 21
52.1836
  0
LINE
  8
0
 10
9.89648
 20
52.1836
 11
9.89551
 21
49.5723
  0
LINE
  8
0
 10
9.89551
 20
49.5723
 11
9.8877
 21
49.4922
  0
LINE
  8
0
 10
9.8877
 20
49.4922
 11
9.87207
 21
49.4121
  0
LINE
  8
0
 10
9.87207
 20
49.4121
 11
9.86133
 21
49.3721
  0
LINE
  8
0
 10
9.86133
 20
49.3721
 11
9.83398
 21
49.2939
  0
LINE
  8
0
 10
9.83398
 20
49.2939
 11
9.7998
 21
49.2188
  0
LINE
  8
0
 10
9.7998
 20
49.2188
 11
9.75781
 21
49.1465
  0
LINE
  8
0
 10
9.75781
 20
49.1465
 11
9.70996
 21
49.0771
  0
LINE
  8
0
 10
9.70996
 20
49.0771
 11
9.6543
 21
49.0137
  0
LINE
  8
0
 10
9.6543
 20
49.0137
 11
9.62402
 21
48.9834
  0
LINE
  8
0
 10
9.62402
 20
48.9834
 11
9.59277
 21
48.9551
  0
LINE
  8
0
 10
9.59277
 20
48.9551
 11
9.55859
 21
48.9277
  0
LINE
  8
0
 10
9.55859
 20
48.9277
 11
9.4873
 21
48.8779
  0
LINE
  8
0
 10
9.4873
 20
48.8779
 11
9.40918
 21
48.8359
  0
LINE
  8
0
 10
9.40918
 20
48.8359
 11
9.36816
 21
48.8184
  0
LINE
  8
0
 10
9.36816
 20
48.8184
 11
9.28125
 21
48.7881
  0
LINE
  8
0
 10
9.28125
 20
48.7881
 11
9.18848
 21
48.7676
  0
LINE
  8
0
 10
9.18848
 20
48.7676
 11
9.14062
 21
48.7617
  0
LINE
  8
0
 10
9.14062
 20
48.7617
 11
9.09082
 21
48.7578
  0
LINE
  8
0
 10
9.09082
 20
48.7578
 11
9.04004
 21
48.7559
  0
LINE
  8
0
 10
9.04004
 20
48.7559
 11
8.96582
 21
48.7588
  0
LINE
  8
0
 10
63.7393
 20
63.7402
 11
44
 21
63.7402
  0
LINE
  8
0
 10
44
 20
63.7402
 11
44
 21
44
  0
LINE
  8
0
 10
44
 20
44
 11
63.7393
 21
44
  0
LINE
  8
0
 10
63.7393
 20
44
 11
63.7393
 21
63.7402
  0
LINE
  8
0
 10
52.9658
 20
48.7588
 11
52.8955
 21
48.7676
  0
LINE
  8
0
 10
52.8955
 20
48.7676
 11
52.8301
 21
48.7812
  0
LINE
  8
0
 10
52.8301
 20
48.7812
 11
52.7988
 21
48.79
  0
LINE
  8
0
 10
52.7988
 20
48.79
 11
52.709
 21
48.8232
  0
LINE
  8
0
 10
52.709
 20
48.8232
 11
52.626
 21
48.8652
  0
LINE
  8
0
 10
52.626
 20
48.8652
 11
52.5479
 21
48.915
  0
LINE
  8
0
 10
52.5479
 20
48.915
 11
52.4736
 21
48.9697
  0
LINE
  8
0
 10
52.4736
 20
48.9697
 11
52.1826
 21
49.2188
  0
LINE
  8
0
 10
52.1826
 20
49.2188
 11
47.457
 21
53.1406
  0
LINE
  8
0
 10
47.457
 20
53.1406
 11
47.3486
 21
53.2393
  0
LINE
  8
0
 10
47.3486
 20
53.2393
 11
47.2773
 21
53.3125
  0
LINE
  8
0
 10
47.2773
 20
53.3125
 11
47.2344
 21
53.3623
  0
LINE
  8
0
 10
47.2344
 20
53.3623
 11
47.1777
 21
53.4385
  0
LINE
  8
0
 10
47.1777
 20
53.4385
 11
47.1445
 21
53.4912
  0
LINE
  8
0
 10
47.1445
 20
53.4912
 11
47.1162
 21
53.5459
  0
LINE
  8
0
 10
47.1162
 20
53.5459
 11
47.082
 21
53.6318
  0
LINE
  8
0
 10
47.082
 20
53.6318
 11
47.0723
 21
53.6621
  0
LINE
  8
0
 10
47.0723
 20
53.6621
 11
47.0576
 21
53.7246
  0
LINE
  8
0
 10
47.0576
 20
53.7246
 11
47.0479
 21
53.791
  0
LINE
  8
0
 10
47.0479
 20
53.791
 11
47.043
 21
53.8604
  0
LINE
  8
0
 10
47.043
 20
53.8604
 11
47.043
 21
53.9336
  0
LINE
  8
0
 10
47.043
 20
53.9336
 11
47.0479
 21
54.0029
  0
LINE
  8
0
 10
47.0479
 20
54.0029
 11
47.0518
 21
54.0361
  0
LINE
  8
0
 10
47.0518
 20
54.0361
 11
47.0645
 21
54.1006
  0
LINE
  8
0
 10
47.0645
 20
54.1006
 11
47.082
 21
54.1611
  0
LINE
  8
0
 10
47.082
 20
54.1611
 11
47.1035
 21
54.2197
  0
LINE
  8
0
 10
47.1035
 20
54.2197
 11
47.1299
 21
54.2754
  0
LINE
  8
0
 10
47.1299
 20
54.2754
 11
47.1445
 21
54.3018
  0
LINE
  8
0
 10
47.1445
 20
54.3018
 11
47.1777
 21
54.3545
  0
LINE
  8
0
 10
47.1777
 20
54.3545
 11
47.2148
 21
54.4062
  0
LINE
  8
0
 10
47.2148
 20
54.4062
 11
47.2773
 21
54.4805
  0
LINE
  8
0
 10
47.2773
 20
54.4805
 11
47.3486
 21
54.5537
  0
LINE
  8
0
 10
47.3486
 20
54.5537
 11
47.4287
 21
54.6279
  0
LINE
  8
0
 10
47.4287
 20
54.6279
 11
47.5771
 21
54.7539
  0
LINE
  8
0
 10
47.5771
 20
54.7539
 11
52.208
 21
58.5957
  0
LINE
  8
0
 10
52.208
 20
58.5957
 11
52.4492
 21
58.8047
  0
LINE
  8
0
 10
52.4492
 20
58.8047
 11
52.5479
 21
58.8789
  0
LINE
  8
0
 10
52.5479
 20
58.8789
 11
52.6533
 21
58.9434
  0
LINE
  8
0
 10
52.6533
 20
58.9434
 11
52.7383
 21
58.9824
  0
LINE
  8
0
 10
52.7383
 20
58.9824
 11
52.7988
 21
59.0029
  0
LINE
  8
0
 10
52.7988
 20
59.0029
 11
52.8623
 21
59.0195
  0
LINE
  8
0
 10
52.8623
 20
59.0195
 11
52.9297
 21
59.0312
  0
LINE
  8
0
 10
52.9297
 20
59.0312
 11
53.002
 21
59.0371
  0
LINE
  8
0
 10
53.002
 20
59.0371
 11
53.0908
 21
59.0361
  0
LINE
  8
0
 10
53.0908
 20
59.0361
 11
53.1406
 21
59.0322
  0
LINE
  8
0
 10
53.1406
 20
59.0322
 11
53.2363
 21
59.0166
  0
LINE
  8
0
 10
53.2363
 20
59.0166
 11
53.2812
 21
59.0049
  0
LINE
  8
0
 10
53.2812
 20
59.0049
 11
53.3252
 21
58.9912
  0
LINE
  8
0
 10
53.3252
 20
58.9912
 11
53.3682
 21
58.9756
  0
LINE
  8
0
 10
53.3682
 20
58.9756
 11
53.4492
 21
58.9375
  0
LINE
  8
0
 10
53.4492
 20
58.9375
 11
53.5234
 21
58.8916
  0
LINE
  8
0
 10
53.5234
 20
58.8916
 11
53.5586
 21
58.8662
  0
LINE
  8
0
 10
53.5586
 20
58.8662
 11
53.5928
 21
58.8389
  0
LINE
  8
0
 10
53.5928
 20
58.8389
 11
53.624
 21
58.8105
  0
LINE
  8
0
 10
53.624
 20
58.8105
 11
53.6543
 21
58.7803
  0
LINE
  8
0
 10
53.6543
 20
58.7803
 11
53.6826
 21
58.749
  0
LINE
  8
0
 10
53.6826
 20
58.749
 11
53.71
 21
58.7158
  0
LINE
  8
0
 10
53.71
 20
58.7158
 11
53.7578
 21
58.6475
  0
LINE
  8
0
 10
53.7578
 20
58.6475
 11
53.7998
 21
58.5752
  0
LINE
  8
0
 10
53.7998
 20
58.5752
 11
53.834
 21
58.499
  0
LINE
  8
0
 10
53.834
 20
58.499
 11
53.8613
 21
58.4209
  0
LINE
  8
0
 10
53.8613
 20
58.4209
 11
53.8721
 21
58.3818
  0
LINE
  8
0
 10
53.8721
 20
58.3818
 11
53.8877
 21
58.3018
  0
LINE
  8
0
 10
53.8877
 20
58.3018
 11
53.8955
 21
58.2207
  0
LINE
  8
0
 10
53.8955
 20
58.2207
 11
53.8965
 21
55.6104
  0
LINE
  8
0
 10
53.8965
 20
55.6104
 11
59.9395
 21
55.6094
  0
LINE
  8
0
 10
59.9395
 20
55.6094
 11
59.9844
 21
55.6055
  0
LINE
  8
0
 10
59.9844
 20
55.6055
 11
60.0283
 21
55.5996
  0
LINE
  8
0
 10
60.0283
 20
55.5996
 11
60.0713
 21
55.5918
  0
LINE
  8
0
 10
60.0713
 20
55.5918
 11
60.1553
 21
55.5693
  0
LINE
  8
0
 10
60.1553
 20
55.5693
 11
60.1963
 21
55.5547
  0
LINE
  8
0
 10
60.1963
 20
55.5547
 11
60.2754
 21
55.5205
  0
LINE
  8
0
 10
60.2754
 20
55.5205
 11
60.3496
 21
55.4785
  0
LINE
  8
0
 10
60.3496
 20
55.4785
 11
60.4189
 21
55.4287
  0
LINE
  8
0
 10
60.4189
 20
55.4287
 11
60.4521
 21
55.4023
  0
LINE
  8
0
 10
60.4521
 20
55.4023
 11
60.5137
 21
55.3438
  0
LINE
  8
0
 10
60.5137
 20
55.3438
 11
60.5693
 21
55.2793
  0
LINE
  8
0
 10
60.5693
 20
55.2793
 11
60.5947
 21
55.2451
  0
LINE
  8
0
 10
60.5947
 20
55.2451
 11
60.6406
 21
55.1729
  0
LINE
  8
0
 10
60.6406
 20
55.1729
 11
60.6787
 21
55.0957
  0
LINE
  8
0
 10
60.6787
 20
55.0957
 11
60.6953
 21
55.0566
  0
LINE
  8
0
 10
60.6953
 20
55.0566
 11
60.71
 21
55.0156
  0
LINE
  8
0
 10
60.71
 20
55.0156
 11
60.7324
 21
54.9307
  0
LINE
  8
0
 10
60.7324
 20
54.9307
 11
60.7402
 21
54.8877
  0
LINE
  8
0
 10
60.7402
 20
54.8877
 11
60.7461
 21
54.8438
  0
LINE
  8
0
 10
60.7461
 20
54.8438
 11
60.751
 21
54.7539
  0
LINE
  8
0
 10
60.751
 20
54.7539
 11
60.751
 21
53.04
  0
LINE
  8
0
 10
60.751
 20
53.04
 11
60.7461
 21
52.9502
  0
LINE
  8
0
 10
60.7461
 20
52.9502
 11
60.7324
 21
52.8623
  0
LINE
  8
0
 10
60.7324
 20
52.8623
 11
60.71
 21
52.7783
  0
LINE
  8
0
 10
60.71
 20
52.7783
 11
60.6953
 21
52.7373
  0
LINE
  8
0
 10
60.6953
 20
52.7373
 11
60.6787
 21
52.6973
  0
LINE
  8
0
 10
60.6787
 20
52.6973
 11
60.6406
 21
52.6211
  0
LINE
  8
0
 10
60.6406
 20
52.6211
 11
60.5947
 21
52.5488
  0
LINE
  8
0
 10
60.5947
 20
52.5488
 11
60.5693
 21
52.5146
  0
LINE
  8
0
 10
60.5693
 20
52.5146
 11
60.542
 21
52.4814
  0
LINE
  8
0
 10
60.542
 20
52.4814
 11
60.5137
 21
52.4502
  0
LINE
  8
0
 10
60.5137
 20
52.4502
 11
60.4834
 21
52.4199
  0
LINE
  8
0
 10
60.4834
 20
52.4199
 11
60.4521
 21
52.3916
  0
LINE
  8
0
 10
60.4521
 20
52.3916
 11
60.4189
 21
52.3643
  0
LINE
  8
0
 10
60.4189
 20
52.3643
 11
60.3848
 21
52.3389
  0
LINE
  8
0
 10
60.3848
 20
52.3389
 11
60.3496
 21
52.3154
  0
LINE
  8
0
 10
60.3496
 20
52.3154
 11
60.2754
 21
52.2734
  0
LINE
  8
0
 10
60.2754
 20
52.2734
 11
60.2363
 21
52.2549
  0
LINE
  8
0
 10
60.2363
 20
52.2549
 11
60.1963
 21
52.2383
  0
LINE
  8
0
 10
60.1963
 20
52.2383
 11
60.1143
 21
52.2119
  0
LINE
  8
0
 10
60.1143
 20
52.2119
 11
60.0283
 21
52.1934
  0
LINE
  8
0
 10
60.0283
 20
52.1934
 11
59.9844
 21
52.1875
  0
LINE
  8
0
 10
59.9844
 20
52.1875
 11
59.8936
 21
52.1836
  0
LINE
  8
0
 10
59.8936
 20
52.1836
 11
53.8965
 21
52.1836
  0
LINE
  8
0
 10
53.8965
 20
52.1836
 11
53.8955
 21
49.5723
  0
LINE
  8
0
 10
53.8955
 20
49.5723
 11
53.8877
 21
49.4922
  0
LINE
  8
0
 10
53.8877
 20
49.4922
 11
53.8721
 21
49.4121
  0
LINE
  8
0
 10
53.8721
 20
49.4121
 11
53.8613
 21
49.3721
  0
LINE
  8
0
 10
53.8613
 20
49.3721
 11
53.834
 21
49.2939
  0
LINE
  8
0
 10
53.834
 20
49.2939
 11
53.7998
 21
49.2188
  0
LINE
  8
0
 10
53.7998
 20
49.2188
 11
53.7578
 21
49.1465
  0
LINE
  8
0
 10
53.7578
 20
49.1465
 11
53.71
 21
49.0771
  0
LINE
  8
0
 10
53.71
 20
49.0771
 11
53.6543
 21
49.0137
  0
LINE
  8
0
 10
53.6543
 20
49.0137
 11
53.624
 21
48.9834
  0
LINE
  8
0
 10
53.624
 20
48.9834
 11
53.5928
 21
48.9551
  0
LINE
  8
0
 10
53.5928
 20
48.9551
 11
53.5586
 21
48.9277
  0
LINE
  8
0
 10
53.5586
 20
48.9277
 11
53.4873
 21
48.8779
  0
LINE
  8
0
 10
53.4873
 20
48.8779
 11
53.4092
 21
48.8359
  0
LINE
  8
0
 10
53.4092
 20
48.8359
 11
53.3682
 21
48.8184
  0
LINE
  8
0
 10
53.3682
 20
48.8184
 11
53.2812
 21
48.7881
  0
LINE
  8
0
 10
53.2812
 20
48.7881
 11
53.1885
 21
48.7676
  0
LINE
  8
0
 10
53.1885
 20
48.7676
 11
53.1406
 21
48.7617
  0
LINE
  8
0
 10
53.1406
 20
48.7617
 11
53.0908
 21
48.7578
  0
LINE
  8
0
 10
53.0908
 20
48.7578
 11
53.04
 21
48.7559
  0
LINE
  8
0
 10
53.04
 20
48.7559
 11
52.9658
 21
48.7588
  0
LINE
  8
0
 10
85.7402
 20
63.7402
 11
66
 21
63.7402
  0
LINE
  8
0
 10
66
 20
63.7402
 11
66
 21
44
  0
LINE
  8
0
 10
66
 20
44
 11
85.7402
 21
44
  0
LINE
  8
0
 10
85.7402
 20
44
 11
85.7402
 21
63.7402
  0
LINE
  8
0
 10
71.1699
 20
50.1582
 11
70.415
 21
51.0176
  0
LINE
  8
0
 10
70.415
 20
51.0176
 11
70.2021
 21
51.2656
  0
LINE
  8
0
 10
70.2021
 20
51.2656
 11
70.1445
 21
51.335
  0
LINE
  8
0
 10
70.1445
 20
51.335
 11
70.0381
 21
51.4736
  0
LINE
  8
0
 10
70.0381
 20
51.4736
 11
69.9883
 21
51.5439
  0
LINE
  8
0
 10
69.9883
 20
51.5439
 11
69.9414
 21
51.6143
  0
LINE
  8
0
 10
69.9414
 20
51.6143
 11
69.8535
 21
51.7559
  0
LINE
  8
0
 10
69.8535
 20
51.7559
 11
69.7744
 21
51.8955
  0
LINE
  8
0
 10
69.7744
 20
51.8955
 11
69.7051
 21
52.0352
  0
LINE
  8
0
 10
69.7051
 20
52.0352
 11
69.6729
 21
52.1035
  0
LINE
  8
0
 10
69.6729
 20
52.1035
 11
69.6162
 21
52.2393
  0
LINE
  8
0
 10
69.6162
 20
52.2393
 11
69.5674
 21
52.3711
  0
LINE
  8
0
 10
69.5674
 20
52.3711
 11
69.5264
 21
52.499
  0
LINE
  8
0
 10
69.5264
 20
52.499
 11
69.4932
 21
52.6211
  0
LINE
  8
0
 10
69.4932
 20
52.6211
 11
69.457
 21
52.7939
  0
LINE
  8
0
 10
69.457
 20
52.7939
 11
69.4424
 21
52.9014
  0
LINE
  8
0
 10
69.4424
 20
52.9014
 11
69.4346
 21
53
  0
LINE
  8
0
 10
69.4346
 20
53
 11
69.4346
 21
53.0898
  0
LINE
  8
0
 10
69.4346
 20
53.0898
 11
69.4395
 21
53.1699
  0
LINE
  8
0
 10
69.4395
 20
53.1699
 11
69.4463
 21
53.208
  0
LINE
  8
0
 10
69.4463
 20
53.208
 11
69.4551
 21
53.2451
  0
LINE
  8
0
 10
69.4551
 20
53.2451
 11
69.4668
 21
53.2822
  0
LINE
  8
0
 10
69.4668
 20
53.2822
 11
69.4814
 21
53.3184
  0
LINE
  8
0
 10
69.4814
 20
53.3184
 11
69.499
 21
53.3545
  0
LINE
  8
0
 10
69.499
 20
53.3545
 11
69.5186
 21
53.3896
  0
LINE
  8
0
 10
69.5186
 20
53.3896
 11
69.541
 21
53.4248
  0
LINE
  8
0
 10
69.541
 20
53.4248
 11
69.5654
 21
53.459
  0
LINE
  8
0
 10
69.5654
 20
53.459
 11
69.5918
 21
53.4922
  0
LINE
  8
0
 10
69.5918
 20
53.4922
 11
69.6514
 21
53.5576
  0
LINE
  8
0
 10
69.6514
 20
53.5576
 11
69.7168
 21
53.6182
  0
LINE
  8
0
 10
69.7168
 20
53.6182
 11
69.7881
 21
53.6758
  0
LINE
  8
0
 10
69.7881
 20
53.6758
 11
69.8633
 21
53.7295
  0
LINE
  8
0
 10
69.8633
 20
53.7295
 11
69.9434
 21
53.7783
  0
LINE
  8
0
 10
69.9434
 20
53.7783
 11
70.0254
 21
53.8223
  0
LINE
  8
0
 10
70.0254
 20
53.8223
 11
70.1084
 21
53.8604
  0
LINE
  8
0
 10
70.1084
 20
53.8604
 11
70.1914
 21
53.8926
  0
LINE
  8
0
 10
70.1914
 20
53.8926
 11
70.2744
 21
53.9189
  0
LINE
  8
0
 10
70.2744
 20
53.9189
 11
70.3145
 21
53.9297
  0
LINE
  8
0
 10
70.3145
 20
53.9297
 11
70.3945
 21
53.9453
  0
LINE
  8
0
 10
70.3945
 20
53.9453
 11
70.4326
 21
53.9512
  0
LINE
  8
0
 10
70.4326
 20
53.9512
 11
70.4746
 21
53.9541
  0
LINE
  8
0
 10
70.4746
 20
53.9541
 11
70.5781
 21
53.9482
  0
LINE
  8
0
 10
70.5781
 20
53.9482
 11
70.708
 21
53.9287
  0
LINE
  8
0
 10
70.708
 20
53.9287
 11
70.8584
 21
53.8975
  0
LINE
  8
0
 10
70.8584
 20
53.8975
 11
71.0264
 21
53.8555
  0
LINE
  8
0
 10
71.0264
 20
53.8555
 11
71.3066
 21
53.7764
  0
LINE
  8
0
 10
71.3066
 20
53.7764
 11
71.5059
 21
53.7148
  0
LINE
  8
0
 10
71.5059
 20
53.7148
 11
71.8154
 21
53.6113
  0
LINE
  8
0
 10
71.8154
 20
53.6113
 11
72.0234
 21
53.5381
  0
LINE
  8
0
 10
72.0234
 20
53.5381
 11
72.4307
 21
53.3857
  0
LINE
  8
0
 10
72.4307
 20
53.3857
 11
72.623
 21
53.3105
  0
LINE
  8
0
 10
72.623
 20
53.3105
 11
72.8018
 21
53.2373
  0
LINE
  8
0
 10
72.8018
 20
53.2373
 11
73.041
 21
53.1338
  0
LINE
  8
0
 10
73.041
 20
53.1338
 11
73.4141
 21
52.958
  0
LINE
  8
0
 10
73.4141
 20
52.958
 11
78.3975
 21
50.5078
  0
LINE
  8
0
 10
78.3975
 20
50.5078
 11
73.1475
 21
54.8193
  0
LINE
  8
0
 10
73.1475
 20
54.8193
 11
70.7656
 21
56.7881
  0
LINE
  8
0
 10
70.7656
 20
56.7881
 11
70.4492
 21
57.0537
  0
LINE
  8
0
 10
70.4492
 20
57.0537
 11
70.2939
 21
57.1875
  0
LINE
  8
0
 10
70.2939
 20
57.1875
 11
69.8965
 21
57.5635
  0
LINE
  8
0
 10
69.8965
 20
57.5635
 11
69.8086
 21
57.6504
  0
LINE
  8
0
 10
69.8086
 20
57.6504
 11
69.5918
 21
57.876
  0
LINE
  8
0
 10
69.5918
 20
57.876
 11
69.4697
 21
58.0146
  0
LINE
  8
0
 10
69.4697
 20
58.0146
 11
69.3574
 21
58.1514
  0
LINE
  8
0
 10
69.3574
 20
58.1514
 11
69.291
 21
58.2412
  0
LINE
  8
0
 10
69.291
 20
58.2412
 11
69.2314
 21
58.3291
  0
LINE
  8
0
 10
69.2314
 20
58.3291
 11
69.1807
 21
58.415
  0
LINE
  8
0
 10
69.1807
 20
58.415
 11
69.1396
 21
58.4961
  0
LINE
  8
0
 10
69.1396
 20
58.4961
 11
69.1221
 21
58.5371
  0
LINE
  8
0
 10
69.1221
 20
58.5371
 11
69.0938
 21
58.6201
  0
LINE
  8
0
 10
69.0938
 20
58.6201
 11
69.0811
 21
58.6631
  0
LINE
  8
0
 10
69.0811
 20
58.6631
 11
69.0547
 21
58.7949
  0
LINE
  8
0
 10
69.0547
 20
58.7949
 11
69.0449
 21
58.8848
  0
LINE
  8
0
 10
69.0449
 20
58.8848
 11
69.04
 21
58.9746
  0
LINE
  8
0
 10
69.04
 20
58.9746
 11
69.041
 21
59.0635
  0
LINE
  8
0
 10
69.041
 20
59.0635
 11
69.0479
 21
59.1523
  0
LINE
  8
0
 10
69.0479
 20
59.1523
 11
69.0586
 21
59.2383
  0
LINE
  8
0
 10
69.0586
 20
59.2383
 11
69.0752
 21
59.3213
  0
LINE
  8
0
 10
69.0752
 20
59.3213
 11
69.0957
 21
59.4004
  0
LINE
  8
0
 10
69.0957
 20
59.4004
 11
69.1201
 21
59.4756
  0
LINE
  8
0
 10
69.1201
 20
59.4756
 11
69.1484
 21
59.5449
  0
LINE
  8
0
 10
69.1484
 20
59.5449
 11
69.1807
 21
59.6084
  0
LINE
  8
0
 10
69.1807
 20
59.6084
 11
69.2158
 21
59.6641
  0
LINE
  8
0
 10
69.2158
 20
59.6641
 11
69.2549
 21
59.7129
  0
LINE
  8
0
 10
69.2549
 20
59.7129
 11
69.3223
 21
59.7783
  0
LINE
  8
0
 10
69.3223
 20
59.7783
 11
69.375
 21
59.8213
  0
LINE
  8
0
 10
69.375
 20
59.8213
 11
69.4326
 21
59.8613
  0
LINE
  8
0
 10
69.4326
 20
59.8613
 11
69.4639
 21
59.8809
  0
LINE
  8
0
 10
69.4639
 20
59.8809
 11
69.5303
 21
59.918
  0
LINE
  8
0
 10
69.5303
 20
59.918
 11
69.6025
 21
59.9521
  0
LINE
  8
0
 10
69.6025
 20
59.9521
 11
69.6787
 21
59.9824
  0
LINE
  8
0
 10
69.6787
 20
59.9824
 11
69.7607
 21
60.0088
  0
LINE
  8
0
 10
69.7607
 20
60.0088
 11
69.8467
 21
60.0312
  0
LINE
  8
0
 10
69.8467
 20
60.0312
 11
69.9375
 21
60.0488
  0
LINE
  8
0
 10
69.9375
 20
60.0488
 11
70.0312
 21
60.0605
  0
LINE
  8
0
 10
70.0312
 20
60.0605
 11
70.0801
 21
60.0645
  0
LINE
  8
0
 10
70.0801
 20
60.0645
 11
70.1807
 21
60.0674
  0
LINE
  8
0
 10
70.1807
 20
60.0674
 11
70.2842
 21
60.0635
  0
LINE
  8
0
 10
70.2842
 20
60.0635
 11
70.3916
 21
60.0527
  0
LINE
  8
0
 10
70.3916
 20
60.0527
 11
70.502
 21
60.0342
  0
LINE
  8
0
 10
70.502
 20
60.0342
 11
70.7061
 21
59.9863
  0
LINE
  8
0
 10
70.7061
 20
59.9863
 11
71.0723
 21
59.8838
  0
LINE
  8
0
 10
71.0723
 20
59.8838
 11
71.5029
 21
59.752
  0
LINE
  8
0
 10
71.5029
 20
59.752
 11
72.1758
 21
59.5361
  0
LINE
  8
0
 10
72.1758
 20
59.5361
 11
73.0879
 21
59.2305
  0
LINE
  8
0
 10
73.0879
 20
59.2305
 11
79.3213
 21
56.9121
  0
LINE
  8
0
 10
79.3213
 20
56.9121
 11
76.1123
 21
59.4609
  0
LINE
  8
0
 10
76.1123
 20
59.4609
 11
77.2432
 21
60.7002
  0
LINE
  8
0
 10
77.2432
 20
60.7002
 11
79.9375
 21
58.4814
  0
LINE
  8
0
 10
79.9375
 20
58.4814
 11
81.0576
 21
57.5449
  0
LINE
  8
0
 10
81.0576
 20
57.5449
 11
81.3721
 21
57.2754
  0
LINE
  8
0
 10
81.3721
 20
57.2754
 11
81.751
 21
56.9355
  0
LINE
  8
0
 10
81.751
 20
56.9355
 11
82.0195
 21
56.6826
  0
LINE
  8
0
 10
82.0195
 20
56.6826
 11
82.1611
 21
56.54
  0
LINE
  8
0
 10
82.1611
 20
56.54
 11
82.2881
 21
56.4014
  0
LINE
  8
0
 10
82.2881
 20
56.4014
 11
82.3652
 21
56.3115
  0
LINE
  8
0
 10
82.3652
 20
56.3115
 11
82.4346
 21
56.2236
  0
LINE
  8
0
 10
82.4346
 20
56.2236
 11
82.4971
 21
56.1357
  0
LINE
  8
0
 10
82.4971
 20
56.1357
 11
82.5537
 21
56.0488
  0
LINE
  8
0
 10
82.5537
 20
56.0488
 11
82.6025
 21
55.9609
  0
LINE
  8
0
 10
82.6025
 20
55.9609
 11
82.624
 21
55.918
  0
LINE
  8
0
 10
82.624
 20
55.918
 11
82.6621
 21
55.8301
  0
LINE
  8
0
 10
82.6621
 20
55.8301
 11
82.6924
 21
55.7422
  0
LINE
  8
0
 10
82.6924
 20
55.7422
 11
82.7168
 21
55.6523
  0
LINE
  8
0
 10
82.7168
 20
55.6523
 11
82.7354
 21
55.5615
  0
LINE
  8
0
 10
82.7354
 20
55.5615
 11
82.7471
 21
55.4697
  0
LINE
  8
0
 10
82.7471
 20
55.4697
 11
82.7529
 21
55.3789
  0
LINE
  8
0
 10
82.7529
 20
55.3789
 11
82.7539
 21
55.333
  0
LINE
  8
0
 10
82.7539
 20
55.333
 11
82.749
 21
55.2422
  0
LINE
  8
0
 10
82.749
 20
55.2422
 11
82.7363
 21
55.1533
  0
LINE
  8
0
 10
82.7363
 20
55.1533
 11
82.7275
 21
55.1094
  0
LINE
  8
0
 10
82.7275
 20
55.1094
 11
82.7021
 21
55.0234
  0
LINE
  8
0
 10
82.7021
 20
55.0234
 11
82.6689
 21
54.9395
  0
LINE
  8
0
 10
82.6689
 20
54.9395
 11
82.626
 21
54.8594
  0
LINE
  8
0
 10
82.626
 20
54.8594
 11
82.6016
 21
54.8213
  0
LINE
  8
0
 10
82.6016
 20
54.8213
 11
82.5742
 21
54.7832
  0
LINE
  8
0
 10
82.5742
 20
54.7832
 11
82.5117
 21
54.7109
  0
LINE
  8
0
 10
82.5117
 20
54.7109
 11
82.4766
 21
54.6768
  0
LINE
  8
0
 10
82.4766
 20
54.6768
 11
82.4385
 21
54.6445
  0
LINE
  8
0
 10
82.4385
 20
54.6445
 11
82.3545
 21
54.583
  0
LINE
  8
0
 10
82.3545
 20
54.583
 11
82.3086
 21
54.5547
  0
LINE
  8
0
 10
82.3086
 20
54.5547
 11
82.2588
 21
54.5273
  0
LINE
  8
0
 10
82.2588
 20
54.5273
 11
82.207
 21
54.502
  0
LINE
  8
0
 10
82.207
 20
54.502
 11
82.1514
 21
54.4795
  0
LINE
  8
0
 10
82.1514
 20
54.4795
 11
82.0938
 21
54.4609
  0
LINE
  8
0
 10
82.0938
 20
54.4609
 11
82.0322
 21
54.4463
  0
LINE
  8
0
 10
82.0322
 20
54.4463
 11
81.9688
 21
54.4346
  0
LINE
  8
0
 10
81.9688
 20
54.4346
 11
81.9023
 21
54.4268
  0
LINE
  8
0
 10
81.9023
 20
54.4268
 11
81.833
 21
54.4219
  0
LINE
  8
0
 10
81.833
 20
54.4219
 11
81.7627
 21
54.4199
  0
LINE
  8
0
 10
81.7627
 20
54.4199
 11
81.6162
 21
54.4238
  0
LINE
  8
0
 10
81.6162
 20
54.4238
 11
81.541
 21
54.4297
  0
LINE
  8
0
 10
81.541
 20
54.4297
 11
81.3867
 21
54.4482
  0
LINE
  8
0
 10
81.3867
 20
54.4482
 11
81.2295
 21
54.4746
  0
LINE
  8
0
 10
81.2295
 20
54.4746
 11
81.0713
 21
54.5078
  0
LINE
  8
0
 10
81.0713
 20
54.5078
 11
80.834
 21
54.5664
  0
LINE
  8
0
 10
80.834
 20
54.5664
 11
80.5303
 21
54.6543
  0
LINE
  8
0
 10
80.5303
 20
54.6543
 11
80.0137
 21
54.8232
  0
LINE
  8
0
 10
80.0137
 20
54.8232
 11
79.8271
 21
54.8896
  0
LINE
  8
0
 10
79.8271
 20
54.8896
 11
79.2832
 21
55.0918
  0
LINE
  8
0
 10
79.2832
 20
55.0918
 11
74.0225
 21
57.0977
  0
LINE
  8
0
 10
74.0225
 20
57.0977
 11
72.2334
 21
57.7852
  0
LINE
  8
0
 10
72.2334
 20
57.7852
 11
79.8125
 21
51.5566
  0
LINE
  8
0
 10
79.8125
 20
51.5566
 11
80.7373
 21
50.79
  0
LINE
  8
0
 10
80.7373
 20
50.79
 11
80.9873
 21
50.5693
  0
LINE
  8
0
 10
80.9873
 20
50.5693
 11
81.4395
 21
50.1523
  0
LINE
  8
0
 10
81.4395
 20
50.1523
 11
81.7988
 21
49.8066
  0
LINE
  8
0
 10
81.7988
 20
49.8066
 11
82.0059
 21
49.5996
  0
LINE
  8
0
 10
82.0059
 20
49.5996
 11
82.1953
 21
49.4014
  0
LINE
  8
0
 10
82.1953
 20
49.4014
 11
82.3066
 21
49.2783
  0
LINE
  8
0
 10
82.3066
 20
49.2783
 11
82.4023
 21
49.166
  0
LINE
  8
0
 10
82.4023
 20
49.166
 11
82.4795
 21
49.0664
  0
LINE
  8
0
 10
82.4795
 20
49.0664
 11
82.5352
 21
48.9824
  0
LINE
  8
0
 10
82.5352
 20
48.9824
 11
82.5537
 21
48.9473
  0
LINE
  8
0
 10
82.5537
 20
48.9473
 11
82.583
 21
48.8789
  0
LINE
  8
0
 10
82.583
 20
48.8789
 11
82.6221
 21
48.7705
  0
LINE
  8
0
 10
82.6221
 20
48.7705
 11
82.6426
 21
48.6953
  0
LINE
  8
0
 10
82.6426
 20
48.6953
 11
82.6592
 21
48.6191
  0
LINE
  8
0
 10
82.6592
 20
48.6191
 11
82.6719
 21
48.54
  0
LINE
  8
0
 10
82.6719
 20
48.54
 11
82.6807
 21
48.4209
  0
LINE
  8
0
 10
82.6807
 20
48.4209
 11
82.6777
 21
48.3018
  0
LINE
  8
0
 10
82.6777
 20
48.3018
 11
82.668
 21
48.2217
  0
LINE
  8
0
 10
82.668
 20
48.2217
 11
82.6514
 21
48.1426
  0
LINE
  8
0
 10
82.6514
 20
48.1426
 11
82.6289
 21
48.0654
  0
LINE
  8
0
 10
82.6289
 20
48.0654
 11
82.5986
 21
47.9893
  0
LINE
  8
0
 10
82.5986
 20
47.9893
 11
82.5605
 21
47.915
  0
LINE
  8
0
 10
82.5605
 20
47.915
 11
82.5391
 21
47.8789
  0
LINE
  8
0
 10
82.5391
 20
47.8789
 11
82.5156
 21
47.8438
  0
LINE
  8
0
 10
82.5156
 20
47.8438
 11
82.4609
 21
47.7754
  0
LINE
  8
0
 10
82.4609
 20
47.7754
 11
82.4307
 21
47.7441
  0
LINE
  8
0
 10
82.4307
 20
47.7441
 11
82.3965
 21
47.7148
  0
LINE
  8
0
 10
82.3965
 20
47.7148
 11
82.3594
 21
47.6875
  0
LINE
  8
0
 10
82.3594
 20
47.6875
 11
82.3193
 21
47.6631
  0
LINE
  8
0
 10
82.3193
 20
47.6631
 11
82.2773
 21
47.6416
  0
LINE
  8
0
 10
82.2773
 20
47.6416
 11
82.2314
 21
47.6221
  0
LINE
  8
0
 10
82.2314
 20
47.6221
 11
82.1846
 21
47.6045
  0
LINE
  8
0
 10
82.1846
 20
47.6045
 11
82.1348
 21
47.5889
  0
LINE
  8
0
 10
82.1348
 20
47.5889
 11
82.083
 21
47.5752
  0
LINE
  8
0
 10
82.083
 20
47.5752
 11
81.9756
 21
47.5547
  0
LINE
  8
0
 10
81.9756
 20
47.5547
 11
81.8633
 21
47.54
  0
LINE
  8
0
 10
81.8633
 20
47.54
 11
81.7461
 21
47.5332
  0
LINE
  8
0
 10
81.7461
 20
47.5332
 11
81.6279
 21
47.5303
  0
LINE
  8
0
 10
81.6279
 20
47.5303
 11
81.5078
 21
47.5332
  0
LINE
  8
0
 10
81.5078
 20
47.5332
 11
81.332
 21
47.5459
  0
LINE
  8
0
 10
81.332
 20
47.5459
 11
81.1621
 21
47.5645
  0
LINE
  8
0
 10
81.1621
 20
47.5645
 11
80.958
 21
47.5977
  0
LINE
  8
0
 10
80.958
 20
47.5977
 11
80.8682
 21
47.6152
  0
LINE
  8
0
 10
80.8682
 20
47.6152
 11
80.8223
 21
47.626
  0
LINE
  8
0
 10
80.8223
 20
47.626
 11
80.709
 21
47.6611
  0
LINE
  8
0
 10
80.709
 20
47.6611
 11
80.5723
 21
47.71
  0
LINE
  8
0
 10
80.5723
 20
47.71
 11
80.334
 21
47.8057
  0
LINE
  8
0
 10
80.334
 20
47.8057
 11
79.9756
 21
47.9609
  0
LINE
  8
0
 10
79.9756
 20
47.9609
 11
79.3467
 21
48.252
  0
LINE
  8
0
 10
79.3467
 20
48.252
 11
78.7676
 21
48.5332
  0
LINE
  8
0
 10
78.7676
 20
48.5332
 11
72.0713
 21
51.6094
  0
LINE
  8
0
 10
72.0713
 20
51.6094
 11
75.2578
 21
48.0508
  0
LINE
  8
0
 10
75.2578
 20
48.0508
 11
73.8955
 21
47.0869
  0
LINE
  8
0
 10
73.8955
 20
47.0869
 11
71.1699
 21
50.1582
  0
LINE
  8
0
 10
85.7402
 20
41.7402
 11
66
 21
41.7402
  0
LINE
  8
0
 10
66
 20
41.7402
 11
66
 21
22
  0
LINE
  8
0
 10
66
 20
22
 11
85.7402
 21
22
  0
LINE
  8
0
 10
85.7402
 20
22
 11
85.7402
 21
41.7402
  0
LINE
  8
0
 10
71.1699
 20
28.1582
 11
70.415
 21
29.0176
  0
LINE
  8
0
 10
70.415
 20
29.0176
 11
70.2021
 21
29.2656
  0
LINE
  8
0
 10
70.2021
 20
29.2656
 11
70.1445
 21
29.335
  0
LINE
  8
0
 10
70.1445
 20
29.335
 11
70.0381
 21
29.4736
  0
LINE
  8
0
 10
70.0381
 20
29.4736
 11
69.9883
 21
29.5439
  0
LINE
  8
0
 10
69.9883
 20
29.5439
 11
69.9414
 21
29.6143
  0
LINE
  8
0
 10
69.9414
 20
29.6143
 11
69.8535
 21
29.7559
  0
LINE
  8
0
 10
69.8535
 20
29.7559
 11
69.7744
 21
29.8955
  0
LINE
  8
0
 10
69.7744
 20
29.8955
 11
69.7051
 21
30.0352
  0
LINE
  8
0
 10
69.7051
 20
30.0352
 11
69.6729
 21
30.1035
  0
LINE
  8
0
 10
69.6729
 20
30.1035
 11
69.6162
 21
30.2393
  0
LINE
  8
0
 10
69.6162
 20
30.2393
 11
69.5674
 21
30.3711
  0
LINE
  8
0
 10
69.5674
 20
30.3711
 11
69.5264
 21
30.499
  0
LINE
  8
0
 10
69.5264
 20
30.499
 11
69.4932
 21
30.6211
  0
LINE
  8
0
 10
69.4932
 20
30.6211
 11
69.457
 21
30.7939
  0
LINE
  8
0
 10
69.457
 20
30.7939
 11
69.4424
 21
30.9014
  0
LINE
  8
0
 10
69.4424
 20
30.9014
 11
69.4346
 21
31
  0
LINE
  8
0
 10
69.4346
 20
31
 11
69.4346
 21
31.0898
  0
LINE
  8
0
 10
69.4346
 20
31.0898
 11
69.4395
 21
31.1699
  0
LINE
  8
0
 10
69.4395
 20
31.1699
 11
69.4463
 21
31.208
  0
LINE
  8
0
 10
69.4463
 20
31.208
 11
69.4551
 21
31.2451
  0
LINE
  8
0
 10
69.4551
 20
31.2451
 11
69.4668
 21
31.2822
  0
LINE
  8
0
 10
69.4668
 20
31.2822
 11
69.4814
 21
31.3184
  0
LINE
  8
0
 10
69.4814
 20
31.3184
 11
69.499
 21
31.3545
  0
LINE
  8
0
 10
69.499
 20
31.3545
 11
69.5186
 21
31.3896
  0
LINE
  8
0
 10
69.5186
 20
31.3896
 11
69.541
 21
31.4248
  0
LINE
  8
0
 10
69.541
 20
31.4248
 11
69.5654
 21
31.459
  0
LINE
  8
0
 10
69.5654
 20
31.459
 11
69.5918
 21
31.4922
  0
LINE
  8
0
 10
69.5918
 20
31.4922
 11
69.6514
 21
31.5576
  0
LINE
  8
0
 10
69.6514
 20
31.5576
 11
69.7168
 21
31.6182
  0
LINE
  8
0
 10
69.7168
 20
31.6182
 11
69.7881
 21
31.6758
  0
LINE
  8
0
 10
69.7881
 20
31.6758
 11
69.8633
 21
31.7295
  0
LINE
  8
0
 10
69.8633
 20
31.7295
 11
69.9434
 21
31.7783
  0
LINE
  8
0
 10
69.9434
 20
31.7783
 11
70.0254
 21
31.8223
  0
LINE
  8
0
 10
70.0254
 20
31.8223
 11
70.1084
 21
31.8604
  0
LINE
  8
0
 10
70.1084
 20
31.8604
 11
70.1914
 21
31.8926
  0
LINE
  8
0
 10
70.1914
 20
31.8926
 11
70.2744
 21
31.9189
  0
LINE
  8
0
 10
70.2744
 20
31.9189
 11
70.3145
 21
31.9297
  0
LINE
  8
0
 10
70.3145
 20
31.9297
 11
70.3945
 21
31.9453
  0
LINE
  8
0
 10
70.3945
 20
31.9453
 11
70.4326
 21
31.9512
  0
LINE
  8
0
 10
70.4326
 20
31.9512
 11
70.4746
 21
31.9541
  0
LINE
  8
0
 10
70.4746
 20
31.9541
 11
70.5781
 21
31.9482
  0
LINE
  8
0
 10
70.5781
 20
31.9482
 11
70.708
 21
31.9287
  0
LINE
  8
0
 10
70.708
 20
31.9287
 11
70.8584
 21
31.8975
  0
LINE
  8
0
 10
70.8584
 20
31.8975
 11
71.0264
 21
31.8555
  0
LINE
  8
0
 10
71.0264
 20
31.8555
 11
71.3066
 21
31.7764
  0
LINE
  8
0
 10
71.3066
 20
31.7764
 11
71.5059
 21
31.7148
  0
LINE
  8
0
 10
71.5059
 20
31.7148
 11
71.8154
 21
31.6113
  0
LINE
  8
0
 10
71.8154
 20
31.6113
 11
72.0234
 21
31.5381
  0
LINE
  8
0
 10
72.0234
 20
31.5381
 11
72.4307
 21
31.3857
  0
LINE
  8
0
 10
72.4307
 20
31.3857
 11
72.623
 21
31.3105
  0
LINE
  8
0
 10
72.623
 20
31.3105
 11
72.8018
 21
31.2373
  0
LINE
  8
0
 10
72.8018
 20
31.2373
 11
73.041
 21
31.1338
  0
LINE
  8
0
 10
73.041
 20
31.1338
 11
73.4141
 21
30.958
  0
LINE
  8
0
 10
73.4141
 20
30.958
 11
78.3975
 21
28.5078
  0
LINE
  8
0
 10
78.3975
 20
28.5078
 11
73.1475
 21
32.8193
  0
LINE
  8
0
 10
73.1475
 20
32.8193
 11
70.7656
 21
34.7881
  0
LINE
  8
0
 10
70.7656
 20
34.7881
 11
70.4492
 21
35.0537
  0
LINE
  8
0
 10
70.4492
 20
35.0537
 11
70.2939
 21
35.1875
  0
LINE
  8
0
 10
70.2939
 20
35.1875
 11
69.8965
 21
35.5635
  0
LINE
  8
0
 10
69.8965
 20
35.5635
 11
69.8086
 21
35.6504
  0
LINE
  8
0
 10
69.8086
 20
35.6504
 11
69.5918
 21
35.876
  0
LINE
  8
0
 10
69.5918
 20
35.876
 11
69.4697
 21
36.0146
  0
LINE
  8
0
 10
69.4697
 20
36.0146
 11
69.3574
 21
36.1514
  0
LINE
  8
0
 10
69.3574
 20
36.1514
 11
69.291
 21
36.2412
  0
LINE
  8
0
 10
69.291
 20
36.2412
 11
69.2314
 21
36.3291
  0
LINE
  8
0
 10
69.2314
 20
36.3291
 11
69.1807
 21
36.415
  0
LINE
  8
0
 10
69.1807
 20
36.415
 11
69.1396
 21
36.4961
  0
LINE
  8
0
 10
69.1396
 20
36.4961
 11
69.1221
 21
36.5371
  0
LINE
  8
0
 10
69.1221
 20
36.5371
 11
69.0938
 21
36.6201
  0
LINE
  8
0
 10
69.0938
 20
36.6201
 11
69.0811
 21
36.6631
  0
LINE
  8
0
 10
69.0811
 20
36.6631
 11
69.0547
 21
36.7949
  0
LINE
  8
0
 10
69.0547
 20
36.7949
 11
69.0449
 21
36.8848
  0
LINE
  8
0
 10
69.0449
 20
36.8848
 11
69.04
 21
36.9746
  0
LINE
  8
0
 10
69.04
 20
36.9746
 11
69.041
 21
37.0635
  0
LINE
  8
0
 10
69.041
 20
37.0635
 11
69.0479
 21
37.1523
  0
LINE
  8
0
 10
69.0479
 20
37.1523
 11
69.0586
 21
37.2383
  0
LINE
  8
0
 10
69.0586
 20
37.2383
 11
69.0752
 21
37.3213
  0
LINE
  8
0
 10
69.0752
 20
37.3213
 11
69.0957
 21
37.4004
  0
LINE
  8
0
 10
69.0957
 20
37.4004
 11
69.1201
 21
37.4756
  0
LINE
  8
0
 10
69.1201
 20
37.4756
 11
69.1484
 21
37.5449
  0
LINE
  8
0
 10
69.1484
 20
37.5449
 11
69.1807
 21
37.6084
  0
LINE
  8
0
 10
69.1807
 20
37.6084
 11
69.2158
 21
37.6641
  0
LINE
  8
0
 10
69.2158
 20
37.6641
 11
69.2549
 21
37.7129
  0
LINE
  8
0
 10
69.2549
 20
37.7129
 11
69.3223
 21
37.7783
  0
LINE
  8
0
 10
69.3223
 20
37.7783
 11
69.375
 21
37.8213
  0
LINE
  8
0
 10
69.375
 20
37.8213
 11
69.4326
 21
37.8613
  0
LINE
  8
0
 10
69.4326
 20
37.8613
 11
69.4639
 21
37.8809
  0
LINE
  8
0
 10
69.4639
 20
37.8809
 11
69.5303
 21
37.918
  0
LINE
  8
0
 10
69.5303
 20
37.918
 11
69.6025
 21
37.9521
  0
LINE
  8
0
 10
69.6025
 20
37.9521
 11
69.6787
 21
37.9824
  0
LINE
  8
0
 10
69.6787
 20
37.9824
 11
69.7607
 21
38.0088
  0
LINE
  8
0
 10
69.7607
 20
38.0088
 11
69.8467
 21
38.0312
  0
LINE
  8
0
 10
69.8467
 20
38.0312
 11
69.9375
 21
38.0488
  0
LINE
  8
0
 10
69.9375
 20
38.0488
 11
70.0312
 21
38.0605
  0
LINE
  8
0
 10
70.0312
 20
38.0605
 11
70.0801
 21
38.0645
  0
LINE
  8
0
 10
70.0801
 20
38.0645
 11
70.1807
 21
38.0674
  0
LINE
  8
0
 10
70.1807
 20
38.0674
 11
70.2842
 21
38.0635
  0
LINE
  8
0
 10
70.2842
 20
38.0635
 11
70.3916
 21
38.0527
  0
LINE
  8
0
 10
70.3916
 20
38.0527
 11
70.502
 21
38.0342
  0
LINE
  8
0
 10
70.502
 20
38.0342
 11
70.7061
 21
37.9863
  0
LINE
  8
0
 10
70.7061
 20
37.9863
 11
71.0723
 21
37.8838
  0
LINE
  8
0
 10
71.0723
 20
37.8838
 11
71.5029
 21
37.752
  0
LINE
  8
0
 10
71.5029
 20
37.752
 11
72.1758
 21
37.5361
  0
LINE
  8
0
 10
72.1758
 20
37.5361
 11
73.0879
 21
37.2305
  0
LINE
  8
0
 10
73.0879
 20
37.2305
 11
79.3213
 21
34.9121
  0
LINE
  8
0
 10
79.3213
 20
34.9121
 11
76.1123
 21
37.4609
  0
LINE
  8
0
 10
76.1123
 20
37.4609
 11
77.2432
 21
38.7002
  0
LINE
  8
0
 10
77.2432
 20
38.7002
 11
79.9375
 21
36.4814
  0
LINE
  8
0
 10
79.9375
 20
36.4814
 11
81.0576
 21
35.5449
  0
LINE
  8
0
 10
81.0576
 20
35.5449
 11
81.3721
 21
35.2754
  0
LINE
  8
0
 10
81.3721
 20
35.2754
 11
81.751
 21
34.9355
  0
LINE
  8
0
 10
81.751
 20
34.9355
 11
82.0195
 21
34.6826
  0
LINE
  8
0
 10
82.0195
 20
34.6826
 11
82.1611
 21
34.54
  0
LINE
  8
0
 10
82.1611
 20
34.54
 11
82.2881
 21
34.4014
  0
LINE
  8
0
 10
82.2881
 20
34.4014
 11
82.3652
 21
34.3115
  0
LINE
  8
0
 10
82.3652
 20
34.3115
 11
82.4346
 21
34.2236
  0
LINE
  8
0
 10
82.4346
 20
34.2236
 11
82.4971
 21
34.1357
  0
LINE
  8
0
 10
82.4971
 20
34.1357
 11
82.5537
 21
34.0488
  0
LINE
  8
0
 10
82.5537
 20
34.0488
 11
82.6025
 21
33.9609
  0
LINE
  8
0
 10
82.6025
 20
33.9609
 11
82.624
 21
33.918
  0
LINE
  8
0
 10
82.624
 20
33.918
 11
82.6621
 21
33.8301
  0
LINE
  8
0
 10
82.6621
 20
33.8301
 11
82.6924
 21
33.7422
  0
LINE
  8
0
 10
82.6924
 20
33.7422
 11
82.7168
 21
33.6523
  0
LINE
  8
0
 10
82.7168
 20
33.6523
 11
82.7354
 21
33.5615
  0
LINE
  8
0
 10
82.7354
 20
33.5615
 11
82.7471
 21
33.4697
  0
LINE
  8
0
 10
82.7471
 20
33.4697
 11
82.7529
 21
33.3789
  0
LINE
  8
0
 10
82.7529
 20
33.3789
 11
82.7539
 21
33.333
  0
LINE
  8
0
 10
82.7539
 20
33.333
 11
82.749
 21
33.2422
  0
LINE
  8
0
 10
82.749
 20
33.2422
 11
82.7363
 21
33.1533
  0
LINE
  8
0
 10
82.7363
 20
33.1533
 11
82.7275
 21
33.1094
  0
LINE
  8
0
 10
82.7275
 20
33.1094
 11
82.7021
 21
33.0234
  0
LINE
  8
0
 10
82.7021
 20
33.0234
 11
82.6689
 21
32.9395
  0
LINE
  8
0
 10
82.6689
 20
32.9395
 11
82.626
 21
32.8594
  0
LINE
  8
0
 10
82.626
 20
32.8594
 11
82.6016
 21
32.8213
  0
LINE
  8
0
 10
82.6016
 20
32.8213
 11
82.5742
 21
32.7832
  0
LINE
  8
0
 10
82.5742
 20
32.7832
 11
82.5117
 21
32.7109
  0
LINE
  8
0
 10
82.5117
 20
32.7109
 11
82.4766
 21
32.6768
  0
LINE
  8
0
 10
82.4766
 20
32.6768
 11
82.4385
 21
32.6445
  0
LINE
  8
0
 10
82.4385
 20
32.6445
 11
82.3545
 21
32.583
  0
LINE
  8
0
 10
82.3545
 20
32.583
 11
82.3086
 21
32.5547
  0
LINE
  8
0
 10
82.3086
 20
32.5547
 11
82.2588
 21
32.5273
  0
LINE
  8
0
 10
82.2588
 20
32.5273
 11
82.207
 21
32.502
  0
LINE
  8
0
 10
82.207
 20
32.502
 11
82.1514
 21
32.4795
  0
LINE
  8
0
 10
82.1514
 20
32.4795
 11
82.0938
 21
32.4609
  0
LINE
  8
0
 10
82.0938
 20
32.4609
 11
82.0322
 21
32.4463
  0
LINE
  8
0
 10
82.0322
 20
32.4463
 11
81.9688
 21
32.4346
  0
LINE
  8
0
 10
81.9688
 20
32.4346
 11
81.9023
 21
32.4268
  0
LINE
  8
0
 10
81.9023
 20
32.4268
 11
81.833
 21
32.4219
  0
LINE
  8
0
 10
81.833
 20
32.4219
 11
81.7627
 21
32.4199
  0
LINE
  8
0
 10
81.7627
 20
32.4199
 11
81.6162
 21
32.4238
  0
LINE
  8
0
 10
81.6162
 20
32.4238
 11
81.541
 21
32.4297
  0
LINE
  8
0
 10
81.541
 20
32.4297
 11
81.3867
 21
32.4482
  0
LINE
  8
0
 10
81.3867
 20
32.4482
 11
81.2295
 21
32.4746
  0
LINE
  8
0
 10
81.2295
 20
32.4746
 11
81.0713
 21
32.5078
  0
LINE
  8
0
 10
81.0713
 20
32.5078
 11
80.834
 21
32.5664
  0
LINE
  8
0
 10
80.834
 20
32.5664
 11
80.5303
 21
32.6543
  0
LINE
  8
0
 10
80.5303
 20
32.6543
 11
80.0137
 21
32.8232
  0
LINE
  8
0
 10
80.0137
 20
32.8232
 11
79.8271
 21
32.8896
  0
LINE
  8
0
 10
79.8271
 20
32.8896
 11
79.2832
 21
33.0918
  0
LINE
  8
0
 10
79.2832
 20
33.0918
 11
74.0225
 21
35.0977
  0
LINE
  8
0
 10
74.0225
 20
35.0977
 11
72.2334
 21
35.7852
  0
LINE
  8
0
 10
72.2334
 20
35.7852
 11
79.8125
 21
29.5566
  0
LINE
  8
0
 10
79.8125
 20
29.5566
 11
80.7373
 21
28.79
  0
LINE
  8
0
 10
80.7373
 20
28.79
 11
80.9873
 21
28.5693
  0
LINE
  8
0
 10
80.9873
 20
28.5693
 11
81.4395
 21
28.1523
  0
LINE
  8
0
 10
81.4395
 20
28.1523
 11
81.7988
 21
27.8066
  0
LINE
  8
0
 10
81.7988
 20
27.8066
 11
82.0059
 21
27.5996
  0
LINE
  8
0
 10
82.0059
 20
27.5996
 11
82.1953
 21
27.4014
  0
LINE
  8
0
 10
82.1953
 20
27.4014
 11
82.3066
 21
27.2783
  0
LINE
  8
0
 10
82.3066
 20
27.2783
 11
82.4023
 21
27.166
  0
LINE
  8
0
 10
82.4023
 20
27.166
 11
82.4795
 21
27.0664
  0
LINE
  8
0
 10
82.4795
 20
27.0664
 11
82.5352
 21
26.9824
  0
LINE
  8
0
 10
82.5352
 20
26.9824
 11
82.5537
 21
26.9473
  0
LINE
  8
0
 10
82.5537
 20
26.9473
 11
82.583
 21
26.8789
  0
LINE
  8
0
 10
82.583
 20
26.8789
 11
82.6221
 21
26.7705
  0
LINE
  8
0
 10
82.6221
 20
26.7705
 11
82.6426
 21
26.6953
  0
LINE
  8
0
 10
82.6426
 20
26.6953
 11
82.6592
 21
26.6191
  0
LINE
  8
0
 10
82.6592
 20
26.6191
 11
82.6719
 21
26.54
  0
LINE
  8
0
 10
82.6719
 20
26.54
 11
82.6807
 21
26.4209
  0
LINE
  8
0
 10
82.6807
 20
26.4209
 11
82.6777
 21
26.3018
  0
LINE
  8
0
 10
82.6777
 20
26.3018
 11
82.668
 21
26.2217
  0
LINE
  8
0
 10
82.668
 20
26.2217
 11
82.6514
 21
26.1426
  0
LINE
  8
0
 10
82.6514
 20
26.1426
 11
82.6289
 21
26.0654
  0
LINE
  8
0
 10
82.6289
 20
26.0654
 11
82.5986
 21
25.9893
  0
LINE
  8
0
 10
82.5986
 20
25.9893
 11
82.5605
 21
25.915
  0
LINE
  8
0
 10
82.5605
 20
25.915
 11
82.5391
 21
25.8789
  0
LINE
  8
0
 10
82.5391
 20
25.8789
 11
82.5156
 21
25.8438
  0
LINE
  8
0
 10
82.5156
 20
25.8438
 11
82.4609
 21
25.7754
  0
LINE
  8
0
 10
82.4609
 20
25.7754
 11
82.4307
 21
25.7441
  0
LINE
  8
0
 10
82.4307
 20
25.7441
 11
82.3965
 21
25.7148
  0
LINE
  8
0
 10
82.3965
 20
25.7148
 11
82.3594
 21
25.6875
  0
LINE
  8
0
 10
82.3594
 20
25.6875
 11
82.3193
 21
25.6631
  0
LINE
  8
0
 10
82.3193
 20
25.6631
 11
82.2773
 21
25.6416
  0
LINE
  8
0
 10
82.2773
 20
25.6416
 11
82.2314
 21
25.6221
  0
LINE
  8
0
 10
82.2314
 20
25.6221
 11
82.1846
 21
25.6045
  0
LINE
  8
0
 10
82.1846
 20
25.6045
 11
82.1348
 21
25.5889
  0
LINE
  8
0
 10
82.1348
 20
25.5889
 11
82.083
 21
25.5752
  0
LINE
  8
0
 10
82.083
 20
25.5752
 11
81.9756
 21
25.5547
  0
LINE
  8
0
 10
81.9756
 20
25.5547
 11
81.8633
 21
25.54
  0
LINE
  8
0
 10
81.8633
 20
25.54
 11
81.7461
 21
25.5332
  0
LINE
  8
0
 10
81.7461
 20
25.5332
 11
81.6279
 21
25.5303
  0
LINE
  8
0
 10
81.6279
 20
25.5303
 11
81.5078
 21
25.5332
  0
LINE
  8
0
 10
81.5078
 20
25.5332
 11
81.332
 21
25.5459
  0
LINE
  8
0
 10
81.332
 20
25.5459
 11
81.1621
 21
25.5645
  0
LINE
  8
0
 10
81.1621
 20
25.5645
 11
80.958
 21
25.5977
  0
LINE
  8
0
 10
80.958
 20
25.5977
 11
80.8682
 21
25.6152
  0
LINE
  8
0
 10
80.8682
 20
25.6152
 11
80.8223
 21
25.626
  0
LINE
  8
0
 10
80.8223
 20
25.626
 11
80.709
 21
25.6611
  0
LINE
  8
0
 10
80.709
 20
25.6611
 11
80.5723
 21
25.71
  0
LINE
  8
0
 10
80.5723
 20
25.71
 11
80.334
 21
25.8057
  0
LINE
  8
0
 10
80.334
 20
25.8057
 11
79.9756
 21
25.9609
  0
LINE
  8
0
 10
79.9756
 20
25.9609
 11
79.3467
 21
26.252
  0
LINE
  8
0
 10
79.3467
 20
26.252
 11
78.7676
 21
26.5332
  0
LINE
  8
0
 10
78.7676
 20
26.5332
 11
72.0713
 21
29.6094
  0
LINE
  8
0
 10
72.0713
 20
29.6094
 11
75.2578
 21
26.0508
  0
LINE
  8
0
 10
75.2578
 20
26.0508
 11
73.8955
 21
25.0869
  0
LINE
  8
0
 10
73.8955
 20
25.0869
 11
71.1699
 21
28.1582
  0
LINE
  8
0
 10
19.7393
 20
41.7402
 11
0
 21
41.7402
  0
LINE
  8
0
 10
0
 20
41.7402
 11
0
 21
22
  0
LINE
  8
0
 10
0
 20
22
 11
19.7393
 21
22
  0
LINE
  8
0
 10
19.7393
 20
22
 11
19.7393
 21
41.7402
  0
LINE
  8
0
 10
8.96582
 20
26.7588
 11
8.89551
 21
26.7676
  0
LINE
  8
0
 10
8.89551
 20
26.7676
 11
8.83008
 21
26.7812
  0
LINE
  8
0
 10
8.83008
 20
26.7812
 11
8.79883
 21
26.79
  0
LINE
  8
0
 10
8.79883
 20
26.79
 11
8.70898
 21
26.8232
  0
LINE
  8
0
 10
8.70898
 20
26.8232
 11
8.62598
 21
26.8652
  0
LINE
  8
0
 10
8.62598
 20
26.8652
 11
8.54785
 21
26.915
  0
LINE
  8
0
 10
8.54785
 20
26.915
 11
8.47363
 21
26.9697
  0
LINE
  8
0
 10
8.47363
 20
26.9697
 11
8.18262
 21
27.2188
  0
LINE
  8
0
 10
8.18262
 20
27.2188
 11
3.45703
 21
31.1406
  0
LINE
  8
0
 10
3.45703
 20
31.1406
 11
3.34863
 21
31.2393
  0
LINE
  8
0
 10
3.34863
 20
31.2393
 11
3.27734
 21
31.3125
  0
LINE
  8
0
 10
3.27734
 20
31.3125
 11
3.23438
 21
31.3623
  0
LINE
  8
0
 10
3.23438
 20
31.3623
 11
3.17773
 21
31.4385
  0
LINE
  8
0
 10
3.17773
 20
31.4385
 11
3.14453
 21
31.4912
  0
LINE
  8
0
 10
3.14453
 20
31.4912
 11
3.11621
 21
31.5459
  0
LINE
  8
0
 10
3.11621
 20
31.5459
 11
3.08203
 21
31.6318
  0
LINE
  8
0
 10
3.08203
 20
31.6318
 11
3.07227
 21
31.6621
  0
LINE
  8
0
 10
3.07227
 20
31.6621
 11
3.05762
 21
31.7246
  0
LINE
  8
0
 10
3.05762
 20
31.7246
 11
3.04785
 21
31.791
  0
LINE
  8
0
 10
3.04785
 20
31.791
 11
3.04297
 21
31.8604
  0
LINE
  8
0
 10
3.04297
 20
31.8604
 11
3.04297
 21
31.9336
  0
LINE
  8
0
 10
3.04297
 20
31.9336
 11
3.04785
 21
32.0029
  0
LINE
  8
0
 10
3.04785
 20
32.0029
 11
3.05176
 21
32.0361
  0
LINE
  8
0
 10
3.05176
 20
32.0361
 11
3.06445
 21
32.1006
  0
LINE
  8
0
 10
3.06445
 20
32.1006
 11
3.08203
 21
32.1611
  0
LINE
  8
0
 10
3.08203
 20
32.1611
 11
3.10352
 21
32.2197
  0
LINE
  8
0
 10
3.10352
 20
32.2197
 11
3.12988
 21
32.2754
  0
LINE
  8
0
 10
3.12988
 20
32.2754
 11
3.14453
 21
32.3018
  0
LINE
  8
0
 10
3.14453
 20
32.3018
 11
3.17773
 21
32.3545
  0
LINE
  8
0
 10
3.17773
 20
32.3545
 11
3.21484
 21
32.4062
  0
LINE
  8
0
 10
3.21484
 20
32.4062
 11
3.27734
 21
32.4805
  0
LINE
  8
0
 10
3.27734
 20
32.4805
 11
3.34863
 21
32.5537
  0
LINE
  8
0
 10
3.34863
 20
32.5537
 11
3.42871
 21
32.6279
  0
LINE
  8
0
 10
3.42871
 20
32.6279
 11
3.57715
 21
32.7539
  0
LINE
  8
0
 10
3.57715
 20
32.7539
 11
8.20801
 21
36.5957
  0
LINE
  8
0
 10
8.20801
 20
36.5957
 11
8.44922
 21
36.8047
  0
LINE
  8
0
 10
8.44922
 20
36.8047
 11
8.54785
 21
36.8789
  0
LINE
  8
0
 10
8.54785
 20
36.8789
 11
8.65332
 21
36.9434
  0
LINE
  8
0
 10
8.65332
 20
36.9434
 11
8.73828
 21
36.9824
  0
LINE
  8
0
 10
8.73828
 20
36.9824
 11
8.79883
 21
37.0029
  0
LINE
  8
0
 10
8.79883
 20
37.0029
 11
8.8623
 21
37.0195
  0
LINE
  8
0
 10
8.8623
 20
37.0195
 11
8.92969
 21
37.0312
  0
LINE
  8
0
 10
8.92969
 20
37.0312
 11
9.00195
 21
37.0371
  0
LINE
  8
0
 10
9.00195
 20
37.0371
 11
9.09082
 21
37.0361
  0
LINE
  8
0
 10
9.09082
 20
37.0361
 11
9.14062
 21
37.0322
  0
LINE
  8
0
 10
9.14062
 20
37.0322
 11
9.23633
 21
37.0166
  0
LINE
  8
0
 10
9.23633
 20
37.0166
 11
9.28125
 21
37.0049
  0
LINE
  8
0
 10
9.28125
 20
37.0049
 11
9.3252
 21
36.9912
  0
LINE
  8
0
 10
9.3252
 20
36.9912
 11
9.36816
 21
36.9756
  0
LINE
  8
0
 10
9.36816
 20
36.9756
 11
9.44922
 21
36.9375
  0
LINE
  8
0
 10
9.44922
 20
36.9375
 11
9.52344
 21
36.8916
  0
LINE
  8
0
 10
9.52344
 20
36.8916
 11
9.55859
 21
36.8662
  0
LINE
  8
0
 10
9.55859
 20
36.8662
 11
9.59277
 21
36.8389
  0
LINE
  8
0
 10
9.59277
 20
36.8389
 11
9.62402
 21
36.8105
  0
LINE
  8
0
 10
9.62402
 20
36.8105
 11
9.6543
 21
36.7803
  0
LINE
  8
0
 10
9.6543
 20
36.7803
 11
9.68262
 21
36.749
  0
LINE
  8
0
 10
9.68262
 20
36.749
 11
9.70996
 21
36.7158
  0
LINE
  8
0
 10
9.70996
 20
36.7158
 11
9.75781
 21
36.6475
  0
LINE
  8
0
 10
9.75781
 20
36.6475
 11
9.7998
 21
36.5752
  0
LINE
  8
0
 10
9.7998
 20
36.5752
 11
9.83398
 21
36.499
  0
LINE
  8
0
 10
9.83398
 20
36.499
 11
9.86133
 21
36.4209
  0
LINE
  8
0
 10
9.86133
 20
36.4209
 11
9.87207
 21
36.3818
  0
LINE
  8
0
 10
9.87207
 20
36.3818
 11
9.8877
 21
36.3018
  0
LINE
  8
0
 10
9.8877
 20
36.3018
 11
9.89551
 21
36.2207
  0
LINE
  8
0
 10
9.89551
 20
36.2207
 11
9.89648
 21
33.6104
  0
LINE
  8
0
 10
9.89648
 20
33.6104
 11
15.9395
 21
33.6094
  0
LINE
  8
0
 10
15.9395
 20
33.6094
 11
15.9844
 21
33.6055
  0
LINE
  8
0
 10
15.9844
 20
33.6055
 11
16.0283
 21
33.5996
  0
LINE
  8
0
 10
16.0283
 20
33.5996
 11
16.0713
 21
33.5918
  0
LINE
  8
0
 10
16.0713
 20
33.5918
 11
16.1553
 21
33.5693
  0
LINE
  8
0
 10
16.1553
 20
33.5693
 11
16.1963
 21
33.5547
  0
LINE
  8
0
 10
16.1963
 20
33.5547
 11
16.2754
 21
33.5205
  0
LINE
  8
0
 10
16.2754
 20
33.5205
 11
16.3496
 21
33.4785
  0
LINE
  8
0
 10
16.3496
 20
33.4785
 11
16.4189
 21
33.4287
  0
LINE
  8
0
 10
16.4189
 20
33.4287
 11
16.4521
 21
33.4023
  0
LINE
  8
0
 10
16.4521
 20
33.4023
 11
16.5137
 21
33.3438
  0
LINE
  8
0
 10
16.5137
 20
33.3438
 11
16.5693
 21
33.2793
  0
LINE
  8
0
 10
16.5693
 20
33.2793
 11
16.5947
 21
33.2451
  0
LINE
  8
0
 10
16.5947
 20
33.2451
 11
16.6406
 21
33.1729
  0
LINE
  8
0
 10
16.6406
 20
33.1729
 11
16.6787
 21
33.0957
  0
LINE
  8
0
 10
16.6787
 20
33.0957
 11
16.6953
 21
33.0566
  0
LINE
  8
0
 10
16.6953
 20
33.0566
 11
16.71
 21
33.0156
  0
LINE
  8
0
 10
16.71
 20
33.0156
 11
16.7324
 21
32.9307
  0
LINE
  8
0
 10
16.7324
 20
32.9307
 11
16.7402
 21
32.8877
  0
LINE
  8
0
 10
16.7402
 20
32.8877
 11
16.7461
 21
32.8438
  0
LINE
  8
0
 10
16.7461
 20
32.8438
 11
16.751
 21
32.7539
  0
LINE
  8
0
 10
16.751
 20
32.7539
 11
16.751
 21
31.04
  0
LINE
  8
0
 10
16.751
 20
31.04
 11
16.7461
 21
30.9502
  0
LINE
  8
0
 10
16.7461
 20
30.9502
 11
16.7324
 21
30.8623
  0
LINE
  8
0
 10
16.7324
 20
30.8623
 11
16.71
 21
30.7783
  0
LINE
  8
0
 10
16.71
 20
30.7783
 11
16.6953
 21
30.7373
  0
LINE
  8
0
 10
16.6953
 20
30.7373
 11
16.6787
 21
30.6973
  0
LINE
  8
0
 10
16.6787
 20
30.6973
 11
16.6406
 21
30.6211
  0
LINE
  8
0
 10
16.6406
 20
30.6211
 11
16.5947
 21
30.5488
  0
LINE
  8
0
 10
16.5947
 20
30.5488
 11
16.5693
 21
30.5146
  0
LINE
  8
0
 10
16.5693
 20
30.5146
 11
16.542
 21
30.4814
  0
LINE
  8
0
 10
16.542
 20
30.4814
 11
16.5137
 21
30.4502
  0
LINE
  8
0
 10
16.5137
 20
30.4502
 11
16.4834
 21
30.4199
  0
LINE
  8
0
 10
16.4834
 20
30.4199
 11
16.4521
 21
30.3916
  0
LINE
  8
0
 10
16.4521
 20
30.3916
 11
16.4189
 21
30.3643
  0
LINE
  8
0
 10
16.4189
 20
30.3643
 11
16.3848
 21
30.3389
  0
LINE
  8
0
 10
16.3848
 20
30.3389
 11
16.3496
 21
30.3154
  0
LINE
  8
0
 10
16.3496
 20
30.3154
 11
16.2754
 21
30.2734
  0
LINE
  8
0
 10
16.2754
 20
30.2734
 11
16.2363
 21
30.2549
  0
LINE
  8
0
 10
16.2363
 20
30.2549
 11
16.1963
 21
30.2383
  0
LINE
  8
0
 10
16.1963
 20
30.2383
 11
16.1143
 21
30.2119
  0
LINE
  8
0
 10
16.1143
 20
30.2119
 11
16.0283
 21
30.1934
  0
LINE
  8
0
 10
16.0283
 20
30.1934
 11
15.9844
 21
30.1875
  0
LINE
  8
0
 10
15.9844
 20
30.1875
 11
15.8936
 21
30.1836
  0
LINE
  8
0
 10
15.8936
 20
30.1836
 11
9.89648
 21
30.1836
  0
LINE
  8
0
 10
9.89648
 20
30.1836
 11
9.89551
 21
27.5723
  0
LINE
  8
0
 10
9.89551
 20
27.5723
 11
9.8877
 21
27.4922
  0
LINE
  8
0
 10
9.8877
 20
27.4922
 11
9.87207
 21
27.4121
  0
LINE
  8
0
 10
9.87207
 20
27.4121
 11
9.86133
 21
27.3721
  0
LINE
  8
0
 10
9.86133
 20
27.3721
 11
9.83398
 21
27.2939
  0
LINE
  8
0
 10
9.83398
 20
27.2939
 11
9.7998
 21
27.2188
  0
LINE
  8
0
 10
9.7998
 20
27.2188
 11
9.75781
 21
27.1465
  0
LINE
  8
0
 10
9.75781
 20
27.1465
 11
9.70996
 21
27.0771
  0
LINE
  8
0
 10
9.70996
 20
27.0771
 11
9.6543
 21
27.0137
  0
LINE
  8
0
 10
9.6543
 20
27.0137
 11
9.62402
 21
26.9834
  0
LINE
  8
0
 10
9.62402
 20
26.9834
 11
9.59277
 21
26.9551
  0
LINE
  8
0
 10
9.59277
 20
26.9551
 11
9.55859
 21
26.9277
  0
LINE
  8
0
 10
9.55859
 20
26.9277
 11
9.4873
 21
26.8779
  0
LINE
  8
0
 10
9.4873
 20
26.8779
 11
9.40918
 21
26.8359
  0
LINE
  8
0
 10
9.40918
 20
26.8359
 11
9.36816
 21
26.8184
  0
LINE
  8
0
 10
9.36816
 20
26.8184
 11
9.28125
 21
26.7881
  0
LINE
  8
0
 10
9.28125
 20
26.7881
 11
9.18848
 21
26.7676
  0
LINE
  8
0
 10
9.18848
 20
26.7676
 11
9.14062
 21
26.7617
  0
LINE
  8
0
 10
9.14062
 20
26.7617
 11
9.09082
 21
26.7578
  0
LINE
  8
0
 10
9.09082
 20
26.7578
 11
9.04004
 21
26.7559
  0
LINE
  8
0
 10
9.04004
 20
26.7559
 11
8.96582
 21
26.7588
  0
LINE
  8
0
 10
63.7393
 20
41.7402
 11
44
 21
41.7402
  0
LINE
  8
0
 10
44
 20
41.7402
 11
44
 21
22
  0
LINE
  8
0
 10
44
 20
22
 11
63.7393
 21
22
  0
LINE
  8
0
 10
63.7393
 20
22
 11
63.7393
 21
41.7402
  0
LINE
  8
0
 10
52.9658
 20
26.7588
 11
52.8955
 21
26.7676
  0
LINE
  8
0
 10
52.8955
 20
26.7676
 11
52.8301
 21
26.7812
  0
LINE
  8
0
 10
52.8301
 20
26.7812
 11
52.7988
 21
26.79
  0
LINE
  8
0
 10
52.7988
 20
26.79
 11
52.709
 21
26.8232
  0
LINE
  8
0
 10
52.709
 20
26.8232
 11
52.626
 21
26.8652
  0
LINE
  8
0
 10
52.626
 20
26.8652
 11
52.5479
 21
26.915
  0
LINE
  8
0
 10
52.5479
 20
26.915
 11
52.4736
 21
26.9697
  0
LINE
  8
0
 10
52.4736
 20
26.9697
 11
52.1826
 21
27.2188
  0
LINE
  8
0
 10
52.1826
 20
27.2188
 11
47.457
 21
31.1406
  0
LINE
  8
0
 10
47.457
 20
31.1406
 11
47.3486
 21
31.2393
  0
LINE
  8
0
 10
47.3486
 20
31.2393
 11
47.2773
 21
31.3125
  0
LINE
  8
0
 10
47.2773
 20
31.3125
 11
47.2344
 21
31.3623
  0
LINE
  8
0
 10
47.2344
 20
31.3623
 11
47.1777
 21
31.4385
  0
LINE
  8
0
 10
47.1777
 20
31.4385
 11
47.1445
 21
31.4912
  0
LINE
  8
0
 10
47.1445
 20
31.4912
 11
47.1162
 21
31.5459
  0
LINE
  8
0
 10
47.1162
 20
31.5459
 11
47.082
 21
31.6318
  0
LINE
  8
0
 10
47.082
 20
31.6318
 11
47.0723
 21
31.6621
  0
LINE
  8
0
 10
47.0723
 20
31.6621
 11
47.0576
 21
31.7246
  0
LINE
  8
0
 10
47.0576
 20
31.7246
 11
47.0479
 21
31.791
  0
LINE
  8
0
 10
47.0479
 20
31.791
 11
47.043
 21
31.8604
  0
LINE
  8
0
 10
47.043
 20
31.8604
 11
47.043
 21
31.9336
  0
LINE
  8
0
 10
47.043
 20
31.9336
 11
47.0479
 21
32.0029
  0
LINE
  8
0
 10
47.0479
 20
32.0029
 11
47.0518
 21
32.0361
  0
LINE
  8
0
 10
47.0518
 20
32.0361
 11
47.0645
 21
32.1006
  0
LINE
  8
0
 10
47.0645
 20
32.1006
 11
47.082
 21
32.1611
  0
LINE
  8
0
 10
47.082
 20
32.1611
 11
47.1035
 21
32.2197
  0
LINE
  8
0
 10
47.1035
 20
32.2197
 11
47.1299
 21
32.2754
  0
LINE
  8
0
 10
47.1299
 20
32.2754
 11
47.1445
 21
32.3018
  0
LINE
  8
0
 10
47.1445
 20
32.3018
 11
47.1777
 21
32.3545
  0
LINE
  8
0
 10
47.1777
 20
32.3545
 11
47.2148
 21
32.4062
  0
LINE
  8
0
 10
47.2148
 20
32.4062
 11
47.2773
 21
32.4805
  0
LINE
  8
0
 10
47.2773
 20
32.4805
 11
47.3486
 21
32.5537
  0
LINE
  8
0
 10
47.3486
 20
32.5537
 11
47.4287
 21
32.6279
  0
LINE
  8
0
 10
47.4287
 20
32.6279
 11
47.5771
 21
32.7539
  0
LINE
  8
0
 10
47.5771
 20
32.7539
 11
52.208
 21
36.5957
  0
LINE
  8
0
 10
52.208
 20
36.5957
 11
52.4492
 21
36.8047
  0
LINE
  8
0
 10
52.4492
 20
36.8047
 11
52.5479
 21
36.8789
  0
LINE
  8
0
 10
52.5479
 20
36.8789
 11
52.6533
 21
36.9434
  0
LINE
  8
0
 10
52.6533
 20
36.9434
 11
52.7383
 21
36.9824
  0
LINE
  8
0
 10
52.7383
 20
36.9824
 11
52.7988
 21
37.0029
  0
LINE
  8
0
 10
52.7988
 20
37.0029
 11
52.8623
 21
37.0195
  0
LINE
  8
0
 10
52.8623
 20
37.0195
 11
52.9297
 21
37.0312
  0
LINE
  8
0
 10
52.9297
 20
37.0312
 11
53.002
 21
37.0371
  0
LINE
  8
0
 10
53.002
 20
37.0371
 11
53.0908
 21
37.0361
  0
LINE
  8
0
 10
53.0908
 20
37.0361
 11
53.1406
 21
37.0322
  0
LINE
  8
0
 10
53.1406
 20
37.0322
 11
53.2363
 21
37.0166
  0
LINE
  8
0
 10
53.2363
 20
37.0166
 11
53.2812
 21
37.0049
  0
LINE
  8
0
 10
53.2812
 20
37.0049
 11
53.3252
 21
36.9912
  0
LINE
  8
0
 10
53.3252
 20
36.9912
 11
53.3682
 21
36.9756
  0
LINE
  8
0
 10
53.3682
 20
36.9756
 11
53.4492
 21
36.9375
  0
LINE
  8
0
 10
53.4492
 20
36.9375
 11
53.5234
 21
36.8916
  0
LINE
  8
0
 10
53.5234
 20
36.8916
 11
53.5586
 21
36.8662
  0
LINE
  8
0
 10
53.5586
 20
36.8662
 11
53.5928
 21
36.8389
  0
LINE
  8
0
 10
53.5928
 20
36.8389
 11
53.624
 21
36.8105
  0
LINE
  8
0
 10
53.624
 20
36.8105
 11
53.6543
 21
36.7803
  0
LINE
  8
0
 10
53.6543
 20
36.7803
 11
53.6826
 21
36.749
  0
LINE
  8
0
 10
53.6826
 20
36.749
 11
53.71
 21
36.7158
  0
LINE
  8
0
 10
53.71
 20
36.7158
 11
53.7578
 21
36.6475
  0
LINE
  8
0
 10
53.7578
 20
36.6475
 11
53.7998
 21
36.5752
  0
LINE
  8
0
 10
53.7998
 20
36.5752
 11
53.834
 21
36.499
  0
LINE
  8
0
 10
53.834
 20
36.499
 11
53.8613
 21
36.4209
  0
LINE
  8
0
 10
53.8613
 20
36.4209
 11
53.8721
 21
36.3818
  0
LINE
  8
0
 10
53.8721
 20
36.3818
 11
53.8877
 21
36.3018
  0
LINE
  8
0
 10
53.8877
 20
36.3018
 11
53.8955
 21
36.2207
  0
LINE
  8
0
 10
53.8955
 20
36.2207
 11
53.8965
 21
33.6104
  0
LINE
  8
0
 10
53.8965
 20
33.6104
 11
59.9395
 21
33.6094
  0
LINE
  8
0
 10
59.9395
 20
33.6094
 11
59.9844
 21
33.6055
  0
LINE
  8
0
 10
59.9844
 20
33.6055
 11
60.0283
 21
33.5996
  0
LINE
  8
0
 10
60.0283
 20
33.5996
 11
60.0713
 21
33.5918
  0
LINE
  8
0
 10
60.0713
 20
33.5918
 11
60.1553
 21
33.5693
  0
LINE
  8
0
 10
60.1553
 20
33.5693
 11
60.1963
 21
33.5547
  0
LINE
  8
0
 10
60.1963
 20
33.5547
 11
60.2754
 21
33.5205
  0
LINE
  8
0
 10
60.2754
 20
33.5205
 11
60.3496
 21
33.4785
  0
LINE
  8
0
 10
60.3496
 20
33.4785
 11
60.4189
 21
33.4287
  0
LINE
  8
0
 10
60.4189
 20
33.4287
 11
60.4521
 21
33.4023
  0
LINE
  8
0
 10
60.4521
 20
33.4023
 11
60.5137
 21
33.3438
  0
LINE
  8
0
 10
60.5137
 20
33.3438
 11
60.5693
 21
33.2793
  0
LINE
  8
0
 10
60.5693
 20
33.2793
 11
60.5947
 21
33.2451
  0
LINE
  8
0
 10
60.5947
 20
33.2451
 11
60.6406
 21
33.1729
  0
LINE
  8
0
 10
60.6406
 20
33.1729
 11
60.6787
 21
33.0957
  0
LINE
  8
0
 10
60.6787
 20
33.0957
 11
60.6953
 21
33.0566
  0
LINE
  8
0
 10
60.6953
 20
33.0566
 11
60.71
 21
33.0156
  0
LINE
  8
0
 10
60.71
 20
33.0156
 11
60.7324
 21
32.9307
  0
LINE
  8
0
 10
60.7324
 20
32.9307
 11
60.7402
 21
32.8877
  0
LINE
  8
0
 10
60.7402
 20
32.8877
 11
60.7461
 21
32.8438
  0
LINE
  8
0
 10
60.7461
 20
32.8438
 11
60.751
 21
32.7539
  0
LINE
  8
0
 10
60.751
 20
32.7539
 11
60.751
 21
31.04
  0
LINE
  8
0
 10
60.751
 20
31.04
 11
60.7461
 21
30.9502
  0
LINE
  8
0
 10
60.7461
 20
30.9502
 11
60.7324
 21
30.8623
  0
LINE
  8
0
 10
60.7324
 20
30.8623
 11
60.71
 21
30.7783
  0
LINE
  8
0
 10
60.71
 20
30.7783
 11
60.6953
 21
30.7373
  0
LINE
  8
0
 10
60.6953
 20
30.7373
 11
60.6787
 21
30.6973
  0
LINE
  8
0
 10
60.6787
 20
30.6973
 11
60.6406
 21
30.6211
  0
LINE
  8
0
 10
60.6406
 20
30.6211
 11
60.5947
 21
30.5488
  0
LINE
  8
0
 10
60.5947
 20
30.5488
 11
60.5693
 21
30.5146
  0
LINE
  8
0
 10
60.5693
 20
30.5146
 11
60.542
 21
30.4814
  0
LINE
  8
0
 10
60.542
 20
30.4814
 11
60.5137
 21
30.4502
  0
LINE
  8
0
 10
60.5137
 20
30.4502
 11
60.4834
 21
30.4199
  0
LINE
  8
0
 10
60.4834
 20
30.4199
 11
60.4521
 21
30.3916
  0
LINE
  8
0
 10
60.4521
 20
30.3916
 11
60.4189
 21
30.3643
  0
LINE
  8
0
 10
60.4189
 20
30.3643
 11
60.3848
 21
30.3389
  0
LINE
  8
0
 10
60.3848
 20
30.3389
 11
60.3496
 21
30.3154
  0
LINE
  8
0
 10
60.3496
 20
30.3154
 11
60.2754
 21
30.2734
  0
LINE
  8
0
 10
60.2754
 20
30.2734
 11
60.2363
 21
30.2549
  0
LINE
  8
0
 10
60.2363
 20
30.2549
 11
60.1963
 21
30.2383
  0
LINE
  8
0
 10
60.1963
 20
30.2383
 11
60.1143
 21
30.2119
  0
LINE
  8
0
 10
60.1143
 20
30.2119
 11
60.0283
 21
30.1934
  0
LINE
  8
0
 10
60.0283
 20
30.1934
 11
59.9844
 21
30.1875
  0
LINE
  8
0
 10
59.9844
 20
30.1875
 11
59.8936
 21
30.1836
  0
LINE
  8
0
 10
59.8936
 20
30.1836
 11
53.8965
 21
30.1836
  0
LINE
  8
0
 10
53.8965
 20
30.1836
 11
53.8955
 21
27.5723
  0
LINE
  8
0
 10
53.8955
 20
27.5723
 11
53.8877
 21
27.4922
  0
LINE
  8
0
 10
53.8877
 20
27.4922
 11
53.8721
 21
27.4121
  0
LINE
  8
0
 10
53.8721
 20
27.4121
 11
53.8613
 21
27.3721
  0
LINE
  8
0
 10
53.8613
 20
27.3721
 11
53.834
 21
27.2939
  0
LINE
  8
0
 10
53.834
 20
27.2939
 11
53.7998
 21
27.2188
  0
LINE
  8
0
 10
53.7998
 20
27.2188
 11
53.7578
 21
27.1465
  0
LINE
  8
0
 10
53.7578
 20
27.1465
 11
53.71
 21
27.0771
  0
LINE
  8
0
 10
53.71
 20
27.0771
 11
53.6543
 21
27.0137
  0
LINE
  8
0
 10
53.6543
 20
27.0137
 11
53.624
 21
26.9834
  0
LINE
  8
0
 10
53.624
 20
26.9834
 11
53.5928
 21
26.9551
  0
LINE
  8
0
 10
53.5928
 20
26.9551
 11
53.5586
 21
26.9277
  0
LINE
  8
0
 10
53.5586
 20
26.9277
 11
53.4873
 21
26.8779
  0
LINE
  8
0
 10
53.4873
 20
26.8779
 11
53.4092
 21
26.8359
  0
LINE
  8
0
 10
53.4092
 20
26.8359
 11
53.3682
 21
26.8184
  0
LINE
  8
0
 10
53.3682
 20
26.8184
 11
53.2812
 21
26.7881
  0
LINE
  8
0
 10
53.2812
 20
26.7881
 11
53.1885
 21
26.7676
  0
LINE
  8
0
 10
53.1885
 20
26.7676
 11
53.1406
 21
26.7617
  0
LINE
  8
0
 10
53.1406
 20
26.7617
 11
53.0908
 21
26.7578
  0
LINE
  8
0
 10
53.0908
 20
26.7578
 11
53.04
 21
26.7559
  0
LINE
  8
0
 10
53.04
 20
26.7559
 11
52.9658
 21
26.7588
  0
LINE
  8
0
 10
41.7402
 20
41.7402
 11
22
 21
41.7402
  0
LINE
  8
0
 10
22
 20
41.7402
 11
22
 21
22
  0
LINE
  8
0
 10
22
 20
22
 11
41.7402
 21
22
  0
LINE
  8
0
 10
41.7402
 20
22
 11
41.7402
 21
41.7402
  0
LINE
  8
0
 10
27.1699
 20
28.1582
 11
26.415
 21
29.0176
  0
LINE
  8
0
 10
26.415
 20
29.0176
 11
26.2021
 21
29.2656
  0
LINE
  8
0
 10
26.2021
 20
29.2656
 11
26.1445
 21
29.335
  0
LINE
  8
0
 10
26.1445
 20
29.335
 11
26.0381
 21
29.4736
  0
LINE
  8
0
 10
26.0381
 20
29.4736
 11
25.9883
 21
29.5439
  0
LINE
  8
0
 10
25.9883
 20
29.5439
 11
25.9414
 21
29.6143
  0
LINE
  8
0
 10
25.9414
 20
29.6143
 11
25.8535
 21
29.7559
  0
LINE
  8
0
 10
25.8535
 20
29.7559
 11
25.7744
 21
29.8955
  0
LINE
  8
0
 10
25.7744
 20
29.8955
 11
25.7051
 21
30.0352
  0
LINE
  8
0
 10
25.7051
 20
30.0352
 11
25.6729
 21
30.1035
  0
LINE
  8
0
 10
25.6729
 20
30.1035
 11
25.6162
 21
30.2393
  0
LINE
  8
0
 10
25.6162
 20
30.2393
 11
25.5674
 21
30.3711
  0
LINE
  8
0
 10
25.5674
 20
30.3711
 11
25.5264
 21
30.499
  0
LINE
  8
0
 10
25.5264
 20
30.499
 11
25.4932
 21
30.6211
  0
LINE
  8
0
 10
25.4932
 20
30.6211
 11
25.457
 21
30.7939
  0
LINE
  8
0
 10
25.457
 20
30.7939
 11
25.4424
 21
30.9014
  0
LINE
  8
0
 10
25.4424
 20
30.9014
 11
25.4346
 21
31
  0
LINE
  8
0
 10
25.4346
 20
31
 11
25.4346
 21
31.0898
  0
LINE
  8
0
 10
25.4346
 20
31.0898
 11
25.4395
 21
31.1699
  0
LINE
  8
0
 10
25.4395
 20
31.1699
 11
25.4463
 21
31.208
  0
LINE
  8
0
 10
25.4463
 20
31.208
 11
25.4551
 21
31.2451
  0
LINE
  8
0
 10
25.4551
 20
31.2451
 11
25.4668
 21
31.2822
  0
LINE
  8
0
 10
25.4668
 20
31.2822
 11
25.4814
 21
31.3184
  0
LINE
  8
0
 10
25.4814
 20
31.3184
 11
25.499
 21
31.3545
  0
LINE
  8
0
 10
25.499
 20
31.3545
 11
25.5186
 21
31.3896
  0
LINE
  8
0
 10
25.5186
 20
31.3896
 11
25.541
 21
31.4248
  0
LINE
  8
0
 10
25.541
 20
31.4248
 11
25.5654
 21
31.459
  0
LINE
  8
0
 10
25.5654
 20
31.459
 11
25.5918
 21
31.4922
  0
LINE
  8
0
 10
25.5918
 20
31.4922
 11
25.6514
 21
31.5576
  0
LINE
  8
0
 10
25.6514
 20
31.5576
 11
25.7168
 21
31.6182
  0
LINE
  8
0
 10
25.7168
 20
31.6182
 11
25.7881
 21
31.6758
  0
LINE
  8
0
 10
25.7881
 20
31.6758
 11
25.8633
 21
31.7295
  0
LINE
  8
0
 10
25.8633
 20
31.7295
 11
25.9434
 21
31.7783
  0
LINE
  8
0
 10
25.9434
 20
31.7783
 11
26.0254
 21
31.8223
  0
LINE
  8
0
 10
26.0254
 20
31.8223
 11
26.1084
 21
31.8604
  0
LINE
  8
0
 10
26.1084
 20
31.8604
 11
26.1914
 21
31.8926
  0
LINE
  8
0
 10
26.1914
 20
31.8926
 11
26.2744
 21
31.9189
  0
LINE
  8
0
 10
26.2744
 20
31.9189
 11
26.3145
 21
31.9297
  0
LINE
  8
0
 10
26.3145
 20
31.9297
 11
26.3945
 21
31.9453
  0
LINE
  8
0
 10
26.3945
 20
31.9453
 11
26.4326
 21
31.9512
  0
LINE
  8
0
 10
26.4326
 20
31.9512
 11
26.4746
 21
31.9541
  0
LINE
  8
0
 10
26.4746
 20
31.9541
 11
26.5781
 21
31.9482
  0
LINE
  8
0
 10
26.5781
 20
31.9482
 11
26.708
 21
31.9287
  0
LINE
  8
0
 10
26.708
 20
31.9287
 11
26.8584
 21
31.8975
  0
LINE
  8
0
 10
26.8584
 20
31.8975
 11
27.0264
 21
31.8555
  0
LINE
  8
0
 10
27.0264
 20
31.8555
 11
27.3066
 21
31.7764
  0
LINE
  8
0
 10
27.3066
 20
31.7764
 11
27.5059
 21
31.7148
  0
LINE
  8
0
 10
27.5059
 20
31.7148
 11
27.8154
 21
31.6113
  0
LINE
  8
0
 10
27.8154
 20
31.6113
 11
28.0234
 21
31.5381
  0
LINE
  8
0
 10
28.0234
 20
31.5381
 11
28.4307
 21
31.3857
  0
LINE
  8
0
 10
28.4307
 20
31.3857
 11
28.623
 21
31.3105
  0
LINE
  8
0
 10
28.623
 20
31.3105
 11
28.8018
 21
31.2373
  0
LINE
  8
0
 10
28.8018
 20
31.2373
 11
29.041
 21
31.1338
  0
LINE
  8
0
 10
29.041
 20
31.1338
 11
29.4141
 21
30.958
  0
LINE
  8
0
 10
29.4141
 20
30.958
 11
34.3975
 21
28.5078
  0
LINE
  8
0
 10
34.3975
 20
28.5078
 11
29.1475
 21
32.8193
  0
LINE
  8
0
 10
29.1475
 20
32.8193
 11
26.7656
 21
34.7881
  0
LINE
  8
0
 10
26.7656
 20
34.7881
 11
26.4492
 21
35.0537
  0
LINE
  8
0
 10
26.4492
 20
35.0537
 11
26.2939
 21
35.1875
  0
LINE
  8
0
 10
26.2939
 20
35.1875
 11
25.8965
 21
35.5635
  0
LINE
  8
0
 10
25.8965
 20
35.5635
 11
25.8086
 21
35.6504
  0
LINE
  8
0
 10
25.8086
 20
35.6504
 11
25.5918
 21
35.876
  0
LINE
  8
0
 10
25.5918
 20
35.876
 11
25.4697
 21
36.0146
  0
LINE
  8
0
 10
25.4697
 20
36.0146
 11
25.3574
 21
36.1514
  0
LINE
  8
0
 10
25.3574
 20
36.1514
 11
25.291
 21
36.2412
  0
LINE
  8
0
 10
25.291
 20
36.2412
 11
25.2314
 21
36.3291
  0
LINE
  8
0
 10
25.2314
 20
36.3291
 11
25.1807
 21
36.415
  0
LINE
  8
0
 10
25.1807
 20
36.415
 11
25.1396
 21
36.4961
  0
LINE
  8
0
 10
25.1396
 20
36.4961
 11
25.1221
 21
36.5371
  0
LINE
  8
0
 10
25.1221
 20
36.5371
 11
25.0938
 21
36.6201
  0
LINE
  8
0
 10
25.0938
 20
36.6201
 11
25.0811
 21
36.6631
  0
LINE
  8
0
 10
25.0811
 20
36.6631
 11
25.0547
 21
36.7949
  0
LINE
  8
0
 10
25.0547
 20
36.7949
 11
25.0449
 21
36.8848
  0
LINE
  8
0
 10
25.0449
 20
36.8848
 11
25.04
 21
36.9746
  0
LINE
  8
0
 10
25.04
 20
36.9746
 11
25.041
 21
37.0635
  0
LINE
  8
0
 10
25.041
 20
37.0635
 11
25.0479
 21
37.1523
  0
LINE
  8
0
 10
25.0479
 20
37.1523
 11
25.0586
 21
37.2383
  0
LINE
  8
0
 10
25.0586
 20
37.2383
 11
25.0752
 21
37.3213
  0
LINE
  8
0
 10
25.0752
 20
37.3213
 11
25.0957
 21
37.4004
  0
LINE
  8
0
 10
25.0957
 20
37.4004
 11
25.1201
 21
37.4756
  0
LINE
  8
0
 10
25.1201
 20
37.4756
 11
25.1484
 21
37.5449
  0
LINE
  8
0
 10
25.1484
 20
37.5449
 11
25.1807
 21
37.6084
  0
LINE
  8
0
 10
25.1807
 20
37.6084
 11
25.2158
 21
37.6641
  0
LINE
  8
0
 10
25.2158
 20
37.6641
 11
25.2549
 21
37.7129
  0
LINE
  8
0
 10
25.2549
 20
37.7129
 11
25.3223
 21
37.7783
  0
LINE
  8
0
 10
25.3223
 20
37.7783
 11
25.375
 21
37.8213
  0
LINE
  8
0
 10
25.375
 20
37.8213
 11
25.4326
 21
37.8613
  0
LINE
  8
0
 10
25.4326
 20
37.8613
 11
25.4639
 21
37.8809
  0
LINE
  8
0
 10
25.4639
 20
37.8809
 11
25.5303
 21
37.918
  0
LINE
  8
0
 10
25.5303
 20
37.918
 11
25.6025
 21
37.9521
  0
LINE
  8
0
 10
25.6025
 20
37.9521
 11
25.6787
 21
37.9824
  0
LINE
  8
0
 10
25.6787
 20
37.9824
 11
25.7607
 21
38.0088
  0
LINE
  8
0
 10
25.7607
 20
38.0088
 11
25.8467
 21
38.0312
  0
LINE
  8
0
 10
25.8467
 20
38.0312
 11
25.9375
 21
38.0488
  0
LINE
  8
0
 10
25.9375
 20
38.0488
 11
26.0312
 21
38.0605
  0
LINE
  8
0
 10
26.0312
 20
38.0605
 11
26.0801
 21
38.0645
  0
LINE
  8
0
 10
26.0801
 20
38.0645
 11
26.1807
 21
38.0674
  0
LINE
  8
0
 10
26.1807
 20
38.0674
 11
26.2842
 21
38.0635
  0
LINE
  8
0
 10
26.2842
 20
38.0635
 11
26.3916
 21
38.0527
  0
LINE
  8
0
 10
26.3916
 20
38.0527
 11
26.502
 21
38.0342
  0
LINE
  8
0
 10
26.502
 20
38.0342
 11
26.7061
 21
37.9863
  0
LINE
  8
0
 10
26.7061
 20
37.9863
 11
27.0723
 21
37.8838
  0
LINE
  8
0
 10
27.0723
 20
37.8838
 11
27.5029
 21
37.752
  0
LINE
  8
0
 10
27.5029
 20
37.752
 11
28.1758
 21
37.5361
  0
LINE
  8
0
 10
28.1758
 20
37.5361
 11
29.0879
 21
37.2305
  0
LINE
  8
0
 10
29.0879
 20
37.2305
 11
35.3213
 21
34.9121
  0
LINE
  8
0
 10
35.3213
 20
34.9121
 11
32.1123
 21
37.4609
  0
LINE
  8
0
 10
32.1123
 20
37.4609
 11
33.2432
 21
38.7002
  0
LINE
  8
0
 10
33.2432
 20
38.7002
 11
35.9375
 21
36.4814
  0
LINE
  8
0
 10
35.9375
 20
36.4814
 11
37.0576
 21
35.5449
  0
LINE
  8
0
 10
37.0576
 20
35.5449
 11
37.3721
 21
35.2754
  0
LINE
  8
0
 10
37.3721
 20
35.2754
 11
37.751
 21
34.9355
  0
LINE
  8
0
 10
37.751
 20
34.9355
 11
38.0195
 21
34.6826
  0
LINE
  8
0
 10
38.0195
 20
34.6826
 11
38.1611
 21
34.54
  0
LINE
  8
0
 10
38.1611
 20
34.54
 11
38.2881
 21
34.4014
  0
LINE
  8
0
 10
38.2881
 20
34.4014
 11
38.3652
 21
34.3115
  0
LINE
  8
0
 10
38.3652
 20
34.3115
 11
38.4346
 21
34.2236
  0
LINE
  8
0
 10
38.4346
 20
34.2236
 11
38.4971
 21
34.1357
  0
LINE
  8
0
 10
38.4971
 20
34.1357
 11
38.5537
 21
34.0488
  0
LINE
  8
0
 10
38.5537
 20
34.0488
 11
38.6025
 21
33.9609
  0
LINE
  8
0
 10
38.6025
 20
33.9609
 11
38.624
 21
33.918
  0
LINE
  8
0
 10
38.624
 20
33.918
 11
38.6621
 21
33.8301
  0
LINE
  8
0
 10
38.6621
 20
33.8301
 11
38.6924
 21
33.7422
  0
LINE
  8
0
 10
38.6924
 20
33.7422
 11
38.7168
 21
33.6523
  0
LINE
  8
0
 10
38.7168
 20
33.6523
 11
38.7354
 21
33.5615
  0
LINE
  8
0
 10
38.7354
 20
33.5615
 11
38.7471
 21
33.4697
  0
LINE
  8
0
 10
38.7471
 20
33.4697
 11
38.7529
 21
33.3789
  0
LINE
  8
0
 10
38.7529
 20
33.3789
 11
38.7539
 21
33.333
  0
LINE
  8
0
 10
38.7539
 20
33.333
 11
38.749
 21
33.2422
  0
LINE
  8
0
 10
38.749
 20
33.2422
 11
38.7363
 21
33.1533
  0
LINE
  8
0
 10
38.7363
 20
33.1533
 11
38.7275
 21
33.1094
  0
LINE
  8
0
 10
38.7275
 20
33.1094
 11
38.7021
 21
33.0234
  0
LINE
  8
0
 10
38.7021
 20
33.0234
 11
38.6689
 21
32.9395
  0
LINE
  8
0
 10
38.6689
 20
32.9395
 11
38.626
 21
32.8594
  0
LINE
  8
0
 10
38.626
 20
32.8594
 11
38.6016
 21
32.8213
  0
LINE
  8
0
 10
38.6016
 20
32.8213
 11
38.5742
 21
32.7832
  0
LINE
  8
0
 10
38.5742
 20
32.7832
 11
38.5117
 21
32.7109
  0
LINE
  8
0
 10
38.5117
 20
32.7109
 11
38.4766
 21
32.6768
  0
LINE
  8
0
 10
38.4766
 20
32.6768
 11
38.4385
 21
32.6445
  0
LINE
  8
0
 10
38.4385
 20
32.6445
 11
38.3545
 21
32.583
  0
LINE
  8
0
 10
38.3545
 20
32.583
 11
38.3086
 21
32.5547
  0
LINE
  8
0
 10
38.3086
 20
32.5547
 11
38.2588
 21
32.5273
  0
LINE
  8
0
 10
38.2588
 20
32.5273
 11
38.207
 21
32.502
  0
LINE
  8
0
 10
38.207
 20
32.502
 11
38.1514
 21
32.4795
  0
LINE
  8
0
 10
38.1514
 20
32.4795
 11
38.0938
 21
32.4609
  0
LINE
  8
0
 10
38.0938
 20
32.4609
 11
38.0322
 21
32.4463
  0
LINE
  8
0
 10
38.0322
 20
32.4463
 11
37.9688
 21
32.4346
  0
LINE
  8
0
 10
37.9688
 20
32.4346
 11
37.9023
 21
32.4268
  0
LINE
  8
0
 10
37.9023
 20
32.4268
 11
37.833
 21
32.4219
  0
LINE
  8
0
 10
37.833
 20
32.4219
 11
37.7627
 21
32.4199
  0
LINE
  8
0
 10
37.7627
 20
32.4199
 11
37.6162
 21
32.4238
  0
LINE
  8
0
 10
37.6162
 20
32.4238
 11
37.541
 21
32.4297
  0
LINE
  8
0
 10
37.541
 20
32.4297
 11
37.3867
 21
32.4482
  0
LINE
  8
0
 10
37.3867
 20
32.4482
 11
37.2295
 21
32.4746
  0
LINE
  8
0
 10
37.2295
 20
32.4746
 11
37.0713
 21
32.5078
  0
LINE
  8
0
 10
37.0713
 20
32.5078
 11
36.834
 21
32.5664
  0
LINE
  8
0
 10
36.834
 20
32.5664
 11
36.5303
 21
32.6543
  0
LINE
  8
0
 10
36.5303
 20
32.6543
 11
36.0137
 21
32.8232
  0
LINE
  8
0
 10
36.0137
 20
32.8232
 11
35.8271
 21
32.8896
  0
LINE
  8
0
 10
35.8271
 20
32.8896
 11
35.2832
 21
33.0918
  0
LINE
  8
0
 10
35.2832
 20
33.0918
 11
30.0225
 21
35.0977
  0
LINE
  8
0
 10
30.0225
 20
35.0977
 11
28.2334
 21
35.7852
  0
LINE
  8
0
 10
28.2334
 20
35.7852
 11
35.8125
 21
29.5566
  0
LINE
  8
0
 10
35.8125
 20
29.5566
 11
36.7373
 21
28.79
  0
LINE
  8
0
 10
36.7373
 20
28.79
 11
36.9873
 21
28.5693
  0
LINE
  8
0
 10
36.9873
 20
28.5693
 11
37.4395
 21
28.1523
  0
LINE
  8
0
 10
37.4395
 20
28.1523
 11
37.7988
 21
27.8066
  0
LINE
  8
0
 10
37.7988
 20
27.8066
 11
38.0059
 21
27.5996
  0
LINE
  8
0
 10
38.0059
 20
27.5996
 11
38.1953
 21
27.4014
  0
LINE
  8
0
 10
38.1953
 20
27.4014
 11
38.3066
 21
27.2783
  0
LINE
  8
0
 10
38.3066
 20
27.2783
 11
38.4023
 21
27.166
  0
LINE
  8
0
 10
38.4023
 20
27.166
 11
38.4795
 21
27.0664
  0
LINE
  8
0
 10
38.4795
 20
27.0664
 11
38.5352
 21
26.9824
  0
LINE
  8
0
 10
38.5352
 20
26.9824
 11
38.5537
 21
26.9473
  0
LINE
  8
0
 10
38.5537
 20
26.9473
 11
38.583
 21
26.8789
  0
LINE
  8
0
 10
38.583
 20
26.8789
 11
38.6221
 21
26.7705
  0
LINE
  8
0
 10
38.6221
 20
26.7705
 11
38.6426
 21
26.6953
  0
LINE
  8
0
 10
38.6426
 20
26.6953
 11
38.6592
 21
26.6191
  0
LINE
  8
0
 10
38.6592
 20
26.6191
 11
38.6719
 21
26.54
  0
LINE
  8
0
 10
38.6719
 20
26.54
 11
38.6807
 21
26.4209
  0
LINE
  8
0
 10
38.6807
 20
26.4209
 11
38.6777
 21
26.3018
  0
LINE
  8
0
 10
38.6777
 20
26.3018
 11
38.668
 21
26.2217
  0
LINE
  8
0
 10
38.668
 20
26.2217
 11
38.6514
 21
26.1426
  0
LINE
  8
0
 10
38.6514
 20
26.1426
 11
38.6289
 21
26.0654
  0
LINE
  8
0
 10
38.6289
 20
26.0654
 11
38.5986
 21
25.9893
  0
LINE
  8
0
 10
38.5986
 20
25.9893
 11
38.5605
 21
25.915
  0
LINE
  8
0
 10
38.5605
 20
25.915
 11
38.5391
 21
25.8789
  0
LINE
  8
0
 10
38.5391
 20
25.8789
 11
38.5156
 21
25.8438
  0
LINE
  8
0
 10
38.5156
 20
25.8438
 11
38.4609
 21
25.7754
  0
LINE
  8
0
 10
38.4609
 20
25.7754
 11
38.4307
 21
25.7441
  0
LINE
  8
0
 10
38.4307
 20
25.7441
 11
38.3965
 21
25.7148
  0
LINE
  8
0
 10
38.3965
 20
25.7148
 11
38.3594
 21
25.6875
  0
LINE
  8
0
 10
38.3594
 20
25.6875
 11
38.3193
 21
25.6631
  0
LINE
  8
0
 10
38.3193
 20
25.6631
 11
38.2773
 21
25.6416
  0
LINE
  8
0
 10
38.2773
 20
25.6416
 11
38.2314
 21
25.6221
  0
LINE
  8
0
 10
38.2314
 20
25.6221
 11
38.1846
 21
25.6045
  0
LINE
  8
0
 10
38.1846
 20
25.6045
 11
38.1348
 21
25.5889
  0
LINE
  8
0
 10
38.1348
 20
25.5889
 11
38.083
 21
25.5752
  0
LINE
  8
0
 10
38.083
 20
25.5752
 11
37.9756
 21
25.5547
  0
LINE
  8
0
 10
37.9756
 20
25.5547
 11
37.8633
 21
25.54
  0
LINE
  8
0
 10
37.8633
 20
25.54
 11
37.7461
 21
25.5332
  0
LINE
  8
0
 10
37.7461
 20
25.5332
 11
37.6279
 21
25.5303
  0
LINE
  8
0
 10
37.6279
 20
25.5303
 11
37.5078
 21
25.5332
  0
LINE
  8
0
 10
37.5078
 20
25.5332
 11
37.332
 21
25.5459
  0
LINE
  8
0
 10
37.332
 20
25.5459
 11
37.1621
 21
25.5645
  0
LINE
  8
0
 10
37.1621
 20
25.5645
 11
36.958
 21
25.5977
  0
LINE
  8
0
 10
36.958
 20
25.5977
 11
36.8682
 21
25.6152
  0
LINE
  8
0
 10
36.8682
 20
25.6152
 11
36.8223
 21
25.626
  0
LINE
  8
0
 10
36.8223
 20
25.626
 11
36.709
 21
25.6611
  0
LINE
  8
0
 10
36.709
 20
25.6611
 11
36.5723
 21
25.71
  0
LINE
  8
0
 10
36.5723
 20
25.71
 11
36.334
 21
25.8057
  0
LINE
  8
0
 10
36.334
 20
25.8057
 11
35.9756
 21
25.9609
  0
LINE
  8
0
 10
35.9756
 20
25.9609
 11
35.3467
 21
26.252
  0
LINE
  8
0
 10
35.3467
 20
26.252
 11
34.7676
 21
26.5332
  0
LINE
  8
0
 10
34.7676
 20
26.5332
 11
28.0713
 21
29.6094
  0
LINE
  8
0
 10
28.0713
 20
29.6094
 11
31.2578
 21
26.0508
  0
LINE
  8
0
 10
31.2578
 20
26.0508
 11
29.8955
 21
25.0869
  0
LINE
  8
0
 10
29.8955
 20
25.0869
 11
27.1699
 21
28.1582
  0
LINE
  8
0
 10
19.7402
 20
19.7402
 11
0
 21
19.7402
  0
LINE
  8
0
 10
0
 20
19.7402
 11
0
 21
0
  0
LINE
  8
0
 10
0
 20
0
 11
19.7402
 21
0
  0
LINE
  8
0
 10
19.7402
 20
0
 11
19.7402
 21
19.7402
  0
LINE
  8
0
 10
4.41113
 20
6.41797
 11
4.3623
 21
6.42188
  0
LINE
  8
0
 10
4.3623
 20
6.42188
 11
4.31445
 21
6.42871
  0
LINE
  8
0
 10
4.31445
 20
6.42871
 11
4.2207
 21
6.44824
  0
LINE
  8
0
 10
4.2207
 20
6.44824
 11
4.13086
 21
6.47754
  0
LINE
  8
0
 10
4.13086
 20
6.47754
 11
4.08789
 21
6.49512
  0
LINE
  8
0
 10
4.08789
 20
6.49512
 11
4.0459
 21
6.51465
  0
LINE
  8
0
 10
4.0459
 20
6.51465
 11
3.96484
 21
6.56055
  0
LINE
  8
0
 10
3.96484
 20
6.56055
 11
3.92578
 21
6.58594
  0
LINE
  8
0
 10
3.92578
 20
6.58594
 11
3.88867
 21
6.61328
  0
LINE
  8
0
 10
3.88867
 20
6.61328
 11
3.85352
 21
6.64258
  0
LINE
  8
0
 10
3.85352
 20
6.64258
 11
3.81934
 21
6.67383
  0
LINE
  8
0
 10
3.81934
 20
6.67383
 11
3.78613
 21
6.70703
  0
LINE
  8
0
 10
3.78613
 20
6.70703
 11
3.72656
 21
6.77637
  0
LINE
  8
0
 10
3.72656
 20
6.77637
 11
3.69824
 21
6.81348
  0
LINE
  8
0
 10
3.69824
 20
6.81348
 11
3.67285
 21
6.85254
  0
LINE
  8
0
 10
3.67285
 20
6.85254
 11
3.62695
 21
6.93359
  0
LINE
  8
0
 10
3.62695
 20
6.93359
 11
3.60742
 21
6.97559
  0
LINE
  8
0
 10
3.60742
 20
6.97559
 11
3.58984
 21
7.01855
  0
LINE
  8
0
 10
3.58984
 20
7.01855
 11
3.56055
 21
7.1084
  0
LINE
  8
0
 10
3.56055
 20
7.1084
 11
3.5498
 21
7.1543
  0
LINE
  8
0
 10
3.5498
 20
7.1543
 11
3.53418
 21
7.25
  0
LINE
  8
0
 10
3.53418
 20
7.25
 11
3.53027
 21
7.29883
  0
LINE
  8
0
 10
3.53027
 20
7.29883
 11
3.53125
 21
15.4561
  0
LINE
  8
0
 10
3.53125
 20
15.4561
 11
3.53516
 21
15.5088
  0
LINE
  8
0
 10
3.53516
 20
15.5088
 11
3.55273
 21
15.6094
  0
LINE
  8
0
 10
3.55273
 20
15.6094
 11
3.56543
 21
15.6582
  0
LINE
  8
0
 10
3.56543
 20
15.6582
 11
3.58984
 21
15.7305
  0
LINE
  8
0
 10
3.58984
 20
15.7305
 11
3.60938
 21
15.7764
  0
LINE
  8
0
 10
3.60938
 20
15.7764
 11
3.65527
 21
15.8652
  0
LINE
  8
0
 10
3.65527
 20
15.8652
 11
3.69531
 21
15.9277
  0
LINE
  8
0
 10
3.69531
 20
15.9277
 11
3.75586
 21
16.0059
  0
LINE
  8
0
 10
3.75586
 20
16.0059
 11
3.78906
 21
16.042
  0
LINE
  8
0
 10
3.78906
 20
16.042
 11
3.84277
 21
16.0938
  0
LINE
  8
0
 10
3.84277
 20
16.0938
 11
3.91211
 21
16.1641
  0
LINE
  8
0
 10
3.91211
 20
16.1641
 11
3.96875
 21
16.2119
  0
LINE
  8
0
 10
3.96875
 20
16.2119
 11
4.07129
 21
16.2812
  0
LINE
  8
0
 10
4.07129
 20
16.2812
 11
4.11523
 21
16.3057
  0
LINE
  8
0
 10
4.11523
 20
16.3057
 11
4.20605
 21
16.3467
  0
LINE
  8
0
 10
4.20605
 20
16.3467
 11
4.27832
 21
16.3711
  0
LINE
  8
0
 10
4.27832
 20
16.3711
 11
4.35254
 21
16.3896
  0
LINE
  8
0
 10
4.35254
 20
16.3896
 11
4.40234
 21
16.3984
  0
LINE
  8
0
 10
4.40234
 20
16.3984
 11
4.48047
 21
16.4062
  0
LINE
  8
0
 10
4.48047
 20
16.4062
 11
12.6377
 21
16.4062
  0
LINE
  8
0
 10
12.6377
 20
16.4062
 11
12.6865
 21
16.4023
  0
LINE
  8
0
 10
12.6865
 20
16.4023
 11
12.7344
 21
16.3955
  0
LINE
  8
0
 10
12.7344
 20
16.3955
 11
12.8281
 21
16.376
  0
LINE
  8
0
 10
12.8281
 20
16.376
 11
12.918
 21
16.3467
  0
LINE
  8
0
 10
12.918
 20
16.3467
 11
12.9609
 21
16.3291
  0
LINE
  8
0
 10
12.9609
 20
16.3291
 11
13.0029
 21
16.3096
  0
LINE
  8
0
 10
13.0029
 20
16.3096
 11
13.084
 21
16.2637
  0
LINE
  8
0
 10
13.084
 20
16.2637
 11
13.1592
 21
16.21
  0
LINE
  8
0
 10
13.1592
 20
16.21
 11
13.1953
 21
16.1807
  0
LINE
  8
0
 10
13.1953
 20
16.1807
 11
13.2295
 21
16.1494
  0
LINE
  8
0
 10
13.2295
 20
16.1494
 11
13.2617
 21
16.1172
  0
LINE
  8
0
 10
13.2617
 20
16.1172
 11
13.293
 21
16.083
  0
LINE
  8
0
 10
13.293
 20
16.083
 11
13.3223
 21
16.0469
  0
LINE
  8
0
 10
13.3223
 20
16.0469
 11
13.376
 21
15.9717
  0
LINE
  8
0
 10
13.376
 20
15.9717
 11
13.4219
 21
15.8906
  0
LINE
  8
0
 10
13.4219
 20
15.8906
 11
13.4414
 21
15.8486
  0
LINE
  8
0
 10
13.4414
 20
15.8486
 11
13.4746
 21
15.7607
  0
LINE
  8
0
 10
13.4746
 20
15.7607
 11
13.4883
 21
15.7158
  0
LINE
  8
0
 10
13.4883
 20
15.7158
 11
13.5078
 21
15.6221
  0
LINE
  8
0
 10
13.5078
 20
15.6221
 11
13.5146
 21
15.5742
  0
LINE
  8
0
 10
13.5146
 20
15.5742
 11
13.5186
 21
15.5254
  0
LINE
  8
0
 10
13.5186
 20
15.5254
 11
13.5186
 21
14.9609
  0
LINE
  8
0
 10
13.5186
 20
14.9609
 11
13.5146
 21
14.9121
  0
LINE
  8
0
 10
13.5146
 20
14.9121
 11
13.5088
 21
14.8643
  0
LINE
  8
0
 10
13.5088
 20
14.8643
 11
13.5
 21
14.8174
  0
LINE
  8
0
 10
13.5
 20
14.8174
 11
13.4756
 21
14.7256
  0
LINE
  8
0
 10
13.4756
 20
14.7256
 11
13.46
 21
14.6816
  0
LINE
  8
0
 10
13.46
 20
14.6816
 11
13.4219
 21
14.5967
  0
LINE
  8
0
 10
13.4219
 20
14.5967
 11
13.4004
 21
14.5557
  0
LINE
  8
0
 10
13.4004
 20
14.5557
 11
13.3506
 21
14.4766
  0
LINE
  8
0
 10
13.3506
 20
14.4766
 11
13.3232
 21
14.4395
  0
LINE
  8
0
 10
13.3232
 20
14.4395
 11
13.2939
 21
14.4043
  0
LINE
  8
0
 10
13.2939
 20
14.4043
 11
13.2627
 21
14.3701
  0
LINE
  8
0
 10
13.2627
 20
14.3701
 11
13.2295
 21
14.3369
  0
LINE
  8
0
 10
13.2295
 20
14.3369
 11
13.1602
 21
14.2773
  0
LINE
  8
0
 10
13.1602
 20
14.2773
 11
13.123
 21
14.249
  0
LINE
  8
0
 10
13.123
 20
14.249
 11
13.0449
 21
14.2002
  0
LINE
  8
0
 10
13.0449
 20
14.2002
 11
13.0039
 21
14.1777
  0
LINE
  8
0
 10
13.0039
 20
14.1777
 11
12.918
 21
14.1406
  0
LINE
  8
0
 10
12.918
 20
14.1406
 11
12.874
 21
14.125
  0
LINE
  8
0
 10
12.874
 20
14.125
 11
12.7822
 21
14.0996
  0
LINE
  8
0
 10
12.7822
 20
14.0996
 11
12.6875
 21
14.085
  0
LINE
  8
0
 10
12.6875
 20
14.085
 11
12.6387
 21
14.0811
  0
LINE
  8
0
 10
12.6387
 20
14.0811
 11
5.85645
 21
14.0801
  0
LINE
  8
0
 10
5.85645
 20
14.0801
 11
5.85547
 21
7.29785
  0
LINE
  8
0
 10
5.85547
 20
7.29785
 11
5.85156
 21
7.24902
  0
LINE
  8
0
 10
5.85156
 20
7.24902
 11
5.84473
 21
7.20117
  0
LINE
  8
0
 10
5.84473
 20
7.20117
 11
5.83594
 21
7.1543
  0
LINE
  8
0
 10
5.83594
 20
7.1543
 11
5.8252
 21
7.1084
  0
LINE
  8
0
 10
5.8252
 20
7.1084
 11
5.81152
 21
7.0625
  0
LINE
  8
0
 10
5.81152
 20
7.0625
 11
5.77832
 21
6.97461
  0
LINE
  8
0
 10
5.77832
 20
6.97461
 11
5.75879
 21
6.93262
  0
LINE
  8
0
 10
5.75879
 20
6.93262
 11
5.71289
 21
6.85156
  0
LINE
  8
0
 10
5.71289
 20
6.85156
 11
5.6875
 21
6.81348
  0
LINE
  8
0
 10
5.6875
 20
6.81348
 11
5.62988
 21
6.74023
  0
LINE
  8
0
 10
5.62988
 20
6.74023
 11
5.59961
 21
6.70605
  0
LINE
  8
0
 10
5.59961
 20
6.70605
 11
5.53223
 21
6.64258
  0
LINE
  8
0
 10
5.53223
 20
6.64258
 11
5.49707
 21
6.61328
  0
LINE
  8
0
 10
5.49707
 20
6.61328
 11
5.45996
 21
6.58594
  0
LINE
  8
0
 10
5.45996
 20
6.58594
 11
5.38086
 21
6.53613
  0
LINE
  8
0
 10
5.38086
 20
6.53613
 11
5.29785
 21
6.49414
  0
LINE
  8
0
 10
5.29785
 20
6.49414
 11
5.25488
 21
6.47656
  0
LINE
  8
0
 10
5.25488
 20
6.47656
 11
5.20996
 21
6.46094
  0
LINE
  8
0
 10
5.20996
 20
6.46094
 11
5.11914
 21
6.43652
  0
LINE
  8
0
 10
5.11914
 20
6.43652
 11
5.07129
 21
6.42773
  0
LINE
  8
0
 10
5.07129
 20
6.42773
 11
5.02441
 21
6.42188
  0
LINE
  8
0
 10
5.02441
 20
6.42188
 11
4.97559
 21
6.41797
  0
LINE
  8
0
 10
4.97559
 20
6.41797
 11
4.41113
 21
6.41797
  0
LINE
  8
0
 10
85.7393
 20
19.7402
 11
66
 21
19.7402
  0
LINE
  8
0
 10
66
 20
19.7402
 11
66
 21
0
  0
LINE
  8
0
 10
66
 20
0
 11
85.7393
 21
0
  0
LINE
  8
0
 10
85.7393
 20
0
 11
85.7393
 21
19.7402
  0
LINE
  8
0
 10
74.9658
 20
4.75879
 11
74.8955
 21
4.76758
  0
LINE
  8
0
 10
74.8955
 20
4.76758
 11
74.8301
 21
4.78125
  0
LINE
  8
0
 10
74.8301
 20
4.78125
 11
74.7988
 21
4.79004
  0
LINE
  8
0
 10
74.7988
 20
4.79004
 11
74.709
 21
4.82324
  0
LINE
  8
0
 10
74.709
 20
4.82324
 11
74.626
 21
4.86523
  0
LINE
  8
0
 10
74.626
 20
4.86523
 11
74.5479
 21
4.91504
  0
LINE
  8
0
 10
74.5479
 20
4.91504
 11
74.4736
 21
4.96973
  0
LINE
  8
0
 10
74.4736
 20
4.96973
 11
74.1826
 21
5.21875
  0
LINE
  8
0
 10
74.1826
 20
5.21875
 11
69.457
 21
9.14062
  0
LINE
  8
0
 10
69.457
 20
9.14062
 11
69.3486
 21
9.23926
  0
LINE
  8
0
 10
69.3486
 20
9.23926
 11
69.2773
 21
9.3125
  0
LINE
  8
0
 10
69.2773
 20
9.3125
 11
69.2344
 21
9.3623
  0
LINE
  8
0
 10
69.2344
 20
9.3623
 11
69.1777
 21
9.43848
  0
LINE
  8
0
 10
69.1777
 20
9.43848
 11
69.1445
 21
9.49121
  0
LINE
  8
0
 10
69.1445
 20
9.49121
 11
69.1162
 21
9.5459
  0
LINE
  8
0
 10
69.1162
 20
9.5459
 11
69.082
 21
9.63184
  0
LINE
  8
0
 10
69.082
 20
9.63184
 11
69.0723
 21
9.66211
  0
LINE
  8
0
 10
69.0723
 20
9.66211
 11
69.0576
 21
9.72461
  0
LINE
  8
0
 10
69.0576
 20
9.72461
 11
69.0479
 21
9.79102
  0
LINE
  8
0
 10
69.0479
 20
9.79102
 11
69.043
 21
9.86035
  0
LINE
  8
0
 10
69.043
 20
9.86035
 11
69.043
 21
9.93359
  0
LINE
  8
0
 10
69.043
 20
9.93359
 11
69.0479
 21
10.0029
  0
LINE
  8
0
 10
69.0479
 20
10.0029
 11
69.0518
 21
10.0361
  0
LINE
  8
0
 10
69.0518
 20
10.0361
 11
69.0645
 21
10.1006
  0
LINE
  8
0
 10
69.0645
 20
10.1006
 11
69.082
 21
10.1611
  0
LINE
  8
0
 10
69.082
 20
10.1611
 11
69.1035
 21
10.2197
  0
LINE
  8
0
 10
69.1035
 20
10.2197
 11
69.1299
 21
10.2754
  0
LINE
  8
0
 10
69.1299
 20
10.2754
 11
69.1445
 21
10.3018
  0
LINE
  8
0
 10
69.1445
 20
10.3018
 11
69.1777
 21
10.3545
  0
LINE
  8
0
 10
69.1777
 20
10.3545
 11
69.2148
 21
10.4062
  0
LINE
  8
0
 10
69.2148
 20
10.4062
 11
69.2773
 21
10.4805
  0
LINE
  8
0
 10
69.2773
 20
10.4805
 11
69.3486
 21
10.5537
  0
LINE
  8
0
 10
69.3486
 20
10.5537
 11
69.4287
 21
10.6279
  0
LINE
  8
0
 10
69.4287
 20
10.6279
 11
69.5771
 21
10.7539
  0
LINE
  8
0
 10
69.5771
 20
10.7539
 11
74.208
 21
14.5957
  0
LINE
  8
0
 10
74.208
 20
14.5957
 11
74.4492
 21
14.8047
  0
LINE
  8
0
 10
74.4492
 20
14.8047
 11
74.5479
 21
14.8789
  0
LINE
  8
0
 10
74.5479
 20
14.8789
 11
74.6533
 21
14.9434
  0
LINE
  8
0
 10
74.6533
 20
14.9434
 11
74.7383
 21
14.9824
  0
LINE
  8
0
 10
74.7383
 20
14.9824
 11
74.7988
 21
15.0029
  0
LINE
  8
0
 10
74.7988
 20
15.0029
 11
74.8623
 21
15.0195
  0
LINE
  8
0
 10
74.8623
 20
15.0195
 11
74.9297
 21
15.0312
  0
LINE
  8
0
 10
74.9297
 20
15.0312
 11
75.002
 21
15.0371
  0
LINE
  8
0
 10
75.002
 20
15.0371
 11
75.0908
 21
15.0361
  0
LINE
  8
0
 10
75.0908
 20
15.0361
 11
75.1406
 21
15.0322
  0
LINE
  8
0
 10
75.1406
 20
15.0322
 11
75.2363
 21
15.0166
  0
LINE
  8
0
 10
75.2363
 20
15.0166
 11
75.2812
 21
15.0049
  0
LINE
  8
0
 10
75.2812
 20
15.0049
 11
75.3252
 21
14.9912
  0
LINE
  8
0
 10
75.3252
 20
14.9912
 11
75.3682
 21
14.9756
  0
LINE
  8
0
 10
75.3682
 20
14.9756
 11
75.4492
 21
14.9375
  0
LINE
  8
0
 10
75.4492
 20
14.9375
 11
75.5234
 21
14.8916
  0
LINE
  8
0
 10
75.5234
 20
14.8916
 11
75.5586
 21
14.8662
  0
LINE
  8
0
 10
75.5586
 20
14.8662
 11
75.5928
 21
14.8389
  0
LINE
  8
0
 10
75.5928
 20
14.8389
 11
75.624
 21
14.8105
  0
LINE
  8
0
 10
75.624
 20
14.8105
 11
75.6543
 21
14.7803
  0
LINE
  8
0
 10
75.6543
 20
14.7803
 11
75.6826
 21
14.749
  0
LINE
  8
0
 10
75.6826
 20
14.749
 11
75.71
 21
14.7158
  0
LINE
  8
0
 10
75.71
 20
14.7158
 11
75.7578
 21
14.6475
  0
LINE
  8
0
 10
75.7578
 20
14.6475
 11
75.7998
 21
14.5752
  0
LINE
  8
0
 10
75.7998
 20
14.5752
 11
75.834
 21
14.499
  0
LINE
  8
0
 10
75.834
 20
14.499
 11
75.8613
 21
14.4209
  0
LINE
  8
0
 10
75.8613
 20
14.4209
 11
75.8721
 21
14.3818
  0
LINE
  8
0
 10
75.8721
 20
14.3818
 11
75.8877
 21
14.3018
  0
LINE
  8
0
 10
75.8877
 20
14.3018
 11
75.8955
 21
14.2207
  0
LINE
  8
0
 10
75.8955
 20
14.2207
 11
75.8965
 21
11.6104
  0
LINE
  8
0
 10
75.8965
 20
11.6104
 11
81.9395
 21
11.6094
  0
LINE
  8
0
 10
81.9395
 20
11.6094
 11
81.9844
 21
11.6055
  0
LINE
  8
0
 10
81.9844
 20
11.6055
 11
82.0283
 21
11.5996
  0
LINE
  8
0
 10
82.0283
 20
11.5996
 11
82.0713
 21
11.5918
  0
LINE
  8
0
 10
82.0713
 20
11.5918
 11
82.1553
 21
11.5693
  0
LINE
  8
0
 10
82.1553
 20
11.5693
 11
82.1963
 21
11.5547
  0
LINE
  8
0
 10
82.1963
 20
11.5547
 11
82.2754
 21
11.5205
  0
LINE
  8
0
 10
82.2754
 20
11.5205
 11
82.3496
 21
11.4785
  0
LINE
  8
0
 10
82.3496
 20
11.4785
 11
82.4189
 21
11.4287
  0
LINE
  8
0
 10
82.4189
 20
11.4287
 11
82.4521
 21
11.4023
  0
LINE
  8
0
 10
82.4521
 20
11.4023
 11
82.5137
 21
11.3438
  0
LINE
  8
0
 10
82.5137
 20
11.3438
 11
82.5693
 21
11.2793
  0
LINE
  8
0
 10
82.5693
 20
11.2793
 11
82.5947
 21
11.2451
  0
LINE
  8
0
 10
82.5947
 20
11.2451
 11
82.6406
 21
11.1729
  0
LINE
  8
0
 10
82.6406
 20
11.1729
 11
82.6787
 21
11.0957
  0
LINE
  8
0
 10
82.6787
 20
11.0957
 11
82.6953
 21
11.0566
  0
LINE
  8
0
 10
82.6953
 20
11.0566
 11
82.71
 21
11.0156
  0
LINE
  8
0
 10
82.71
 20
11.0156
 11
82.7324
 21
10.9307
  0
LINE
  8
0
 10
82.7324
 20
10.9307
 11
82.7402
 21
10.8877
  0
LINE
  8
0
 10
82.7402
 20
10.8877
 11
82.7461
 21
10.8438
  0
LINE
  8
0
 10
82.7461
 20
10.8438
 11
82.751
 21
10.7539
  0
LINE
  8
0
 10
82.751
 20
10.7539
 11
82.751
 21
9.04004
  0
LINE
  8
0
 10
82.751
 20
9.04004
 11
82.7461
 21
8.9502
  0
LINE
  8
0
 10
82.7461
 20
8.9502
 11
82.7324
 21
8.8623
  0
LINE
  8
0
 10
82.7324
 20
8.8623
 11
82.71
 21
8.77832
  0
LINE
  8
0
 10
82.71
 20
8.77832
 11
82.6953
 21
8.7373
  0
LINE
  8
0
 10
82.6953
 20
8.7373
 11
82.6787
 21
8.69727
  0
LINE
  8
0
 10
82.6787
 20
8.69727
 11
82.6406
 21
8.62109
  0
LINE
  8
0
 10
82.6406
 20
8.62109
 11
82.5947
 21
8.54883
  0
LINE
  8
0
 10
82.5947
 20
8.54883
 11
82.5693
 21
8.51465
  0
LINE
  8
0
 10
82.5693
 20
8.51465
 11
82.542
 21
8.48145
  0
LINE
  8
0
 10
82.542
 20
8.48145
 11
82.5137
 21
8.4502
  0
LINE
  8
0
 10
82.5137
 20
8.4502
 11
82.4834
 21
8.41992
  0
LINE
  8
0
 10
82.4834
 20
8.41992
 11
82.4521
 21
8.3916
  0
LINE
  8
0
 10
82.4521
 20
8.3916
 11
82.4189
 21
8.36426
  0
LINE
  8
0
 10
82.4189
 20
8.36426
 11
82.3848
 21
8.33887
  0
LINE
  8
0
 10
82.3848
 20
8.33887
 11
82.3496
 21
8.31543
  0
LINE
  8
0
 10
82.3496
 20
8.31543
 11
82.2754
 21
8.27344
  0
LINE
  8
0
 10
82.2754
 20
8.27344
 11
82.2363
 21
8.25488
  0
LINE
  8
0
 10
82.2363
 20
8.25488
 11
82.1963
 21
8.23828
  0
LINE
  8
0
 10
82.1963
 20
8.23828
 11
82.1143
 21
8.21191
  0
LINE
  8
0
 10
82.1143
 20
8.21191
 11
82.0283
 21
8.19336
  0
LINE
  8
0
 10
82.0283
 20
8.19336
 11
81.9844
 21
8.1875
  0
LINE
  8
0
 10
81.9844
 20
8.1875
 11
81.8936
 21
8.18359
  0
LINE
  8
0
 10
81.8936
 20
8.18359
 11
75.8965
 21
8.18359
  0
LINE
  8
0
 10
75.8965
 20
8.18359
 11
75.8955
 21
5.57227
  0
LINE
  8
0
 10
75.8955
 20
5.57227
 11
75.8877
 21
5.49219
  0
LINE
  8
0
 10
75.8877
 20
5.49219
 11
75.8721
 21
5.41211
  0
LINE
  8
0
 10
75.8721
 20
5.41211
 11
75.8613
 21
5.37207
  0
LINE
  8
0
 10
75.8613
 20
5.37207
 11
75.834
 21
5.29395
  0
LINE
  8
0
 10
75.834
 20
5.29395
 11
75.7998
 21
5.21875
  0
LINE
  8
0
 10
75.7998
 20
5.21875
 11
75.7578
 21
5.14648
  0
LINE
  8
0
 10
75.7578
 20
5.14648
 11
75.71
 21
5.07715
  0
LINE
  8
0
 10
75.71
 20
5.07715
 11
75.6543
 21
5.01367
  0
LINE
  8
0
 10
75.6543
 20
5.01367
 11
75.624
 21
4.9834
  0
LINE
  8
0
 10
75.624
 20
4.9834
 11
75.5928
 21
4.95508
  0
LINE
  8
0
 10
75.5928
 20
4.95508
 11
75.5586
 21
4.92773
  0
LINE
  8
0
 10
75.5586
 20
4.92773
 11
75.4873
 21
4.87793
  0
LINE
  8
0
 10
75.4873
 20
4.87793
 11
75.4092
 21
4.83594
  0
LINE
  8
0
 10
75.4092
 20
4.83594
 11
75.3682
 21
4.81836
  0
LINE
  8
0
 10
75.3682
 20
4.81836
 11
75.2812
 21
4.78809
  0
LINE
  8
0
 10
75.2812
 20
4.78809
 11
75.1885
 21
4.76758
  0
LINE
  8
0
 10
75.1885
 20
4.76758
 11
75.1406
 21
4.76172
  0
LINE
  8
0
 10
75.1406
 20
4.76172
 11
75.0908
 21
4.75781
  0
LINE
  8
0
 10
75.0908
 20
4.75781
 11
75.04
 21
4.75586
  0
LINE
  8
0
 10
75.04
 20
4.75586
 11
74.9658
 21
4.75879
  0
LINE
  8
0
 10
41.7393
 20
19.7402
 11
22
 21
19.7402
  0
LINE
  8
0
 10
22
 20
19.7402
 11
22
 21
0
  0
LINE
  8
0
 10
22
 20
0
 11
41.7393
 21
0
  0
LINE
  8
0
 10
41.7393
 20
0
 11
41.7393
 21
19.7402
  0
LINE
  8
0
 10
30.9658
 20
4.75879
 11
30.8955
 21
4.76758
  0
LINE
  8
0
 10
30.8955
 20
4.76758
 11
30.8301
 21
4.78125
  0
LINE
  8
0
 10
30.8301
 20
4.78125
 11
30.7988
 21
4.79004
  0
LINE
  8
0
 10
30.7988
 20
4.79004
 11
30.709
 21
4.82324
  0
LINE
  8
0
 10
30.709
 20
4.82324
 11
30.626
 21
4.86523
  0
LINE
  8
0
 10
30.626
 20
4.86523
 11
30.5479
 21
4.91504
  0
LINE
  8
0
 10
30.5479
 20
4.91504
 11
30.4736
 21
4.96973
  0
LINE
  8
0
 10
30.4736
 20
4.96973
 11
30.1826
 21
5.21875
  0
LINE
  8
0
 10
30.1826
 20
5.21875
 11
25.457
 21
9.14062
  0
LINE
  8
0
 10
25.457
 20
9.14062
 11
25.3486
 21
9.23926
  0
LINE
  8
0
 10
25.3486
 20
9.23926
 11
25.2773
 21
9.3125
  0
LINE
  8
0
 10
25.2773
 20
9.3125
 11
25.2344
 21
9.3623
  0
LINE
  8
0
 10
25.2344
 20
9.3623
 11
25.1777
 21
9.43848
  0
LINE
  8
0
 10
25.1777
 20
9.43848
 11
25.1445
 21
9.49121
  0
LINE
  8
0
 10
25.1445
 20
9.49121
 11
25.1162
 21
9.5459
  0
LINE
  8
0
 10
25.1162
 20
9.5459
 11
25.082
 21
9.63184
  0
LINE
  8
0
 10
25.082
 20
9.63184
 11
25.0723
 21
9.66211
  0
LINE
  8
0
 10
25.0723
 20
9.66211
 11
25.0576
 21
9.72461
  0
LINE
  8
0
 10
25.0576
 20
9.72461
 11
25.0479
 21
9.79102
  0
LINE
  8
0
 10
25.0479
 20
9.79102
 11
25.043
 21
9.86035
  0
LINE
  8
0
 10
25.043
 20
9.86035
 11
25.043
 21
9.93359
  0
LINE
  8
0
 10
25.043
 20
9.93359
 11
25.0479
 21
10.0029
  0
LINE
  8
0
 10
25.0479
 20
10.0029
 11
25.0518
 21
10.0361
  0
LINE
  8
0
 10
25.0518
 20
10.0361
 11
25.0645
 21
10.1006
  0
LINE
  8
0
 10
25.0645
 20
10.1006
 11
25.082
 21
10.1611
  0
LINE
  8
0
 10
25.082
 20
10.1611
 11
25.1035
 21
10.2197
  0
LINE
  8
0
 10
25.1035
 20
10.2197
 11
25.1299
 21
10.2754
  0
LINE
  8
0
 10
25.1299
 20
10.2754
 11
25.1445
 21
10.3018
  0
LINE
  8
0
 10
25.1445
 20
10.3018
 11
25.1777
 21
10.3545
  0
LINE
  8
0
 10
25.1777
 20
10.3545
 11
25.2148
 21
10.4062
  0
LINE
  8
0
 10
25.2148
 20
10.4062
 11
25.2773
 21
10.4805
  0
LINE
  8
0
 10
25.2773
 20
10.4805
 11
25.3486
 21
10.5537
  0
LINE
  8
0
 10
25.3486
 20
10.5537
 11
25.4287
 21
10.6279
  0
LINE
  8
0
 10
25.4287
 20
10.6279
 11
25.5771
 21
10.7539
  0
LINE
  8
0
 10
25.5771
 20
10.7539
 11
30.208
 21
14.5957
  0
LINE
  8
0
 10
30.208
 20
14.5957
 11
30.4492
 21
14.8047
  0
LINE
  8
0
 10
30.4492
 20
14.8047
 11
30.5479
 21
14.8789
  0
LINE
  8
0
 10
30.5479
 20
14.8789
 11
30.6533
 21
14.9434
  0
LINE
  8
0
 10
30.6533
 20
14.9434
 11
30.7383
 21
14.9824
  0
LINE
  8
0
 10
30.7383
 20
14.9824
 11
30.7988
 21
15.0029
  0
LINE
  8
0
 10
30.7988
 20
15.0029
 11
30.8623
 21
15.0195
  0
LINE
  8
0
 10
30.8623
 20
15.0195
 11
30.9297
 21
15.0312
  0
LINE
  8
0
 10
30.9297
 20
15.0312
 11
31.002
 21
15.0371
  0
LINE
  8
0
 10
31.002
 20
15.0371
 11
31.0908
 21
15.0361
  0
LINE
  8
0
 10
31.0908
 20
15.0361
 11
31.1406
 21
15.0322
  0
LINE
  8
0
 10
31.1406
 20
15.0322
 11
31.2363
 21
15.0166
  0
LINE
  8
0
 10
31.2363
 20
15.0166
 11
31.2812
 21
15.0049
  0
LINE
  8
0
 10
31.2812
 20
15.0049
 11
31.3252
 21
14.9912
  0
LINE
  8
0
 10
31.3252
 20
14.9912
 11
31.3682
 21
14.9756
  0
LINE
  8
0
 10
31.3682
 20
14.9756
 11
31.4492
 21
14.9375
  0
LINE
  8
0
 10
31.4492
 20
14.9375
 11
31.5234
 21
14.8916
  0
LINE
  8
0
 10
31.5234
 20
14.8916
 11
31.5586
 21
14.8662
  0
LINE
  8
0
 10
31.5586
 20
14.8662
 11
31.5928
 21
14.8389
  0
LINE
  8
0
 10
31.5928
 20
14.8389
 11
31.624
 21
14.8105
  0
LINE
  8
0
 10
31.624
 20
14.8105
 11
31.6543
 21
14.7803
  0
LINE
  8
0
 10
31.6543
 20
14.7803
 11
31.6826
 21
14.749
  0
LINE
  8
0
 10
31.6826
 20
14.749
 11
31.71
 21
14.7158
  0
LINE
  8
0
 10
31.71
 20
14.7158
 11
31.7578
 21
14.6475
  0
LINE
  8
0
 10
31.7578
 20
14.6475
 11
31.7998
 21
14.5752
  0
LINE
  8
0
 10
31.7998
 20
14.5752
 11
31.834
 21
14.499
  0
LINE
  8
0
 10
31.834
 20
14.499
 11
31.8613
 21
14.4209
  0
LINE
  8
0
 10
31.8613
 20
14.4209
 11
31.8721
 21
14.3818
  0
LINE
  8
0
 10
31.8721
 20
14.3818
 11
31.8877
 21
14.3018
  0
LINE
  8
0
 10
31.8877
 20
14.3018
 11
31.8955
 21
14.2207
  0
LINE
  8
0
 10
31.8955
 20
14.2207
 11
31.8965
 21
11.6104
  0
LINE
  8
0
 10
31.8965
 20
11.6104
 11
37.9395
 21
11.6094
  0
LINE
  8
0
 10
37.9395
 20
11.6094
 11
37.9844
 21
11.6055
  0
LINE
  8
0
 10
37.9844
 20
11.6055
 11
38.0283
 21
11.5996
  0
LINE
  8
0
 10
38.0283
 20
11.5996
 11
38.0713
 21
11.5918
  0
LINE
  8
0
 10
38.0713
 20
11.5918
 11
38.1553
 21
11.5693
  0
LINE
  8
0
 10
38.1553
 20
11.5693
 11
38.1963
 21
11.5547
  0
LINE
  8
0
 10
38.1963
 20
11.5547
 11
38.2754
 21
11.5205
  0
LINE
  8
0
 10
38.2754
 20
11.5205
 11
38.3496
 21
11.4785
  0
LINE
  8
0
 10
38.3496
 20
11.4785
 11
38.4189
 21
11.4287
  0
LINE
  8
0
 10
38.4189
 20
11.4287
 11
38.4521
 21
11.4023
  0
LINE
  8
0
 10
38.4521
 20
11.4023
 11
38.5137
 21
11.3438
  0
LINE
  8
0
 10
38.5137
 20
11.3438
 11
38.5693
 21
11.2793
  0
LINE
  8
0
 10
38.5693
 20
11.2793
 11
38.5947
 21
11.2451
  0
LINE
  8
0
 10
38.5947
 20
11.2451
 11
38.6406
 21
11.1729
  0
LINE
  8
0
 10
38.6406
 20
11.1729
 11
38.6787
 21
11.0957
  0
LINE
  8
0
 10
38.6787
 20
11.0957
 11
38.6953
 21
11.0566
  0
LINE
  8
0
 10
38.6953
 20
11.0566
 11
38.71
 21
11.0156
  0
LINE
  8
0
 10
38.71
 20
11.0156
 11
38.7324
 21
10.9307
  0
LINE
  8
0
 10
38.7324
 20
10.9307
 11
38.7402
 21
10.8877
  0
LINE
  8
0
 10
38.7402
 20
10.8877
 11
38.7461
 21
10.8438
  0
LINE
  8
0
 10
38.7461
 20
10.8438
 11
38.751
 21
10.7539
  0
LINE
  8
0
 10
38.751
 20
10.7539
 11
38.751
 21
9.04004
  0
LINE
  8
0
 10
38.751
 20
9.04004
 11
38.7461
 21
8.9502
  0
LINE
  8
0
 10
38.7461
 20
8.9502
 11
38.7324
 21
8.8623
  0
LINE
  8
0
 10
38.7324
 20
8.8623
 11
38.71
 21
8.77832
  0
LINE
  8
0
 10
38.71
 20
8.77832
 11
38.6953
 21
8.7373
  0
LINE
  8
0
 10
38.6953
 20
8.7373
 11
38.6787
 21
8.69727
  0
LINE
  8
0
 10
38.6787
 20
8.69727
 11
38.6406
 21
8.62109
  0
LINE
  8
0
 10
38.6406
 20
8.62109
 11
38.5947
 21
8.54883
  0
LINE
  8
0
 10
38.5947
 20
8.54883
 11
38.5693
 21
8.51465
  0
LINE
  8
0
 10
38.5693
 20
8.51465
 11
38.542
 21
8.48145
  0
LINE
  8
0
 10
38.542
 20
8.48145
 11
38.5137
 21
8.4502
  0
LINE
  8
0
 10
38.5137
 20
8.4502
 11
38.4834
 21
8.41992
  0
LINE
  8
0
 10
38.4834
 20
8.41992
 11
38.4521
 21
8.3916
  0
LINE
  8
0
 10
38.4521
 20
8.3916
 11
38.4189
 21
8.36426
  0
LINE
  8
0
 10
38.4189
 20
8.36426
 11
38.3848
 21
8.33887
  0
LINE
  8
0
 10
38.3848
 20
8.33887
 11
38.3496
 21
8.31543
  0
LINE
  8
0
 10
38.3496
 20
8.31543
 11
38.2754
 21
8.27344
  0
LINE
  8
0
 10
38.2754
 20
8.27344
 11
38.2363
 21
8.25488
  0
LINE
  8
0
 10
38.2363
 20
8.25488
 11
38.1963
 21
8.23828
  0
LINE
  8
0
 10
38.1963
 20
8.23828
 11
38.1143
 21
8.21191
  0
LINE
  8
0
 10
38.1143
 20
8.21191
 11
38.0283
 21
8.19336
  0
LINE
  8
0
 10
38.0283
 20
8.19336
 11
37.9844
 21
8.1875
  0
LINE
  8
0
 10
37.9844
 20
8.1875
 11
37.8936
 21
8.18359
  0
LINE
  8
0
 10
37.8936
 20
8.18359
 11
31.8965
 21
8.18359
  0
LINE
  8
0
 10
31.8965
 20
8.18359
 11
31.8955
 21
5.57227
  0
LINE
  8
0
 10
31.8955
 20
5.57227
 11
31.8877
 21
5.49219
  0
LINE
  8
0
 10
31.8877
 20
5.49219
 11
31.8721
 21
5.41211
  0
LINE
  8
0
 10
31.8721
 20
5.41211
 11
31.8613
 21
5.37207
  0
LINE
  8
0
 10
31.8613
 20
5.37207
 11
31.834
 21
5.29395
  0
LINE
  8
0
 10
31.834
 20
5.29395
 11
31.7998
 21
5.21875
  0
LINE
  8
0
 10
31.7998
 20
5.21875
 11
31.7578
 21
5.14648
  0
LINE
  8
0
 10
31.7578
 20
5.14648
 11
31.71
 21
5.07715
  0
LINE
  8
0
 10
31.71
 20
5.07715
 11
31.6543
 21
5.01367
  0
LINE
  8
0
 10
31.6543
 20
5.01367
 11
31.624
 21
4.9834
  0
LINE
  8
0
 10
31.624
 20
4.9834
 11
31.5928
 21
4.95508
  0
LINE
  8
0
 10
31.5928
 20
4.95508
 11
31.5586
 21
4.92773
  0
LINE
  8
0
 10
31.5586
 20
4.92773
 11
31.4873
 21
4.87793
  0
LINE
  8
0
 10
31.4873
 20
4.87793
 11
31.4092
 21
4.83594
  0
LINE
  8
0
 10
31.4092
 20
4.83594
 11
31.3682
 21
4.81836
  0
LINE
  8
0
 10
31.3682
 20
4.81836
 11
31.2812
 21
4.78809
  0
LINE
  8
0
 10
31.2812
 20
4.78809
 11
31.1885
 21
4.76758
  0
LINE
  8
0
 10
31.1885
 20
4.76758
 11
31.1406
 21
4.76172
  0
LINE
  8
0
 10
31.1406
 20
4.76172
 11
31.0908
 21
4.75781
  0
LINE
  8
0
 10
31.0908
 20
4.75781
 11
31.04
 21
4.75586
  0
LINE
  8
0
 10
31.04
 20
4.75586
 11
30.9658
 21
4.75879
  0
LINE
  8
0
 10
63.7402
 20
19.7402
 11
44
 21
19.7402
  0
LINE
  8
0
 10
44
 20
19.7402
 11
44
 21
0
  0
LINE
  8
0
 10
44
 20
0
 11
63.7402
 21
0
  0
LINE
  8
0
 10
63.7402
 20
0
 11
63.7402
 21
19.7402
  0
LINE
  8
0
 10
49.1699
 20
6.1582
 11
48.415
 21
7.01758
  0
LINE
  8
0
 10
48.415
 20
7.01758
 11
48.2021
 21
7.26562
  0
LINE
  8
0
 10
48.2021
 20
7.26562
 11
48.1445
 21
7.33496
  0
LINE
  8
0
 10
48.1445
 20
7.33496
 11
48.0381
 21
7.47363
  0
LINE
  8
0
 10
48.0381
 20
7.47363
 11
47.9883
 21
7.54395
  0
LINE
  8
0
 10
47.9883
 20
7.54395
 11
47.9414
 21
7.61426
  0
LINE
  8
0
 10
47.9414
 20
7.61426
 11
47.8535
 21
7.75586
  0
LINE
  8
0
 10
47.8535
 20
7.75586
 11
47.7744
 21
7.89551
  0
LINE
  8
0
 10
47.7744
 20
7.89551
 11
47.7051
 21
8.03516
  0
LINE
  8
0
 10
47.7051
 20
8.03516
 11
47.6729
 21
8.10352
  0
LINE
  8
0
 10
47.6729
 20
8.10352
 11
47.6162
 21
8.23926
  0
LINE
  8
0
 10
47.6162
 20
8.23926
 11
47.5674
 21
8.37109
  0
LINE
  8
0
 10
47.5674
 20
8.37109
 11
47.5264
 21
8.49902
  0
LINE
  8
0
 10
47.5264
 20
8.49902
 11
47.4932
 21
8.62109
  0
LINE
  8
0
 10
47.4932
 20
8.62109
 11
47.457
 21
8.79395
  0
LINE
  8
0
 10
47.457
 20
8.79395
 11
47.4424
 21
8.90137
  0
LINE
  8
0
 10
47.4424
 20
8.90137
 11
47.4346
 21
9
  0
LINE
  8
0
 10
47.4346
 20
9
 11
47.4346
 21
9.08984
  0
LINE
  8
0
 10
47.4346
 20
9.08984
 11
47.4395
 21
9.16992
  0
LINE
  8
0
 10
47.4395
 20
9.16992
 11
47.4463
 21
9.20801
  0
LINE
  8
0
 10
47.4463
 20
9.20801
 11
47.4551
 21
9.24512
  0
LINE
  8
0
 10
47.4551
 20
9.24512
 11
47.4668
 21
9.28223
  0
LINE
  8
0
 10
47.4668
 20
9.28223
 11
47.4814
 21
9.31836
  0
LINE
  8
0
 10
47.4814
 20
9.31836
 11
47.499
 21
9.35449
  0
LINE
  8
0
 10
47.499
 20
9.35449
 11
47.5186
 21
9.38965
  0
LINE
  8
0
 10
47.5186
 20
9.38965
 11
47.541
 21
9.4248
  0
LINE
  8
0
 10
47.541
 20
9.4248
 11
47.5654
 21
9.45898
  0
LINE
  8
0
 10
47.5654
 20
9.45898
 11
47.5918
 21
9.49219
  0
LINE
  8
0
 10
47.5918
 20
9.49219
 11
47.6514
 21
9.55762
  0
LINE
  8
0
 10
47.6514
 20
9.55762
 11
47.7168
 21
9.61816
  0
LINE
  8
0
 10
47.7168
 20
9.61816
 11
47.7881
 21
9.67578
  0
LINE
  8
0
 10
47.7881
 20
9.67578
 11
47.8633
 21
9.72949
  0
LINE
  8
0
 10
47.8633
 20
9.72949
 11
47.9434
 21
9.77832
  0
LINE
  8
0
 10
47.9434
 20
9.77832
 11
48.0254
 21
9.82227
  0
LINE
  8
0
 10
48.0254
 20
9.82227
 11
48.1084
 21
9.86035
  0
LINE
  8
0
 10
48.1084
 20
9.86035
 11
48.1914
 21
9.89258
  0
LINE
  8
0
 10
48.1914
 20
9.89258
 11
48.2744
 21
9.91895
  0
LINE
  8
0
 10
48.2744
 20
9.91895
 11
48.3145
 21
9.92969
  0
LINE
  8
0
 10
48.3145
 20
9.92969
 11
48.3945
 21
9.94531
  0
LINE
  8
0
 10
48.3945
 20
9.94531
 11
48.4326
 21
9.95117
  0
LINE
  8
0
 10
48.4326
 20
9.95117
 11
48.4746
 21
9.9541
  0
LINE
  8
0
 10
48.4746
 20
9.9541
 11
48.5781
 21
9.94824
  0
LINE
  8
0
 10
48.5781
 20
9.94824
 11
48.708
 21
9.92871
  0
LINE
  8
0
 10
48.708
 20
9.92871
 11
48.8584
 21
9.89746
  0
LINE
  8
0
 10
48.8584
 20
9.89746
 11
49.0264
 21
9.85547
  0
LINE
  8
0
 10
49.0264
 20
9.85547
 11
49.3066
 21
9.77637
  0
LINE
  8
0
 10
49.3066
 20
9.77637
 11
49.5059
 21
9.71484
  0
LINE
  8
0
 10
49.5059
 20
9.71484
 11
49.8154
 21
9.61133
  0
LINE
  8
0
 10
49.8154
 20
9.61133
 11
50.0234
 21
9.53809
  0
LINE
  8
0
 10
50.0234
 20
9.53809
 11
50.4307
 21
9.38574
  0
LINE
  8
0
 10
50.4307
 20
9.38574
 11
50.623
 21
9.31055
  0
LINE
  8
0
 10
50.623
 20
9.31055
 11
50.8018
 21
9.2373
  0
LINE
  8
0
 10
50.8018
 20
9.2373
 11
51.041
 21
9.13379
  0
LINE
  8
0
 10
51.041
 20
9.13379
 11
51.4141
 21
8.95801
  0
LINE
  8
0
 10
51.4141
 20
8.95801
 11
56.3975
 21
6.50781
  0
LINE
  8
0
 10
56.3975
 20
6.50781
 11
51.1475
 21
10.8193
  0
LINE
  8
0
 10
51.1475
 20
10.8193
 11
48.7656
 21
12.7881
  0
LINE
  8
0
 10
48.7656
 20
12.7881
 11
48.4492
 21
13.0537
  0
LINE
  8
0
 10
48.4492
 20
13.0537
 11
48.2939
 21
13.1875
  0
LINE
  8
0
 10
48.2939
 20
13.1875
 11
47.8965
 21
13.5635
  0
LINE
  8
0
 10
47.8965
 20
13.5635
 11
47.8086
 21
13.6504
  0
LINE
  8
0
 10
47.8086
 20
13.6504
 11
47.5918
 21
13.876
  0
LINE
  8
0
 10
47.5918
 20
13.876
 11
47.4697
 21
14.0146
  0
LINE
  8
0
 10
47.4697
 20
14.0146
 11
47.3574
 21
14.1514
  0
LINE
  8
0
 10
47.3574
 20
14.1514
 11
47.291
 21
14.2412
  0
LINE
  8
0
 10
47.291
 20
14.2412
 11
47.2314
 21
14.3291
  0
LINE
  8
0
 10
47.2314
 20
14.3291
 11
47.1807
 21
14.415
  0
LINE
  8
0
 10
47.1807
 20
14.415
 11
47.1396
 21
14.4961
  0
LINE
  8
0
 10
47.1396
 20
14.4961
 11
47.1221
 21
14.5371
  0
LINE
  8
0
 10
47.1221
 20
14.5371
 11
47.0938
 21
14.6201
  0
LINE
  8
0
 10
47.0938
 20
14.6201
 11
47.0811
 21
14.6631
  0
LINE
  8
0
 10
47.0811
 20
14.6631
 11
47.0547
 21
14.7949
  0
LINE
  8
0
 10
47.0547
 20
14.7949
 11
47.0449
 21
14.8848
  0
LINE
  8
0
 10
47.0449
 20
14.8848
 11
47.04
 21
14.9746
  0
LINE
  8
0
 10
47.04
 20
14.9746
 11
47.041
 21
15.0635
  0
LINE
  8
0
 10
47.041
 20
15.0635
 11
47.0479
 21
15.1523
  0
LINE
  8
0
 10
47.0479
 20
15.1523
 11
47.0586
 21
15.2383
  0
LINE
  8
0
 10
47.0586
 20
15.2383
 11
47.0752
 21
15.3213
  0
LINE
  8
0
 10
47.0752
 20
15.3213
 11
47.0957
 21
15.4004
  0
LINE
  8
0
 10
47.0957
 20
15.4004
 11
47.1201
 21
15.4756
  0
LINE
  8
0
 10
47.1201
 20
15.4756
 11
47.1484
 21
15.5449
  0
LINE
  8
0
 10
47.1484
 20
15.5449
 11
47.1807
 21
15.6084
  0
LINE
  8
0
 10
47.1807
 20
15.6084
 11
47.2158
 21
15.6641
  0
LINE
  8
0
 10
47.2158
 20
15.6641
 11
47.2549
 21
15.7129
  0
LINE
  8
0
 10
47.2549
 20
15.7129
 11
47.3223
 21
15.7783
  0
LINE
  8
0
 10
47.3223
 20
15.7783
 11
47.375
 21
15.8213
  0
LINE
  8
0
 10
47.375
 20
15.8213
 11
47.4326
 21
15.8613
  0
LINE
  8
0
 10
47.4326
 20
15.8613
 11
47.4639
 21
15.8809
  0
LINE
  8
0
 10
47.4639
 20
15.8809
 11
47.5303
 21
15.918
  0
LINE
  8
0
 10
47.5303
 20
15.918
 11
47.6025
 21
15.9521
  0
LINE
  8
0
 10
47.6025
 20
15.9521
 11
47.6787
 21
15.9824
  0
LINE
  8
0
 10
47.6787
 20
15.9824
 11
47.7607
 21
16.0088
  0
LINE
  8
0
 10
47.7607
 20
16.0088
 11
47.8467
 21
16.0312
  0
LINE
  8
0
 10
47.8467
 20
16.0312
 11
47.9375
 21
16.0488
  0
LINE
  8
0
 10
47.9375
 20
16.0488
 11
48.0312
 21
16.0605
  0
LINE
  8
0
 10
48.0312
 20
16.0605
 11
48.0801
 21
16.0645
  0
LINE
  8
0
 10
48.0801
 20
16.0645
 11
48.1807
 21
16.0674
  0
LINE
  8
0
 10
48.1807
 20
16.0674
 11
48.2842
 21
16.0635
  0
LINE
  8
0
 10
48.2842
 20
16.0635
 11
48.3916
 21
16.0527
  0
LINE
  8
0
 10
48.3916
 20
16.0527
 11
48.502
 21
16.0342
  0
LINE
  8
0
 10
48.502
 20
16.0342
 11
48.7061
 21
15.9863
  0
LINE
  8
0
 10
48.7061
 20
15.9863
 11
49.0723
 21
15.8838
  0
LINE
  8
0
 10
49.0723
 20
15.8838
 11
49.5029
 21
15.752
  0
LINE
  8
0
 10
49.5029
 20
15.752
 11
50.1758
 21
15.5361
  0
LINE
  8
0
 10
50.1758
 20
15.5361
 11
51.0879
 21
15.2305
  0
LINE
  8
0
 10
51.0879
 20
15.2305
 11
57.3213
 21
12.9121
  0
LINE
  8
0
 10
57.3213
 20
12.9121
 11
54.1123
 21
15.4609
  0
LINE
  8
0
 10
54.1123
 20
15.4609
 11
55.2432
 21
16.7002
  0
LINE
  8
0
 10
55.2432
 20
16.7002
 11
57.9375
 21
14.4814
  0
LINE
  8
0
 10
57.9375
 20
14.4814
 11
59.0576
 21
13.5449
  0
LINE
  8
0
 10
59.0576
 20
13.5449
 11
59.3721
 21
13.2754
  0
LINE
  8
0
 10
59.3721
 20
13.2754
 11
59.751
 21
12.9355
  0
LINE
  8
0
 10
59.751
 20
12.9355
 11
60.0195
 21
12.6826
  0
LINE
  8
0
 10
60.0195
 20
12.6826
 11
60.1611
 21
12.54
  0
LINE
  8
0
 10
60.1611
 20
12.54
 11
60.2881
 21
12.4014
  0
LINE
  8
0
 10
60.2881
 20
12.4014
 11
60.3652
 21
12.3115
  0
LINE
  8
0
 10
60.3652
 20
12.3115
 11
60.4346
 21
12.2236
  0
LINE
  8
0
 10
60.4346
 20
12.2236
 11
60.4971
 21
12.1357
  0
LINE
  8
0
 10
60.4971
 20
12.1357
 11
60.5537
 21
12.0488
  0
LINE
  8
0
 10
60.5537
 20
12.0488
 11
60.6025
 21
11.9609
  0
LINE
  8
0
 10
60.6025
 20
11.9609
 11
60.624
 21
11.918
  0
LINE
  8
0
 10
60.624
 20
11.918
 11
60.6621
 21
11.8301
  0
LINE
  8
0
 10
60.6621
 20
11.8301
 11
60.6924
 21
11.7422
  0
LINE
  8
0
 10
60.6924
 20
11.7422
 11
60.7168
 21
11.6523
  0
LINE
  8
0
 10
60.7168
 20
11.6523
 11
60.7354
 21
11.5615
  0
LINE
  8
0
 10
60.7354
 20
11.5615
 11
60.7471
 21
11.4697
  0
LINE
  8
0
 10
60.7471
 20
11.4697
 11
60.7529
 21
11.3789
  0
LINE
  8
0
 10
60.7529
 20
11.3789
 11
60.7539
 21
11.333
  0
LINE
  8
0
 10
60.7539
 20
11.333
 11
60.749
 21
11.2422
  0
LINE
  8
0
 10
60.749
 20
11.2422
 11
60.7363
 21
11.1533
  0
LINE
  8
0
 10
60.7363
 20
11.1533
 11
60.7275
 21
11.1094
  0
LINE
  8
0
 10
60.7275
 20
11.1094
 11
60.7021
 21
11.0234
  0
LINE
  8
0
 10
60.7021
 20
11.0234
 11
60.6689
 21
10.9395
  0
LINE
  8
0
 10
60.6689
 20
10.9395
 11
60.626
 21
10.8594
  0
LINE
  8
0
 10
60.626
 20
10.8594
 11
60.6016
 21
10.8213
  0
LINE
  8
0
 10
60.6016
 20
10.8213
 11
60.5742
 21
10.7832
  0
LINE
  8
0
 10
60.5742
 20
10.7832
 11
60.5117
 21
10.7109
  0
LINE
  8
0
 10
60.5117
 20
10.7109
 11
60.4766
 21
10.6768
  0
LINE
  8
0
 10
60.4766
 20
10.6768
 11
60.4385
 21
10.6445
  0
LINE
  8
0
 10
60.4385
 20
10.6445
 11
60.3545
 21
10.583
  0
LINE
  8
0
 10
60.3545
 20
10.583
 11
60.3086
 21
10.5547
  0
LINE
  8
0
 10
60.3086
 20
10.5547
 11
60.2588
 21
10.5273
  0
LINE
  8
0
 10
60.2588
 20
10.5273
 11
60.207
 21
10.502
  0
LINE
  8
0
 10
60.207
 20
10.502
 11
60.1514
 21
10.4795
  0
LINE
  8
0
 10
60.1514
 20
10.4795
 11
60.0938
 21
10.4609
  0
LINE
  8
0
 10
60.0938
 20
10.4609
 11
60.0322
 21
10.4463
  0
LINE
  8
0
 10
60.0322
 20
10.4463
 11
59.9688
 21
10.4346
  0
LINE
  8
0
 10
59.9688
 20
10.4346
 11
59.9023
 21
10.4268
  0
LINE
  8
0
 10
59.9023
 20
10.4268
 11
59.833
 21
10.4219
  0
LINE
  8
0
 10
59.833
 20
10.4219
 11
59.7627
 21
10.4199
  0
LINE
  8
0
 10
59.7627
 20
10.4199
 11
59.6162
 21
10.4238
  0
LINE
  8
0
 10
59.6162
 20
10.4238
 11
59.541
 21
10.4297
  0
LINE
  8
0
 10
59.541
 20
10.4297
 11
59.3867
 21
10.4482
  0
LINE
  8
0
 10
59.3867
 20
10.4482
 11
59.2295
 21
10.4746
  0
LINE
  8
0
 10
59.2295
 20
10.4746
 11
59.0713
 21
10.5078
  0
LINE
  8
0
 10
59.0713
 20
10.5078
 11
58.834
 21
10.5664
  0
LINE
  8
0
 10
58.834
 20
10.5664
 11
58.5303
 21
10.6543
  0
LINE
  8
0
 10
58.5303
 20
10.6543
 11
58.0137
 21
10.8232
  0
LINE
  8
0
 10
58.0137
 20
10.8232
 11
57.8271
 21
10.8896
  0
LINE
  8
0
 10
57.8271
 20
10.8896
 11
57.2832
 21
11.0918
  0
LINE
  8
0
 10
57.2832
 20
11.0918
 11
52.0225
 21
13.0977
  0
LINE
  8
0
 10
52.0225
 20
13.0977
 11
50.2334
 21
13.7852
  0
LINE
  8
0
 10
50.2334
 20
13.7852
 11
57.8125
 21
7.55664
  0
LINE
  8
0
 10
57.8125
 20
7.55664
 11
58.7373
 21
6.79004
  0
LINE
  8
0
 10
58.7373
 20
6.79004
 11
58.9873
 21
6.56934
  0
LINE
  8
0
 10
58.9873
 20
6.56934
 11
59.4395
 21
6.15234
  0
LINE
  8
0
 10
59.4395
 20
6.15234
 11
59.7988
 21
5.80664
  0
LINE
  8
0
 10
59.7988
 20
5.80664
 11
60.0059
 21
5.59961
  0
LINE
  8
0
 10
60.0059
 20
5.59961
 11
60.1953
 21
5.40137
  0
LINE
  8
0
 10
60.1953
 20
5.40137
 11
60.3066
 21
5.27832
  0
LINE
  8
0
 10
60.3066
 20
5.27832
 11
60.4023
 21
5.16602
  0
LINE
  8
0
 10
60.4023
 20
5.16602
 11
60.4795
 21
5.06641
  0
LINE
  8
0
 10
60.4795
 20
5.06641
 11
60.5352
 21
4.98242
  0
LINE
  8
0
 10
60.5352
 20
4.98242
 11
60.5537
 21
4.94727
  0
LINE
  8
0
 10
60.5537
 20
4.94727
 11
60.583
 21
4.87891
  0
LINE
  8
0
 10
60.583
 20
4.87891
 11
60.6221
 21
4.77051
  0
LINE
  8
0
 10
60.6221
 20
4.77051
 11
60.6426
 21
4.69531
  0
LINE
  8
0
 10
60.6426
 20
4.69531
 11
60.6592
 21
4.61914
  0
LINE
  8
0
 10
60.6592
 20
4.61914
 11
60.6719
 21
4.54004
  0
LINE
  8
0
 10
60.6719
 20
4.54004
 11
60.6807
 21
4.4209
  0
LINE
  8
0
 10
60.6807
 20
4.4209
 11
60.6777
 21
4.30176
  0
LINE
  8
0
 10
60.6777
 20
4.30176
 11
60.668
 21
4.22168
  0
LINE
  8
0
 10
60.668
 20
4.22168
 11
60.6514
 21
4.14258
  0
LINE
  8
0
 10
60.6514
 20
4.14258
 11
60.6289
 21
4.06543
  0
LINE
  8
0
 10
60.6289
 20
4.06543
 11
60.5986
 21
3.98926
  0
LINE
  8
0
 10
60.5986
 20
3.98926
 11
60.5605
 21
3.91504
  0
LINE
  8
0
 10
60.5605
 20
3.91504
 11
60.5391
 21
3.87891
  0
LINE
  8
0
 10
60.5391
 20
3.87891
 11
60.5156
 21
3.84375
  0
LINE
  8
0
 10
60.5156
 20
3.84375
 11
60.4609
 21
3.77539
  0
LINE
  8
0
 10
60.4609
 20
3.77539
 11
60.4307
 21
3.74414
  0
LINE
  8
0
 10
60.4307
 20
3.74414
 11
60.3965
 21
3.71484
  0
LINE
  8
0
 10
60.3965
 20
3.71484
 11
60.3594
 21
3.6875
  0
LINE
  8
0
 10
60.3594
 20
3.6875
 11
60.3193
 21
3.66309
  0
LINE
  8
0
 10
60.3193
 20
3.66309
 11
60.2773
 21
3.6416
  0
LINE
  8
0
 10
60.2773
 20
3.6416
 11
60.2314
 21
3.62207
  0
LINE
  8
0
 10
60.2314
 20
3.62207
 11
60.1846
 21
3.60449
  0
LINE
  8
0
 10
60.1846
 20
3.60449
 11
60.1348
 21
3.58887
  0
LINE
  8
0
 10
60.1348
 20
3.58887
 11
60.083
 21
3.5752
  0
LINE
  8
0
 10
60.083
 20
3.5752
 11
59.9756
 21
3.55469
  0
LINE
  8
0
 10
59.9756
 20
3.55469
 11
59.8633
 21
3.54004
  0
LINE
  8
0
 10
59.8633
 20
3.54004
 11
59.7461
 21
3.5332
  0
LINE
  8
0
 10
59.7461
 20
3.5332
 11
59.6279
 21
3.53027
  0
LINE
  8
0
 10
59.6279
 20
3.53027
 11
59.5078
 21
3.5332
  0
LINE
  8
0
 10
59.5078
 20
3.5332
 11
59.332
 21
3.5459
  0
LINE
  8
0
 10
59.332
 20
3.5459
 11
59.1621
 21
3.56445
  0
LINE
  8
0
 10
59.1621
 20
3.56445
 11
58.958
 21
3.59766
  0
LINE
  8
0
 10
58.958
 20
3.59766
 11
58.8682
 21
3.61523
  0
LINE
  8
0
 10
58.8682
 20
3.61523
 11
58.8223
 21
3.62598
  0
LINE
  8
0
 10
58.8223
 20
3.62598
 11
58.709
 21
3.66113
  0
LINE
  8
0
 10
58.709
 20
3.66113
 11
58.5723
 21
3.70996
  0
LINE
  8
0
 10
58.5723
 20
3.70996
 11
58.334
 21
3.80566
  0
LINE
  8
0
 10
58.334
 20
3.80566
 11
57.9756
 21
3.96094
  0
LINE
  8
0
 10
57.9756
 20
3.96094
 11
57.3467
 21
4.25195
  0
LINE
  8
0
 10
57.3467
 20
4.25195
 11
56.7676
 21
4.5332
  0
LINE
  8
0
 10
56.7676
 20
4.5332
 11
50.0713
 21
7.60938
  0
LINE
  8
0
 10
50.0713
 20
7.60938
 11
53.2578
 21
4.05078
  0
LINE
  8
0
 10
53.2578
 20
4.05078
 11
51.8955
 21
3.08691
  0
LINE
  8
0
 10
51.8955
 20
3.08691
 11
49.1699
 21
6.1582
  0
ENDSEC
  0
SECTION
  2
OBJECTS
  0
DICTIONARY
  0
ENDSEC
  0
EOF
