  0
SECTION
  2
BLOCKS
  0
ENDSEC
  0
SECTION
  2
ENTITIES
  0
LINE
  8
0
 10
106
 20
215
 11
0
 21
215
  0
LINE
  8
0
 10
0
 20
215
 11
0
 21
109
  0
LINE
  8
0
 10
0
 20
109
 11
106
 21
109
  0
LINE
  8
0
 10
106
 20
109
 11
106
 21
215
  0
LINE
  8
0
 10
106
 20
106
 11
0
 21
106
  0
LINE
  8
0
 10
0
 20
106
 11
0
 21
0
  0
LINE
  8
0
 10
0
 20
0
 11
106
 21
0
  0
LINE
  8
0
 10
106
 20
0
 11
106
 21
106
  0
LINE
  8
0
 10
31
 20
79
 11
31
 21
99
  0
LINE
  8
0
 10
31
 20
99
 11
51
 21
99
  0
LINE
  8
0
 10
51
 20
99
 11
51
 21
79
  0
LINE
  8
0
 10
51
 20
79
 11
31
 21
79
  0
LINE
  8
0
 10
55
 20
79
 11
55
 21
99
  0
LINE
  8
0
 10
55
 20
99
 11
75
 21
99
  0
LINE
  8
0
 10
75
 20
99
 11
75
 21
79
  0
LINE
  8
0
 10
75
 20
79
 11
55
 21
79
  0
LINE
  8
0
 10
79
 20
79
 11
79
 21
99
  0
LINE
  8
0
 10
79
 20
99
 11
99
 21
99
  0
LINE
  8
0
 10
99
 20
99
 11
99
 21
79
  0
LINE
  8
0
 10
99
 20
79
 11
79
 21
79
  0
LINE
  8
0
 10
7
 20
79
 11
7
 21
99
  0
LINE
  8
0
 10
7
 20
99
 11
27
 21
99
  0
LINE
  8
0
 10
27
 20
99
 11
27
 21
79
  0
LINE
  8
0
 10
27
 20
79
 11
7
 21
79
  0
LINE
  8
0
 10
31
 20
55
 11
31
 21
75
  0
LINE
  8
0
 10
31
 20
75
 11
51
 21
75
  0
LINE
  8
0
 10
51
 20
75
 11
51
 21
55
  0
LINE
  8
0
 10
51
 20
55
 11
31
 21
55
  0
LINE
  8
0
 10
55
 20
55
 11
55
 21
75
  0
LINE
  8
0
 10
55
 20
75
 11
75
 21
75
  0
LINE
  8
0
 10
75
 20
75
 11
75
 21
55
  0
LINE
  8
0
 10
75
 20
55
 11
55
 21
55
  0
LINE
  8
0
 10
7
 20
55
 11
7
 21
75
  0
LINE
  8
0
 10
7
 20
75
 11
27
 21
75
  0
LINE
  8
0
 10
27
 20
75
 11
27
 21
55
  0
LINE
  8
0
 10
27
 20
55
 11
7
 21
55
  0
LINE
  8
0
 10
79
 20
55
 11
79
 21
75
  0
LINE
  8
0
 10
79
 20
75
 11
99
 21
75
  0
LINE
  8
0
 10
99
 20
75
 11
99
 21
55
  0
LINE
  8
0
 10
99
 20
55
 11
79
 21
55
  0
LINE
  8
0
 10
7
 20
31
 11
7
 21
51
  0
LINE
  8
0
 10
7
 20
51
 11
27
 21
51
  0
LINE
  8
0
 10
27
 20
51
 11
27
 21
31
  0
LINE
  8
0
 10
27
 20
31
 11
7
 21
31
  0
LINE
  8
0
 10
31
 20
31
 11
31
 21
51
  0
LINE
  8
0
 10
31
 20
51
 11
51
 21
51
  0
LINE
  8
0
 10
51
 20
51
 11
51
 21
31
  0
LINE
  8
0
 10
51
 20
31
 11
31
 21
31
  0
LINE
  8
0
 10
55
 20
31
 11
55
 21
51
  0
LINE
  8
0
 10
55
 20
51
 11
75
 21
51
  0
LINE
  8
0
 10
75
 20
51
 11
75
 21
31
  0
LINE
  8
0
 10
75
 20
31
 11
55
 21
31
  0
LINE
  8
0
 10
79
 20
31
 11
79
 21
51
  0
LINE
  8
0
 10
79
 20
51
 11
99
 21
51
  0
LINE
  8
0
 10
99
 20
51
 11
99
 21
31
  0
LINE
  8
0
 10
99
 20
31
 11
79
 21
31
  0
LINE
  8
0
 10
79
 20
7
 11
79
 21
27
  0
LINE
  8
0
 10
79
 20
27
 11
99
 21
27
  0
LINE
  8
0
 10
99
 20
27
 11
99
 21
7
  0
LINE
  8
0
 10
99
 20
7
 11
79
 21
7
  0
LINE
  8
0
 10
7
 20
7
 11
7
 21
27
  0
LINE
  8
0
 10
7
 20
27
 11
27
 21
27
  0
LINE
  8
0
 10
27
 20
27
 11
27
 21
7
  0
LINE
  8
0
 10
27
 20
7
 11
7
 21
7
  0
LINE
  8
0
 10
31
 20
7
 11
31
 21
27
  0
LINE
  8
0
 10
31
 20
27
 11
51
 21
27
  0
LINE
  8
0
 10
51
 20
27
 11
51
 21
7
  0
LINE
  8
0
 10
51
 20
7
 11
31
 21
7
  0
LINE
  8
0
 10
55
 20
7
 11
55
 21
27
  0
LINE
  8
0
 10
55
 20
27
 11
75
 21
27
  0
LINE
  8
0
 10
75
 20
27
 11
75
 21
7
  0
LINE
  8
0
 10
75
 20
7
 11
55
 21
7
  0
ENDSEC
  0
SECTION
  2
OBJECTS
  0
DICTIONARY
  0
ENDSEC
  0
EOF
